FrauncesBlackOpMin.ufo
<glyph name="exclam" format="2">
  <advance width="542"/>
  <unicode hex="0021"/>
  <outline>
    <contour>
      <point x="282" y="1476" type="curve" smooth="yes"/>
      <point x="465" y="1476"/>
      <point x="548" y="1412"/>
      <point x="548" y="1312" type="curve" smooth="yes"/>
      <point x="548" y="1279"/>
      <point x="541" y="1226"/>
      <point x="529" y="1186" type="curve" smooth="yes"/>
      <point x="406" y="526" type="line" smooth="yes"/>
      <point x="393" y="470"/>
      <point x="363" y="440"/>
      <point x="293" y="440" type="curve" smooth="yes"/>
      <point x="222" y="440"/>
      <point x="196" y="468"/>
      <point x="179" y="530" type="curve" smooth="yes"/>
      <point x="43" y="1188" type="line" smooth="yes"/>
      <point x="29" y="1240"/>
      <point x="25" y="1277"/>
      <point x="25" y="1314" type="curve" smooth="yes"/>
      <point x="25" y="1416"/>
      <point x="153" y="1476"/>
    </contour>
    <contour>
      <point x="276" y="-30" type="curve" smooth="yes"/>
      <point x="425" y="-30"/>
      <point x="541" y="58"/>
      <point x="541" y="164" type="curve" smooth="yes"/>
      <point x="541" y="270"/>
      <point x="425" y="356"/>
      <point x="276" y="356" type="curve" smooth="yes"/>
      <point x="131" y="356"/>
      <point x="15" y="270"/>
      <point x="15" y="164" type="curve" smooth="yes"/>
      <point x="15" y="58"/>
      <point x="131" y="-30"/>
    </contour>
  </outline>
</glyph>
<glyph name="asterisk" format="2">
  <advance width="1042"/>
  <unicode hex="002A"/>
  <outline>
    <contour>
      <point x="564" y="1042" type="line"/>
      <point x="564" y="1196"/>
      <point x="705" y="1234"/>
      <point x="705" y="1341" type="curve" smooth="yes"/>
      <point x="705" y="1442"/>
      <point x="619" y="1489"/>
      <point x="529" y="1489" type="curve" smooth="yes"/>
      <point x="438" y="1489"/>
      <point x="344" y="1442"/>
      <point x="342" y="1349" type="curve" smooth="yes"/>
      <point x="340" y="1242"/>
      <point x="478" y="1198"/>
      <point x="478" y="1042" type="curve"/>
    </contour>
    <contour>
      <point x="538" y="1073" type="line"/>
      <point x="391" y="1121"/>
      <point x="401" y="1234"/>
      <point x="304" y="1267" type="curve" smooth="yes"/>
      <point x="183" y="1299"/>
      <point x="103" y="1248"/>
      <point x="75" y="1180" type="curve" smooth="yes"/>
      <point x="44" y="1115"/>
      <point x="73" y="1036"/>
      <point x="181" y="1004" type="curve" smooth="yes"/>
      <point x="278" y="970"/>
      <point x="367" y="1058"/>
      <point x="511" y="1010" type="curve"/>
    </contour>
    <contour>
      <point x="494" y="1061" type="line"/>
      <point x="402" y="937"/>
      <point x="267" y="970"/>
      <point x="207" y="883" type="curve" smooth="yes"/>
      <point x="136" y="800"/>
      <point x="170" y="723"/>
      <point x="242" y="681" type="curve" smooth="yes"/>
      <point x="319" y="640"/>
      <point x="426" y="638"/>
      <point x="494" y="711" type="curve" smooth="yes"/>
      <point x="556" y="798"/>
      <point x="471" y="897"/>
      <point x="563" y="1022" type="curve"/>
    </contour>
    <contour>
      <point x="494" y="1024" type="line"/>
      <point x="585" y="899"/>
      <point x="492" y="806"/>
      <point x="552" y="719" type="curve" smooth="yes"/>
      <point x="627" y="636"/>
      <point x="729" y="640"/>
      <point x="801" y="681" type="curve" smooth="yes"/>
      <point x="874" y="721"/>
      <point x="917" y="800"/>
      <point x="850" y="877" type="curve" smooth="yes"/>
      <point x="791" y="964"/>
      <point x="653" y="937"/>
      <point x="563" y="1063" type="curve"/>
    </contour>
    <contour>
      <point x="538" y="1012" type="line"/>
      <point x="684" y="1058"/>
      <point x="762" y="970"/>
      <point x="859" y="1002" type="curve" smooth="yes"/>
      <point x="980" y="1034"/>
      <point x="1006" y="1113"/>
      <point x="977" y="1180" type="curve" smooth="yes"/>
      <point x="951" y="1246"/>
      <point x="865" y="1297"/>
      <point x="755" y="1271" type="curve" smooth="yes"/>
      <point x="658" y="1238"/>
      <point x="655" y="1123"/>
      <point x="511" y="1075" type="curve"/>
    </contour>
  </outline>
</glyph>
<glyph name="period" format="2">
  <advance width="609"/>
  <unicode hex="002E"/>
  <outline>
    <contour>
      <point x="293" y="-30" type="curve" smooth="yes"/>
      <point x="435" y="-30"/>
      <point x="545" y="59"/>
      <point x="545" y="166" type="curve" smooth="yes"/>
      <point x="545" y="273"/>
      <point x="435" y="360"/>
      <point x="293" y="360" type="curve" smooth="yes"/>
      <point x="153" y="360"/>
      <point x="43" y="273"/>
      <point x="43" y="166" type="curve" smooth="yes"/>
      <point x="43" y="59"/>
      <point x="153" y="-30"/>
    </contour>
  </outline>
</glyph>
<glyph name="three" format="2">
  <advance width="1131"/>
  <unicode hex="0033"/>
  <outline>
    <contour>
      <point x="608" y="680" type="line"/>
      <point x="1022" y="1104" type="line" smooth="yes"/>
      <point x="1067" y="1142"/>
      <point x="1084" y="1182"/>
      <point x="1084" y="1210" type="curve" smooth="yes"/>
      <point x="1084" y="1262"/>
      <point x="1036" y="1298"/>
      <point x="933" y="1298" type="curve" smooth="yes"/>
      <point x="288" y="1298" type="line" smooth="yes"/>
      <point x="167" y="1298"/>
      <point x="89" y="1252"/>
      <point x="82" y="1184" type="curve" smooth="yes"/>
      <point x="62" y="936" type="line" smooth="yes"/>
      <point x="58" y="892"/>
      <point x="99" y="870"/>
      <point x="157" y="870" type="curve" smooth="yes"/>
      <point x="204" y="870"/>
      <point x="235" y="900"/>
      <point x="258" y="932" type="curve" smooth="yes"/>
      <point x="293" y="990" type="line" smooth="yes"/>
      <point x="323" y="1042"/>
      <point x="377" y="1060"/>
      <point x="459" y="1060" type="curve" smooth="yes"/>
      <point x="908" y="1060" type="line"/>
      <point x="855" y="1170" type="line"/>
      <point x="400" y="738" type="line" smooth="yes"/>
      <point x="358" y="712"/>
      <point x="325" y="682"/>
      <point x="325" y="648" type="curve" smooth="yes"/>
      <point x="325" y="610"/>
      <point x="373" y="584"/>
      <point x="433" y="584" type="curve" smooth="yes"/>
      <point x="509" y="584" type="line" smooth="yes"/>
      <point x="592" y="584"/>
      <point x="651" y="504"/>
      <point x="651" y="344" type="curve" smooth="yes"/>
      <point x="651" y="198"/>
      <point x="605" y="100"/>
      <point x="540" y="98" type="curve" smooth="yes"/>
      <point x="496" y="96"/>
      <point x="470" y="152"/>
      <point x="470" y="222" type="curve" smooth="yes"/>
      <point x="470" y="298" type="line" smooth="yes"/>
      <point x="470" y="398"/>
      <point x="380" y="468"/>
      <point x="272" y="468" type="curve" smooth="yes"/>
      <point x="137" y="468"/>
      <point x="25" y="392"/>
      <point x="25" y="288" type="curve" smooth="yes"/>
      <point x="25" y="112"/>
      <point x="220" y="-30"/>
      <point x="567" y="-30" type="curve" smooth="yes"/>
      <point x="898" y="-30"/>
      <point x="1092" y="132"/>
      <point x="1092" y="390" type="curve" smooth="yes"/>
      <point x="1092" y="620"/>
      <point x="880" y="730"/>
      <point x="550" y="730" type="curve" smooth="yes"/>
      <point x="544" y="730"/>
      <point x="511" y="730"/>
      <point x="503" y="730" type="curve"/>
    </contour>
  </outline>
</glyph>
<glyph name="nine" format="2">
  <advance width="1265"/>
  <unicode hex="0039"/>
  <outline>
    <contour>
      <point x="490" y="-26" type="curve" smooth="yes"/>
      <point x="929" y="-26"/>
      <point x="1261" y="194"/>
      <point x="1261" y="736" type="curve" smooth="yes"/>
      <point x="1261" y="1145"/>
      <point x="1012" y="1330"/>
      <point x="682" y="1330" type="curve" smooth="yes"/>
      <point x="287" y="1330"/>
      <point x="29" y="1132"/>
      <point x="29" y="846" type="curve" smooth="yes"/>
      <point x="29" y="607"/>
      <point x="202" y="474"/>
      <point x="453" y="474" type="curve" smooth="yes"/>
      <point x="728" y="474"/>
      <point x="952" y="642"/>
      <point x="952" y="846" type="curve"/>
      <point x="803" y="876" type="line"/>
      <point x="803" y="742"/>
      <point x="726" y="646"/>
      <point x="624" y="646" type="curve" smooth="yes"/>
      <point x="526" y="646"/>
      <point x="443" y="737"/>
      <point x="443" y="914" type="curve" smooth="yes"/>
      <point x="443" y="1079"/>
      <point x="513" y="1168"/>
      <point x="628" y="1168" type="curve" smooth="yes"/>
      <point x="718" y="1168"/>
      <point x="795" y="1060"/>
      <point x="795" y="698" type="curve" smooth="yes"/>
      <point x="795" y="257"/>
      <point x="708" y="114"/>
      <point x="616" y="114" type="curve" smooth="yes"/>
      <point x="540" y="114"/>
      <point x="499" y="168"/>
      <point x="499" y="222" type="curve" smooth="yes"/>
      <point x="499" y="258" type="line" smooth="yes"/>
      <point x="499" y="370"/>
      <point x="388" y="438"/>
      <point x="264" y="438" type="curve" smooth="yes"/>
      <point x="117" y="438"/>
      <point x="25" y="374"/>
      <point x="25" y="264" type="curve" smooth="yes"/>
      <point x="25" y="112"/>
      <point x="191" y="-26"/>
    </contour>
  </outline>
</glyph>
<glyph name="F" format="2">
  <advance width="1263"/>
  <unicode hex="0046"/>
  <outline>
    <contour>
      <point x="814" y="1400" type="curve" smooth="yes"/>
      <point x="126" y="1400" type="line" smooth="yes"/>
      <point x="60" y="1400"/>
      <point x="21" y="1376"/>
      <point x="21" y="1326" type="curve" smooth="yes"/>
      <point x="21" y="1276"/>
      <point x="54" y="1254"/>
      <point x="128" y="1242" type="curve" smooth="yes"/>
      <point x="107" y="1238" type="line" smooth="yes"/>
      <point x="163" y="1230"/>
      <point x="206" y="1190"/>
      <point x="206" y="1130" type="curve" smooth="yes"/>
      <point x="206" y="274" type="line" smooth="yes"/>
      <point x="206" y="212"/>
      <point x="181" y="182"/>
      <point x="128" y="166" type="curve" smooth="yes"/>
      <point x="126" y="160" type="line" smooth="yes"/>
      <point x="52" y="142"/>
      <point x="21" y="118"/>
      <point x="21" y="72" type="curve" smooth="yes"/>
      <point x="21" y="24"/>
      <point x="62" y="0"/>
      <point x="126" y="0" type="curve" smooth="yes"/>
      <point x="808" y="0" type="line" smooth="yes"/>
      <point x="863" y="0"/>
      <point x="915" y="24"/>
      <point x="915" y="72" type="curve" smooth="yes"/>
      <point x="915" y="106"/>
      <point x="882" y="138"/>
      <point x="824" y="152" type="curve" smooth="yes"/>
      <point x="758" y="174" type="line" smooth="yes"/>
      <point x="702" y="190"/>
      <point x="667" y="224"/>
      <point x="667" y="296" type="curve" smooth="yes"/>
      <point x="667" y="1258" type="line"/>
      <point x="676" y="1258" type="line" smooth="yes"/>
      <point x="832" y="1258"/>
      <point x="929" y="1212"/>
      <point x="979" y="1096" type="curve" smooth="yes"/>
      <point x="1075" y="998"/>
      <point x="1140" y="968"/>
      <point x="1215" y="968" type="curve" smooth="yes"/>
      <point x="1276" y="968"/>
      <point x="1314" y="992"/>
      <point x="1314" y="1034" type="curve" smooth="yes"/>
      <point x="1314" y="1048"/>
      <point x="1305" y="1080"/>
      <point x="1290" y="1124" type="curve" smooth="yes"/>
      <point x="1238" y="1366" type="line" smooth="yes"/>
      <point x="1224" y="1418"/>
      <point x="1201" y="1442"/>
      <point x="1143" y="1442" type="curve" smooth="yes"/>
      <point x="1087" y="1442"/>
      <point x="1065" y="1432"/>
      <point x="1007" y="1416" type="curve" smooth="yes"/>
      <point x="941" y="1398"/>
      <point x="880" y="1400"/>
    </contour>
    <contour>
      <point x="573" y="736" type="line"/>
      <point x="560" y="604" type="line"/>
      <point x="869" y="604" type="line" smooth="yes"/>
      <point x="958" y="604"/>
      <point x="1007" y="572"/>
      <point x="1049" y="520" type="curve" smooth="yes"/>
      <point x="1098" y="470"/>
      <point x="1129" y="448"/>
      <point x="1178" y="448" type="curve" smooth="yes"/>
      <point x="1224" y="448"/>
      <point x="1255" y="468"/>
      <point x="1255" y="502" type="curve" smooth="yes"/>
      <point x="1255" y="520"/>
      <point x="1244" y="544"/>
      <point x="1238" y="572" type="curve" smooth="yes"/>
      <point x="1197" y="820" type="line" smooth="yes"/>
      <point x="1182" y="868"/>
      <point x="1154" y="892"/>
      <point x="1096" y="892" type="curve" smooth="yes"/>
      <point x="1046" y="892"/>
      <point x="1022" y="866"/>
      <point x="991" y="824" type="curve" smooth="yes"/>
      <point x="962" y="756"/>
      <point x="921" y="736"/>
      <point x="865" y="736" type="curve" smooth="yes"/>
    </contour>
  </outline>
</glyph>
<glyph name="G" format="2">
  <advance width="1627"/>
  <unicode hex="0047"/>
  <outline>
    <contour>
      <point x="1448" y="70" type="curve" smooth="yes"/>
      <point x="1448" y="398" type="line" smooth="yes"/>
      <point x="1448" y="460"/>
      <point x="1483" y="494"/>
      <point x="1524" y="516" type="curve" smooth="yes"/>
      <point x="1533" y="528" type="line" smooth="yes"/>
      <point x="1578" y="554"/>
      <point x="1590" y="574"/>
      <point x="1590" y="614" type="curve" smooth="yes"/>
      <point x="1590" y="658"/>
      <point x="1549" y="684"/>
      <point x="1485" y="684" type="curve" smooth="yes"/>
      <point x="896" y="684" type="line" smooth="yes"/>
      <point x="830" y="684"/>
      <point x="791" y="656"/>
      <point x="791" y="610" type="curve" smooth="yes"/>
      <point x="791" y="560"/>
      <point x="836" y="536"/>
      <point x="919" y="524" type="curve" smooth="yes"/>
      <point x="952" y="514" type="line" smooth="yes"/>
      <point x="993" y="504"/>
      <point x="1014" y="462"/>
      <point x="1014" y="402" type="curve" smooth="yes"/>
      <point x="1014" y="292" type="line" smooth="yes"/>
      <point x="1014" y="212"/>
      <point x="995" y="170"/>
      <point x="943" y="170" type="curve" smooth="yes"/>
      <point x="670" y="170"/>
      <point x="486" y="388"/>
      <point x="486" y="730" type="curve" smooth="yes"/>
      <point x="486" y="1060"/>
      <point x="627" y="1280"/>
      <point x="859" y="1280" type="curve" smooth="yes"/>
      <point x="977" y="1280"/>
      <point x="1114" y="1224"/>
      <point x="1220" y="1032" type="curve" smooth="yes"/>
      <point x="1300" y="952"/>
      <point x="1370" y="922"/>
      <point x="1436" y="922" type="curve" smooth="yes"/>
      <point x="1505" y="922"/>
      <point x="1555" y="954"/>
      <point x="1555" y="1004" type="curve" smooth="yes"/>
      <point x="1555" y="1026"/>
      <point x="1543" y="1046"/>
      <point x="1541" y="1076" type="curve" smooth="yes"/>
      <point x="1512" y="1346" type="line" smooth="yes"/>
      <point x="1498" y="1410"/>
      <point x="1448" y="1428"/>
      <point x="1388" y="1428" type="curve" smooth="yes"/>
      <point x="1308" y="1428"/>
      <point x="1261" y="1364"/>
      <point x="1170" y="1364" type="curve" smooth="yes"/>
      <point x="1129" y="1364"/>
      <point x="1055" y="1428"/>
      <point x="886" y="1428" type="curve" smooth="yes"/>
      <point x="377" y="1428"/>
      <point x="47" y="1104"/>
      <point x="47" y="660" type="curve" smooth="yes"/>
      <point x="47" y="244"/>
      <point x="301" y="-30"/>
      <point x="667" y="-30" type="curve" smooth="yes"/>
      <point x="853" y="-30"/>
      <point x="943" y="62"/>
      <point x="1014" y="62" type="curve" smooth="yes"/>
      <point x="1106" y="62"/>
      <point x="1170" y="-30"/>
      <point x="1273" y="-30" type="curve" smooth="yes"/>
      <point x="1401" y="-30"/>
      <point x="1448" y="10"/>
    </contour>
  </outline>
</glyph>
<glyph name="H" format="2">
  <advance width="1819"/>
  <unicode hex="0048"/>
  <outline>
    <contour>
      <point x="439" y="748" type="line"/>
      <point x="439" y="582" type="line"/>
      <point x="1353" y="582" type="line"/>
      <point x="1353" y="748" type="line"/>
    </contour>
    <contour>
      <point x="688" y="252" type="curve" smooth="yes"/>
      <point x="688" y="1146" type="line" smooth="yes"/>
      <point x="688" y="1200"/>
      <point x="713" y="1224"/>
      <point x="764" y="1236" type="curve" smooth="yes"/>
      <point x="803" y="1246" type="line" smooth="yes"/>
      <point x="867" y="1256"/>
      <point x="894" y="1280"/>
      <point x="894" y="1328" type="curve" smooth="yes"/>
      <point x="894" y="1378"/>
      <point x="861" y="1400"/>
      <point x="793" y="1400" type="curve" smooth="yes"/>
      <point x="126" y="1400" type="line" smooth="yes"/>
      <point x="47" y="1400"/>
      <point x="16" y="1378"/>
      <point x="16" y="1328" type="curve" smooth="yes"/>
      <point x="16" y="1280"/>
      <point x="41" y="1260"/>
      <point x="99" y="1248" type="curve" smooth="yes"/>
      <point x="150" y="1236" type="line" smooth="yes"/>
      <point x="200" y="1224"/>
      <point x="227" y="1200"/>
      <point x="227" y="1146" type="curve" smooth="yes"/>
      <point x="227" y="252" type="line" smooth="yes"/>
      <point x="227" y="200"/>
      <point x="200" y="176"/>
      <point x="150" y="164" type="curve" smooth="yes"/>
      <point x="124" y="154" type="line" smooth="yes"/>
      <point x="54" y="140"/>
      <point x="21" y="118"/>
      <point x="21" y="72" type="curve" smooth="yes"/>
      <point x="21" y="22"/>
      <point x="47" y="0"/>
      <point x="126" y="0" type="curve" smooth="yes"/>
      <point x="789" y="0" type="line" smooth="yes"/>
      <point x="861" y="0"/>
      <point x="898" y="22"/>
      <point x="898" y="72" type="curve" smooth="yes"/>
      <point x="898" y="120"/>
      <point x="871" y="144"/>
      <point x="808" y="154" type="curve" smooth="yes"/>
      <point x="764" y="164" type="line" smooth="yes"/>
      <point x="713" y="174"/>
      <point x="688" y="200"/>
    </contour>
    <contour>
      <point x="1592" y="252" type="curve" smooth="yes"/>
      <point x="1592" y="1146" type="line" smooth="yes"/>
      <point x="1592" y="1200"/>
      <point x="1617" y="1224"/>
      <point x="1669" y="1236" type="curve" smooth="yes"/>
      <point x="1708" y="1246" type="line" smooth="yes"/>
      <point x="1772" y="1256"/>
      <point x="1798" y="1280"/>
      <point x="1798" y="1328" type="curve" smooth="yes"/>
      <point x="1798" y="1378"/>
      <point x="1765" y="1400"/>
      <point x="1697" y="1400" type="curve" smooth="yes"/>
      <point x="1030" y="1400" type="line" smooth="yes"/>
      <point x="952" y="1400"/>
      <point x="921" y="1378"/>
      <point x="921" y="1328" type="curve" smooth="yes"/>
      <point x="921" y="1280"/>
      <point x="946" y="1260"/>
      <point x="1003" y="1248" type="curve" smooth="yes"/>
      <point x="1055" y="1236" type="line" smooth="yes"/>
      <point x="1104" y="1224"/>
      <point x="1131" y="1200"/>
      <point x="1131" y="1146" type="curve" smooth="yes"/>
      <point x="1131" y="252" type="line" smooth="yes"/>
      <point x="1131" y="200"/>
      <point x="1104" y="176"/>
      <point x="1055" y="164" type="curve" smooth="yes"/>
      <point x="1028" y="154" type="line" smooth="yes"/>
      <point x="958" y="140"/>
      <point x="925" y="118"/>
      <point x="925" y="72" type="curve" smooth="yes"/>
      <point x="925" y="22"/>
      <point x="952" y="0"/>
      <point x="1030" y="0" type="curve" smooth="yes"/>
      <point x="1693" y="0" type="line" smooth="yes"/>
      <point x="1765" y="0"/>
      <point x="1803" y="22"/>
      <point x="1803" y="72" type="curve" smooth="yes"/>
      <point x="1803" y="120"/>
      <point x="1776" y="144"/>
      <point x="1712" y="154" type="curve" smooth="yes"/>
      <point x="1669" y="164" type="line" smooth="yes"/>
      <point x="1617" y="174"/>
      <point x="1592" y="200"/>
    </contour>
  </outline>
</glyph>
<glyph name="L" format="2">
  <advance width="1372"/>
  <unicode hex="004C"/>
  <anchor x="441" y="1484" name="center"/>
  <outline>
    <contour>
      <point x="814" y="1250" type="line" smooth="yes"/>
      <point x="876" y="1260"/>
      <point x="913" y="1290"/>
      <point x="913" y="1328" type="curve" smooth="yes"/>
      <point x="913" y="1376"/>
      <point x="882" y="1400"/>
      <point x="847" y="1400" type="curve" smooth="yes"/>
      <point x="119" y="1400" type="line" smooth="yes"/>
      <point x="72" y="1400"/>
      <point x="39" y="1376"/>
      <point x="39" y="1328" type="curve" smooth="yes"/>
      <point x="39" y="1284"/>
      <point x="78" y="1256"/>
      <point x="107" y="1246" type="curve" smooth="yes"/>
      <point x="146" y="1236" type="line" smooth="yes"/>
      <point x="200" y="1222"/>
      <point x="225" y="1192"/>
      <point x="225" y="1132" type="curve" smooth="yes"/>
      <point x="225" y="238" type="line" smooth="yes"/>
      <point x="225" y="200"/>
      <point x="202" y="172"/>
      <point x="167" y="166" type="curve" smooth="yes"/>
      <point x="105" y="154" type="line" smooth="yes"/>
      <point x="64" y="146"/>
      <point x="39" y="122"/>
      <point x="39" y="74" type="curve" smooth="yes"/>
      <point x="39" y="24"/>
      <point x="62" y="0"/>
      <point x="103" y="0" type="curve" smooth="yes"/>
      <point x="816" y="0" type="line" smooth="yes"/>
      <point x="958" y="0"/>
      <point x="1021" y="-42"/>
      <point x="1112" y="-42" type="curve" smooth="yes"/>
      <point x="1205" y="-42"/>
      <point x="1244" y="-8"/>
      <point x="1271" y="64" type="curve" smooth="yes"/>
      <point x="1316" y="310" type="line" smooth="yes"/>
      <point x="1353" y="404"/>
      <point x="1298" y="446"/>
      <point x="1226" y="446" type="curve" smooth="yes"/>
      <point x="1178" y="446"/>
      <point x="1143" y="438"/>
      <point x="1096" y="370" type="curve" smooth="yes"/>
      <point x="1055" y="280" type="line" smooth="yes"/>
      <point x="1016" y="200"/>
      <point x="948" y="160"/>
      <point x="787" y="160" type="curve" smooth="yes"/>
      <point x="840" y="160" type="line" smooth="yes"/>
      <point x="733" y="160"/>
      <point x="686" y="208"/>
      <point x="686" y="310" type="curve" smooth="yes"/>
      <point x="686" y="1120" type="line" smooth="yes"/>
      <point x="686" y="1190"/>
      <point x="717" y="1222"/>
      <point x="777" y="1236" type="curve" smooth="yes"/>
    </contour>
  </outline>
</glyph>
<glyph name="R" format="2">
  <advance width="1516"/>
  <unicode hex="0052"/>
  <anchor x="641" y="1476" name="center"/>
  <outline>
    <contour>
      <point x="1485" y="902" type="curve" smooth="yes"/>
      <point x="1485" y="1204"/>
      <point x="1152" y="1400"/>
      <point x="707" y="1400" type="curve" smooth="yes"/>
      <point x="103" y="1400" type="line" smooth="yes"/>
      <point x="49" y="1400"/>
      <point x="19" y="1372"/>
      <point x="19" y="1326" type="curve" smooth="yes"/>
      <point x="19" y="1286"/>
      <point x="41" y="1260"/>
      <point x="97" y="1248" type="curve" smooth="yes"/>
      <point x="148" y="1236" type="line" smooth="yes"/>
      <point x="198" y="1224"/>
      <point x="225" y="1192"/>
      <point x="225" y="1146" type="curve" smooth="yes"/>
      <point x="225" y="250" type="line" smooth="yes"/>
      <point x="225" y="206"/>
      <point x="198" y="174"/>
      <point x="148" y="162" type="curve" smooth="yes"/>
      <point x="97" y="150" type="line" smooth="yes"/>
      <point x="41" y="140"/>
      <point x="23" y="112"/>
      <point x="23" y="72" type="curve" smooth="yes"/>
      <point x="23" y="28"/>
      <point x="49" y="0"/>
      <point x="103" y="0" type="curve" smooth="yes"/>
      <point x="789" y="0" type="line" smooth="yes"/>
      <point x="840" y="0"/>
      <point x="867" y="28"/>
      <point x="867" y="72" type="curve" smooth="yes"/>
      <point x="867" y="110"/>
      <point x="845" y="134"/>
      <point x="797" y="146" type="curve" smooth="yes"/>
      <point x="742" y="162" type="line" smooth="yes"/>
      <point x="707" y="172"/>
      <point x="686" y="200"/>
      <point x="686" y="250" type="curve" smooth="yes"/>
      <point x="686" y="1252" type="line"/>
      <point x="694" y="1252" type="line" smooth="yes"/>
      <point x="869" y="1252"/>
      <point x="993" y="1116"/>
      <point x="993" y="916" type="curve" smooth="yes"/>
      <point x="993" y="748"/>
      <point x="896" y="630"/>
      <point x="764" y="630" type="curve" smooth="yes"/>
      <point x="682" y="630"/>
      <point x="637" y="648"/>
      <point x="577" y="690" type="curve"/>
      <point x="556" y="556" type="line"/>
      <point x="647" y="506"/>
      <point x="723" y="484"/>
      <point x="902" y="484" type="curve" smooth="yes"/>
      <point x="1250" y="484"/>
      <point x="1485" y="650"/>
    </contour>
    <contour>
      <point x="723" y="544" type="line"/>
      <point x="894" y="248" type="line" smooth="yes"/>
      <point x="908" y="226"/>
      <point x="921" y="208"/>
      <point x="921" y="186" type="curve" smooth="yes"/>
      <point x="921" y="170"/>
      <point x="919" y="156"/>
      <point x="896" y="146" type="curve" smooth="yes"/>
      <point x="849" y="132"/>
      <point x="826" y="108"/>
      <point x="826" y="66" type="curve" smooth="yes"/>
      <point x="826" y="28"/>
      <point x="865" y="0"/>
      <point x="931" y="0" type="curve" smooth="yes"/>
      <point x="1448" y="0" type="line" smooth="yes"/>
      <point x="1502" y="0"/>
      <point x="1531" y="28"/>
      <point x="1531" y="72" type="curve" smooth="yes"/>
      <point x="1531" y="108"/>
      <point x="1502" y="130"/>
      <point x="1469" y="146" type="curve" smooth="yes"/>
      <point x="1430" y="176"/>
      <point x="1384" y="192"/>
      <point x="1360" y="236" type="curve" smooth="yes"/>
      <point x="1201" y="566" type="line"/>
    </contour>
  </outline>
</glyph>
<glyph name="S" format="2">
  <advance width="1271"/>
  <unicode hex="0053"/>
  <outline>
    <contour>
      <point x="606" y="-30" type="curve" smooth="yes"/>
      <point x="995" y="-30"/>
      <point x="1230" y="154"/>
      <point x="1230" y="388" type="curve" smooth="yes"/>
      <point x="1230" y="578"/>
      <point x="1117" y="732"/>
      <point x="698" y="838" type="curve" smooth="yes"/>
      <point x="575" y="898"/>
      <point x="501" y="978"/>
      <point x="501" y="1098" type="curve" smooth="yes"/>
      <point x="501" y="1202"/>
      <point x="556" y="1280"/>
      <point x="626" y="1280" type="curve" smooth="yes"/>
      <point x="746" y="1280"/>
      <point x="884" y="1214"/>
      <point x="970" y="1026" type="curve" smooth="yes"/>
      <point x="1019" y="961"/>
      <point x="1085" y="932"/>
      <point x="1154" y="932" type="curve" smooth="yes"/>
      <point x="1221" y="932"/>
      <point x="1257" y="962"/>
      <point x="1257" y="1004" type="curve" smooth="yes"/>
      <point x="1257" y="1048"/>
      <point x="1244" y="1080"/>
      <point x="1230" y="1114" type="curve" smooth="yes"/>
      <point x="1170" y="1350" type="line" smooth="yes"/>
      <point x="1149" y="1400"/>
      <point x="1088" y="1446"/>
      <point x="1007" y="1446" type="curve" smooth="yes"/>
      <point x="923" y="1446"/>
      <point x="911" y="1396"/>
      <point x="853" y="1396" type="curve" smooth="yes"/>
      <point x="814" y="1396"/>
      <point x="753" y="1428"/>
      <point x="665" y="1428" type="curve" smooth="yes"/>
      <point x="263" y="1428"/>
      <point x="43" y="1239"/>
      <point x="43" y="992" type="curve" smooth="yes"/>
      <point x="43" y="780"/>
      <point x="152" y="624"/>
      <point x="620" y="524" type="curve" smooth="yes"/>
      <point x="709" y="474"/>
      <point x="789" y="418"/>
      <point x="789" y="302" type="curve" smooth="yes"/>
      <point x="789" y="192"/>
      <point x="723" y="124"/>
      <point x="620" y="124" type="curve" smooth="yes"/>
      <point x="523" y="124"/>
      <point x="470" y="166"/>
      <point x="391" y="322" type="curve" smooth="yes"/>
      <point x="284" y="432"/>
      <point x="253" y="458"/>
      <point x="185" y="458" type="curve" smooth="yes"/>
      <point x="99" y="458"/>
      <point x="41" y="412"/>
      <point x="62" y="326" type="curve" smooth="yes"/>
      <point x="103" y="56" type="line" smooth="yes"/>
      <point x="124" y="-16"/>
      <point x="182" y="-50"/>
      <point x="272" y="-50" type="curve" smooth="yes"/>
      <point x="341" y="-50"/>
      <point x="364" y="-2"/>
      <point x="408" y="-2" type="curve" smooth="yes"/>
      <point x="447" y="-2"/>
      <point x="505" y="-30"/>
    </contour>
  </outline>
</glyph>
<glyph name="U" format="2">
  <advance width="1533"/>
  <unicode hex="0055"/>
  <anchor x="735" y="1460" name="center"/>
  <anchor x="569" y="-120" name="right"/>
  <outline>
    <contour>
      <point x="1135" y="606" type="line" smooth="yes"/>
      <point x="1141" y="556"/>
      <point x="1143" y="508"/>
      <point x="1143" y="420" type="curve" smooth="yes"/>
      <point x="1143" y="256"/>
      <point x="1040" y="158"/>
      <point x="861" y="158" type="curve" smooth="yes"/>
      <point x="709" y="158"/>
      <point x="616" y="272"/>
      <point x="616" y="466" type="curve" smooth="yes"/>
      <point x="616" y="510"/>
      <point x="620" y="574"/>
      <point x="624" y="648" type="curve" smooth="yes"/>
      <point x="653" y="1142" type="line" smooth="yes"/>
      <point x="657" y="1202"/>
      <point x="698" y="1246"/>
      <point x="775" y="1264" type="curve" smooth="yes"/>
      <point x="795" y="1276" type="line" smooth="yes"/>
      <point x="832" y="1286"/>
      <point x="853" y="1302"/>
      <point x="853" y="1342" type="curve" smooth="yes"/>
      <point x="853" y="1382"/>
      <point x="834" y="1400"/>
      <point x="791" y="1400" type="curve" smooth="yes"/>
      <point x="84" y="1400" type="line" smooth="yes"/>
      <point x="41" y="1400"/>
      <point x="23" y="1382"/>
      <point x="23" y="1342" type="curve" smooth="yes"/>
      <point x="23" y="1302"/>
      <point x="47" y="1294"/>
      <point x="80" y="1276" type="curve" smooth="yes"/>
      <point x="91" y="1264" type="line" smooth="yes"/>
      <point x="152" y="1238"/>
      <point x="196" y="1176"/>
      <point x="187" y="1100" type="curve" smooth="yes"/>
      <point x="163" y="658" type="line" smooth="yes"/>
      <point x="159" y="595"/>
      <point x="144" y="472"/>
      <point x="144" y="414" type="curve" smooth="yes"/>
      <point x="144" y="135"/>
      <point x="334" y="-30"/>
      <point x="670" y="-30" type="curve" smooth="yes"/>
      <point x="1164" y="-30"/>
      <point x="1393" y="164"/>
      <point x="1393" y="412" type="curve" smooth="yes"/>
      <point x="1393" y="480"/>
      <point x="1391" y="542"/>
      <point x="1382" y="608" type="curve" smooth="yes"/>
      <point x="1327" y="1110" type="line" smooth="yes"/>
      <point x="1316" y="1174"/>
      <point x="1364" y="1226"/>
      <point x="1436" y="1250" type="curve" smooth="yes"/>
      <point x="1471" y="1274" type="line" smooth="yes"/>
      <point x="1508" y="1290"/>
      <point x="1520" y="1308"/>
      <point x="1520" y="1344" type="curve" smooth="yes"/>
      <point x="1520" y="1376"/>
      <point x="1500" y="1400"/>
      <point x="1473" y="1400" type="curve" smooth="yes"/>
      <point x="948" y="1400" type="line" smooth="yes"/>
      <point x="911" y="1400"/>
      <point x="888" y="1384"/>
      <point x="888" y="1342" type="curve" smooth="yes"/>
      <point x="888" y="1314"/>
      <point x="911" y="1288"/>
      <point x="952" y="1272" type="curve" smooth="yes"/>
      <point x="985" y="1250" type="line" smooth="yes"/>
      <point x="1061" y="1222"/>
      <point x="1096" y="1202"/>
      <point x="1106" y="1110" type="curve" smooth="yes"/>
    </contour>
  </outline>
</glyph>
<glyph name="V" format="2">
  <advance width="1687"/>
  <unicode hex="0056"/>
  <outline>
    <contour>
      <point x="1108" y="1326" type="curve" smooth="yes"/>
      <point x="1108" y="1284"/>
      <point x="1143" y="1252"/>
      <point x="1207" y="1222" type="curve" smooth="yes"/>
      <point x="1141" y="1214" type="line" smooth="yes"/>
      <point x="1244" y="1178"/>
      <point x="1263" y="1080"/>
      <point x="1158" y="936" type="curve" smooth="yes"/>
      <point x="859" y="122" type="line"/>
      <point x="1055" y="216" type="line"/>
      <point x="758" y="1040" type="line" smooth="yes"/>
      <point x="717" y="1116"/>
      <point x="715" y="1188"/>
      <point x="766" y="1218" type="curve" smooth="yes"/>
      <point x="760" y="1230" type="line" smooth="yes"/>
      <point x="808" y="1252"/>
      <point x="849" y="1278"/>
      <point x="849" y="1326" type="curve" smooth="yes"/>
      <point x="849" y="1372"/>
      <point x="814" y="1400"/>
      <point x="758" y="1400" type="curve" smooth="yes"/>
      <point x="126" y="1400" type="line" smooth="yes"/>
      <point x="62" y="1400"/>
      <point x="21" y="1376"/>
      <point x="21" y="1330" type="curve" smooth="yes"/>
      <point x="21" y="1290"/>
      <point x="43" y="1260"/>
      <point x="93" y="1232" type="curve" smooth="yes"/>
      <point x="117" y="1216"/>
      <point x="146" y="1182"/>
      <point x="190" y="1100" type="curve" smooth="yes"/>
      <point x="540" y="246" type="line" smooth="yes"/>
      <point x="589" y="174"/>
      <point x="593" y="150"/>
      <point x="593" y="118" type="curve" smooth="yes"/>
      <point x="593" y="96" type="line" smooth="yes"/>
      <point x="593" y="32"/>
      <point x="639" y="0"/>
      <point x="702" y="0" type="curve" smooth="yes"/>
      <point x="974" y="0" type="line" smooth="yes"/>
      <point x="1042" y="0"/>
      <point x="1088" y="36"/>
      <point x="1088" y="92" type="curve" smooth="yes"/>
      <point x="1088" y="112" type="line" smooth="yes"/>
      <point x="1088" y="156"/>
      <point x="1094" y="192"/>
      <point x="1129" y="246" type="curve" smooth="yes"/>
      <point x="1469" y="1044" type="line" smooth="yes"/>
      <point x="1512" y="1138"/>
      <point x="1551" y="1178"/>
      <point x="1594" y="1204" type="curve" smooth="yes"/>
      <point x="1648" y="1236"/>
      <point x="1669" y="1274"/>
      <point x="1669" y="1310" type="curve" smooth="yes"/>
      <point x="1669" y="1370"/>
      <point x="1607" y="1400"/>
      <point x="1518" y="1400" type="curve" smooth="yes"/>
      <point x="1209" y="1400" type="line" smooth="yes"/>
      <point x="1141" y="1400"/>
      <point x="1108" y="1370"/>
    </contour>
  </outline>
</glyph>
<glyph name="W" format="2">
  <advance width="2212"/>
  <unicode hex="0057"/>
  <outline>
    <contour>
      <point x="1139" y="1078" type="line"/>
      <point x="764" y="172" type="line"/>
      <point x="952" y="190" type="line"/>
      <point x="624" y="1096" type="line" smooth="yes"/>
      <point x="585" y="1182"/>
      <point x="616" y="1226"/>
      <point x="667" y="1238" type="curve" smooth="yes"/>
      <point x="655" y="1242" type="line" smooth="yes"/>
      <point x="725" y="1256"/>
      <point x="756" y="1280"/>
      <point x="756" y="1326" type="curve" smooth="yes"/>
      <point x="756" y="1372"/>
      <point x="719" y="1400"/>
      <point x="665" y="1400" type="curve" smooth="yes"/>
      <point x="130" y="1400" type="line" smooth="yes"/>
      <point x="60" y="1400"/>
      <point x="21" y="1370"/>
      <point x="21" y="1320" type="curve" smooth="yes"/>
      <point x="21" y="1286"/>
      <point x="43" y="1250"/>
      <point x="89" y="1226" type="curve" smooth="yes"/>
      <point x="117" y="1212"/>
      <point x="113" y="1184"/>
      <point x="152" y="1104" type="curve" smooth="yes"/>
      <point x="426" y="326" type="line" smooth="yes"/>
      <point x="489" y="226"/>
      <point x="499" y="188"/>
      <point x="499" y="140" type="curve" smooth="yes"/>
      <point x="499" y="104" type="line" smooth="yes"/>
      <point x="499" y="38"/>
      <point x="552" y="0"/>
      <point x="612" y="0" type="curve" smooth="yes"/>
      <point x="843" y="0" type="line" smooth="yes"/>
      <point x="913" y="0"/>
      <point x="956" y="40"/>
      <point x="956" y="94" type="curve" smooth="yes"/>
      <point x="956" y="132" type="line" smooth="yes"/>
      <point x="956" y="178"/>
      <point x="985" y="230"/>
      <point x="1034" y="314" type="curve" smooth="yes"/>
      <point x="1298" y="966" type="line"/>
    </contour>
    <contour>
      <point x="1683" y="1320" type="curve" smooth="yes"/>
      <point x="1683" y="1278"/>
      <point x="1716" y="1254"/>
      <point x="1794" y="1224" type="curve" smooth="yes"/>
      <point x="1772" y="1202" type="line" smooth="yes"/>
      <point x="1862" y="1166"/>
      <point x="1864" y="1104"/>
      <point x="1833" y="1034" type="curve" smooth="yes"/>
      <point x="1518" y="122" type="line"/>
      <point x="1751" y="158" type="line"/>
      <point x="1438" y="1076" type="line" smooth="yes"/>
      <point x="1395" y="1166"/>
      <point x="1411" y="1230"/>
      <point x="1467" y="1240" type="curve" smooth="yes"/>
      <point x="1458" y="1244" type="line" smooth="yes"/>
      <point x="1504" y="1254"/>
      <point x="1529" y="1278"/>
      <point x="1529" y="1326" type="curve" smooth="yes"/>
      <point x="1529" y="1372"/>
      <point x="1494" y="1400"/>
      <point x="1440" y="1400" type="curve" smooth="yes"/>
      <point x="888" y="1400" type="line" smooth="yes"/>
      <point x="826" y="1400"/>
      <point x="787" y="1376"/>
      <point x="787" y="1330" type="curve" smooth="yes"/>
      <point x="787" y="1294"/>
      <point x="810" y="1264"/>
      <point x="853" y="1240" type="curve" smooth="yes"/>
      <point x="902" y="1216"/>
      <point x="925" y="1180"/>
      <point x="948" y="1112" type="curve" smooth="yes"/>
      <point x="1234" y="290" type="line" smooth="yes"/>
      <point x="1279" y="208"/>
      <point x="1290" y="170"/>
      <point x="1290" y="118" type="curve" smooth="yes"/>
      <point x="1290" y="94" type="line" smooth="yes"/>
      <point x="1290" y="44"/>
      <point x="1337" y="0"/>
      <point x="1401" y="0" type="curve" smooth="yes"/>
      <point x="1636" y="0" type="line" smooth="yes"/>
      <point x="1704" y="0"/>
      <point x="1747" y="44"/>
      <point x="1747" y="92" type="curve" smooth="yes"/>
      <point x="1747" y="112" type="line" smooth="yes"/>
      <point x="1747" y="158"/>
      <point x="1770" y="222"/>
      <point x="1800" y="284" type="curve" smooth="yes"/>
      <point x="2068" y="1072" type="line" smooth="yes"/>
      <point x="2099" y="1170"/>
      <point x="2097" y="1192"/>
      <point x="2120" y="1218" type="curve" smooth="yes"/>
      <point x="2159" y="1244"/>
      <point x="2194" y="1274"/>
      <point x="2194" y="1330" type="curve" smooth="yes"/>
      <point x="2194" y="1376"/>
      <point x="2134" y="1400"/>
      <point x="2064" y="1400" type="curve" smooth="yes"/>
      <point x="1798" y="1400" type="line" smooth="yes"/>
      <point x="1726" y="1400"/>
      <point x="1683" y="1368"/>
    </contour>
  </outline>
</glyph>
<glyph name="Z" format="2">
  <advance width="1458"/>
  <unicode hex="005A"/>
  <outline>
    <contour>
      <point x="1277" y="1216" type="line" smooth="yes"/>
      <point x="1318" y="1262"/>
      <point x="1339" y="1302"/>
      <point x="1339" y="1326" type="curve" smooth="yes"/>
      <point x="1339" y="1368"/>
      <point x="1312" y="1400"/>
      <point x="1248" y="1400" type="curve" smooth="yes"/>
      <point x="503" y="1400" type="line" smooth="yes"/>
      <point x="424" y="1400"/>
      <point x="356" y="1446"/>
      <point x="282" y="1446" type="curve" smooth="yes"/>
      <point x="208" y="1446"/>
      <point x="163" y="1408"/>
      <point x="142" y="1332" type="curve" smooth="yes"/>
      <point x="97" y="1102" type="line" smooth="yes"/>
      <point x="89" y="1072"/>
      <point x="89" y="1048"/>
      <point x="89" y="1020" type="curve" smooth="yes"/>
      <point x="89" y="974"/>
      <point x="117" y="946"/>
      <point x="171" y="946" type="curve" smooth="yes"/>
      <point x="243" y="946"/>
      <point x="301" y="974"/>
      <point x="334" y="1038" type="curve" smooth="yes"/>
      <point x="338" y="1106" type="line" smooth="yes"/>
      <point x="385" y="1202"/>
      <point x="525" y="1258"/>
      <point x="639" y="1258" type="curve" smooth="yes"/>
      <point x="935" y="1258" type="line"/>
      <point x="913" y="1332" type="line"/>
      <point x="183" y="188" type="line" smooth="yes"/>
      <point x="122" y="124"/>
      <point x="128" y="110"/>
      <point x="128" y="94" type="curve" smooth="yes"/>
      <point x="128" y="44"/>
      <point x="167" y="0"/>
      <point x="266" y="0" type="curve" smooth="yes"/>
      <point x="968" y="0" type="line" smooth="yes"/>
      <point x="1077" y="0"/>
      <point x="1131" y="-50"/>
      <point x="1178" y="-50" type="curve" smooth="yes"/>
      <point x="1285" y="-50"/>
      <point x="1341" y="-20"/>
      <point x="1362" y="68" type="curve" smooth="yes"/>
      <point x="1393" y="292" type="line" smooth="yes"/>
      <point x="1409" y="352"/>
      <point x="1413" y="384"/>
      <point x="1413" y="420" type="curve" smooth="yes"/>
      <point x="1413" y="464"/>
      <point x="1370" y="490"/>
      <point x="1325" y="490" type="curve" smooth="yes"/>
      <point x="1277" y="490"/>
      <point x="1244" y="468"/>
      <point x="1209" y="412" type="curve" smooth="yes"/>
      <point x="1197" y="326" type="line" smooth="yes"/>
      <point x="1094" y="182"/>
      <point x="970" y="142"/>
      <point x="803" y="142" type="curve" smooth="yes"/>
      <point x="274" y="142" type="line"/>
      <point x="548" y="66" type="line"/>
    </contour>
  </outline>
</glyph>
<glyph name="bracketleft" format="2">
  <advance width="902"/>
  <unicode hex="005B"/>
  <outline>
    <contour>
      <point x="571" y="1278" type="line" smooth="yes"/>
      <point x="571" y="1338"/>
      <point x="639" y="1386"/>
      <point x="721" y="1386" type="curve" smooth="yes"/>
      <point x="762" y="1386" type="line" smooth="yes"/>
      <point x="855" y="1386"/>
      <point x="892" y="1404"/>
      <point x="892" y="1446" type="curve" smooth="yes"/>
      <point x="892" y="1480"/>
      <point x="855" y="1512"/>
      <point x="766" y="1512" type="curve" smooth="yes"/>
      <point x="330" y="1512" type="line" smooth="yes"/>
      <point x="237" y="1512"/>
      <point x="165" y="1450"/>
      <point x="165" y="1374" type="curve" smooth="yes"/>
      <point x="165" y="-216" type="line" smooth="yes"/>
      <point x="165" y="-292"/>
      <point x="237" y="-354"/>
      <point x="330" y="-354" type="curve" smooth="yes"/>
      <point x="766" y="-354" type="line" smooth="yes"/>
      <point x="855" y="-354"/>
      <point x="892" y="-320"/>
      <point x="892" y="-288" type="curve" smooth="yes"/>
      <point x="892" y="-246"/>
      <point x="855" y="-228"/>
      <point x="762" y="-228" type="curve" smooth="yes"/>
      <point x="721" y="-228" type="line" smooth="yes"/>
      <point x="639" y="-228"/>
      <point x="571" y="-180"/>
      <point x="571" y="-120" type="curve" smooth="yes"/>
    </contour>
  </outline>
</glyph>
<glyph name="grave" format="2">
  <advance width="608"/>
  <unicode hex="0060"/>
  <anchor x="482" y="972" name="center"/>
  <outline>
    <contour>
      <point x="526" y="1170" type="curve" smooth="yes"/>
      <point x="386" y="1291" type="line" smooth="yes"/>
      <point x="252" y="1373"/>
      <point x="127" y="1414"/>
      <point x="31" y="1414" type="curve" smooth="yes"/>
      <point x="-82" y="1414"/>
      <point x="-126" y="1382"/>
      <point x="-126" y="1321" type="curve" smooth="yes"/>
      <point x="-126" y="1265"/>
      <point x="-46" y="1214"/>
      <point x="90" y="1172" type="curve" smooth="yes"/>
      <point x="311" y="1081" type="line" smooth="yes"/>
      <point x="396" y="1054"/>
      <point x="460" y="1038"/>
      <point x="508" y="1038" type="curve" smooth="yes"/>
      <point x="560" y="1038"/>
      <point x="589" y="1059"/>
      <point x="589" y="1091" type="curve" smooth="yes"/>
      <point x="589" y="1118"/>
      <point x="562" y="1147"/>
    </contour>
  </outline>
</glyph>
<glyph name="e" format="2">
  <advance width="1085"/>
  <unicode hex="0065"/>
  <anchor x="506" y="1075" name="center"/>
  <outline>
    <contour>
      <point x="1071" y="618" type="curve" smooth="yes"/>
      <point x="1071" y="840"/>
      <point x="886" y="998"/>
      <point x="615" y="998" type="curve" smooth="yes"/>
      <point x="248" y="998"/>
      <point x="21" y="781"/>
      <point x="21" y="455" type="curve" smooth="yes"/>
      <point x="21" y="173"/>
      <point x="255" y="-31"/>
      <point x="567" y="-31" type="curve" smooth="yes"/>
      <point x="867" y="-31"/>
      <point x="1067" y="133"/>
      <point x="1067" y="271" type="curve" smooth="yes"/>
      <point x="1067" y="318"/>
      <point x="1037" y="341"/>
      <point x="998" y="341" type="curve" smooth="yes"/>
      <point x="965" y="341"/>
      <point x="927" y="326"/>
      <point x="856" y="288" type="curve" smooth="yes"/>
      <point x="768" y="231"/>
      <point x="758" y="208"/>
      <point x="697" y="208" type="curve" smooth="yes"/>
      <point x="550" y="208"/>
      <point x="400" y="347"/>
      <point x="400" y="543" type="curve" smooth="yes"/>
      <point x="400" y="734"/>
      <point x="471" y="840"/>
      <point x="535" y="840" type="curve" smooth="yes"/>
      <point x="591" y="840"/>
      <point x="641" y="763"/>
      <point x="641" y="655" type="curve" smooth="yes"/>
      <point x="641" y="606"/>
      <point x="612" y="577"/>
      <point x="562" y="577" type="curve" smooth="yes"/>
      <point x="288" y="577" type="line"/>
      <point x="288" y="469" type="line"/>
      <point x="887" y="469" type="line" smooth="yes"/>
      <point x="1006" y="469"/>
      <point x="1071" y="526"/>
    </contour>
  </outline>
</glyph>
<glyph name="f" format="2">
  <advance width="858"/>
  <unicode hex="0066"/>
  <outline>
    <contour>
      <point x="599" y="267" type="curve" smooth="yes"/>
      <point x="599" y="810" type="line"/>
      <point x="664" y="810" type="line" smooth="yes"/>
      <point x="785" y="810"/>
      <point x="860" y="849"/>
      <point x="860" y="910" type="curve" smooth="yes"/>
      <point x="860" y="951"/>
      <point x="820" y="969"/>
      <point x="757" y="969" type="curve" smooth="yes"/>
      <point x="530" y="969" type="line"/>
      <point x="602" y="930" type="line" smooth="yes"/>
      <point x="602" y="993"/>
      <point x="569" y="1018"/>
      <point x="534" y="1053" type="curve" smooth="yes"/>
      <point x="420" y="1120"/>
      <point x="381" y="1177"/>
      <point x="381" y="1228" type="curve" smooth="yes"/>
      <point x="381" y="1291"/>
      <point x="412" y="1334"/>
      <point x="475" y="1334" type="curve" smooth="yes"/>
      <point x="518" y="1334"/>
      <point x="548" y="1310"/>
      <point x="548" y="1265" type="curve" smooth="yes"/>
      <point x="548" y="1228" type="line" smooth="yes"/>
      <point x="548" y="1153"/>
      <point x="626" y="1100"/>
      <point x="731" y="1100" type="curve" smooth="yes"/>
      <point x="815" y="1100"/>
      <point x="899" y="1142"/>
      <point x="899" y="1242" type="curve" smooth="yes"/>
      <point x="899" y="1370"/>
      <point x="788" y="1459"/>
      <point x="530" y="1459" type="curve" smooth="yes"/>
      <point x="273" y="1459"/>
      <point x="87" y="1334"/>
      <point x="87" y="1167" type="curve" smooth="yes"/>
      <point x="87" y="1053"/>
      <point x="183" y="1000"/>
      <point x="183" y="922" type="curve" smooth="yes"/>
      <point x="183" y="894" type="line"/>
      <point x="297" y="969" type="line"/>
      <point x="89" y="969" type="line" smooth="yes"/>
      <point x="36" y="969"/>
      <point x="2" y="947"/>
      <point x="2" y="910" type="curve" smooth="yes"/>
      <point x="2" y="875"/>
      <point x="38" y="849"/>
      <point x="95" y="834" type="curve" smooth="yes"/>
      <point x="92" y="824" type="line" smooth="yes"/>
      <point x="159" y="806"/>
      <point x="183" y="771"/>
      <point x="183" y="708" type="curve" smooth="yes"/>
      <point x="183" y="231" type="line" smooth="yes"/>
      <point x="183" y="177"/>
      <point x="157" y="151"/>
      <point x="124" y="143" type="curve" smooth="yes"/>
      <point x="84" y="133" type="line" smooth="yes"/>
      <point x="49" y="122"/>
      <point x="33" y="100"/>
      <point x="33" y="63" type="curve" smooth="yes"/>
      <point x="33" y="20"/>
      <point x="54" y="0"/>
      <point x="87" y="0" type="curve" smooth="yes"/>
      <point x="739" y="0" type="line" smooth="yes"/>
      <point x="803" y="0"/>
      <point x="827" y="20"/>
      <point x="827" y="63" type="curve" smooth="yes"/>
      <point x="827" y="106"/>
      <point x="778" y="124"/>
      <point x="710" y="139" type="curve" smooth="yes"/>
      <point x="667" y="151" type="line" smooth="yes"/>
      <point x="620" y="165"/>
      <point x="599" y="208"/>
    </contour>
  </outline>
</glyph>
<glyph name="g" format="2">
  <advance width="1166"/>
  <unicode hex="0067"/>
  <outline>
    <contour>
      <point x="688.04" y="110.16" type="curve" smooth="yes"/>
      <point x="1041.33" y="95.88"/>
      <point x="1205.1000000000001" y="-5.1"/>
      <point x="1205.1000000000001" y="-159.12" type="curve" smooth="yes"/>
      <point x="1205.1000000000001" y="-358.02"/>
      <point x="956.87" y="-499.8"/>
      <point x="518.09" y="-499.8" type="curve" smooth="yes"/>
      <point x="148.32" y="-499.8"/>
      <point x="0.0" y="-394.74"/>
      <point x="0.0" y="-240.72" type="curve" smooth="yes"/>
      <point x="0.0" y="-113.22"/>
      <point x="110.21000000000001" y="-24.48"/>
      <point x="298.7" y="-20.4" type="curve"/>
      <point x="306.94" y="-57.120000000000005" type="line"/>
      <point x="341.96000000000004" y="-61.2"/>
      <point x="354.32" y="-120.36"/>
      <point x="354.32" y="-169.32" type="curve" smooth="yes"/>
      <point x="354.32" y="-283.56"/>
      <point x="452.17" y="-359.04"/>
      <point x="619.03" y="-359.04" type="curve" smooth="yes"/>
      <point x="796.19" y="-359.04"/>
      <point x="834.3000000000001" y="-309.06"/>
      <point x="834.3000000000001" y="-238.68" type="curve" smooth="yes"/>
      <point x="834.3000000000001" y="-183.6"/>
      <point x="756.02" y="-140.76"/>
      <point x="518.09" y="-124.44" type="curve" smooth="yes"/>
      <point x="298.7" y="-108.12"/>
      <point x="203.94" y="-32.64"/>
      <point x="203.94" y="79.56" type="curve" smooth="yes"/>
      <point x="203.94" y="199.92000000000002"/>
      <point x="309.0" y="265.2"/>
      <point x="526.33" y="285.6" type="curve"/>
      <point x="581.95" y="267.24" type="line"/>
      <point x="559.29" y="248.88"/>
      <point x="550.02" y="226.44"/>
      <point x="550.02" y="204.0" type="curve" smooth="yes"/>
      <point x="550.02" y="159.12"/>
      <point x="592.25" y="118.32000000000001"/>
    </contour>
    <contour>
      <point x="1140.21" y="628.32" type="curve" smooth="yes"/>
      <point x="1140.21" y="408.0"/>
      <point x="911.5500000000001" y="236.64000000000001"/>
      <point x="605.64" y="236.64000000000001" type="curve" smooth="yes"/>
      <point x="255.44" y="236.64000000000001"/>
      <point x="41.2" y="403.92"/>
      <point x="41.2" y="597.72" type="curve" smooth="yes"/>
      <point x="41.2" y="826.2"/>
      <point x="259.56" y="999.6"/>
      <point x="611.82" y="999.6" type="curve" smooth="yes"/>
      <point x="954.8100000000001" y="999.6"/>
      <point x="1140.21" y="820.08"/>
    </contour>
    <contour>
      <point x="621.09" y="909.84" type="line" smooth="yes"/>
      <point x="653.02" y="975.12" type="line" smooth="yes"/>
      <point x="740.57" y="1142.4"/>
      <point x="862.11" y="1232.16"/>
      <point x="1009.4" y="1232.16" type="curve" smooth="yes"/>
      <point x="1149.48" y="1232.16"/>
      <point x="1226.73" y="1173.0"/>
      <point x="1226.73" y="1068.96" type="curve" smooth="yes"/>
      <point x="1226.73" y="981.24"/>
      <point x="1161.84" y="936.36"/>
      <point x="1060.9" y="936.36" type="curve" smooth="yes"/>
      <point x="1027.94" y="936.36"/>
      <point x="1005.28" y="946.5600000000001"/>
      <point x="977.47" y="958.8000000000001" type="curve" smooth="yes"/>
      <point x="951.72" y="975.12"/>
      <point x="940.39" y="981.24"/>
      <point x="914.64" y="981.24" type="curve" smooth="yes"/>
      <point x="856.96" y="981.24"/>
      <point x="822.97" y="954.72"/>
      <point x="777.65" y="881.28" type="curve"/>
    </contour>
    <contour>
      <point x="558.26" y="852.72" type="curve" smooth="yes"/>
      <point x="488.22" y="852.72"/>
      <point x="442.90000000000003" y="781.32"/>
      <point x="442.90000000000003" y="677.28" type="curve" smooth="yes"/>
      <point x="442.90000000000003" y="503.88"/>
      <point x="521.1800000000001" y="381.48"/>
      <point x="599.46" y="381.48" type="curve" smooth="yes"/>
      <point x="687.01" y="381.48"/>
      <point x="718.94" y="440.64"/>
      <point x="718.94" y="556.92" type="curve" smooth="yes"/>
      <point x="718.94" y="730.32"/>
      <point x="648.9" y="852.72"/>
    </contour>
  </outline>
</glyph>
<glyph name="l" format="2">
  <advance width="727"/>
  <unicode hex="006C"/>
  <outline>
    <contour>
      <point x="595" y="1412" type="curve" smooth="yes"/>
      <point x="595" y="226" type="line" smooth="yes"/>
      <point x="595" y="182"/>
      <point x="595" y="155"/>
      <point x="611" y="145" type="curve" smooth="yes"/>
      <point x="649" y="133" type="line" smooth="yes"/>
      <point x="696" y="116"/>
      <point x="723" y="102"/>
      <point x="723" y="63" type="curve" smooth="yes"/>
      <point x="723" y="20"/>
      <point x="685" y="0"/>
      <point x="643" y="0" type="curve" smooth="yes"/>
      <point x="125" y="0" type="line" smooth="yes"/>
      <point x="71" y="0"/>
      <point x="46" y="24"/>
      <point x="46" y="65" type="curve" smooth="yes"/>
      <point x="46" y="102"/>
      <point x="67" y="116"/>
      <point x="113" y="131" type="curve" smooth="yes"/>
      <point x="115" y="139" type="line" smooth="yes"/>
      <point x="134" y="153"/>
      <point x="179" y="165"/>
      <point x="179" y="226" type="curve" smooth="yes"/>
      <point x="179" y="1163" type="line" smooth="yes"/>
      <point x="179" y="1214"/>
      <point x="144" y="1236"/>
      <point x="134" y="1236" type="curve" smooth="yes"/>
      <point x="149" y="1236" type="line" smooth="yes"/>
      <point x="85" y="1236"/>
      <point x="47" y="1255"/>
      <point x="47" y="1293" type="curve" smooth="yes"/>
      <point x="47" y="1320"/>
      <point x="62" y="1348"/>
      <point x="125" y="1367" type="curve" smooth="yes"/>
      <point x="374" y="1446" type="line" smooth="yes"/>
      <point x="444" y="1467"/>
      <point x="480" y="1479"/>
      <point x="526" y="1479" type="curve" smooth="yes"/>
      <point x="569" y="1479"/>
      <point x="595" y="1452"/>
    </contour>
  </outline>
</glyph>
<glyph name="o" format="2">
  <advance width="1208"/>
  <unicode hex="006F"/>
  <outline>
    <contour>
      <point x="612" y="998" type="curve" smooth="yes"/>
      <point x="278" y="998"/>
      <point x="18" y="761"/>
      <point x="18" y="494" type="curve" smooth="yes"/>
      <point x="18" y="182"/>
      <point x="245" y="-31"/>
      <point x="594" y="-31" type="curve" smooth="yes"/>
      <point x="927" y="-31"/>
      <point x="1189" y="188"/>
      <point x="1189" y="494" type="curve" smooth="yes"/>
      <point x="1189" y="789"/>
      <point x="961" y="998"/>
    </contour>
    <contour>
      <point x="745" y="377" type="curve" smooth="yes"/>
      <point x="745" y="214"/>
      <point x="723" y="143"/>
      <point x="656" y="143" type="curve" smooth="yes"/>
      <point x="575" y="143"/>
      <point x="472" y="328"/>
      <point x="472" y="590" type="curve" smooth="yes"/>
      <point x="472" y="751"/>
      <point x="496" y="828"/>
      <point x="556" y="828" type="curve" smooth="yes"/>
      <point x="632" y="828"/>
      <point x="745" y="621"/>
    </contour>
  </outline>
</glyph>
<glyph name="s" format="2">
  <advance width="1040"/>
  <unicode hex="0073"/>
  <outline>
    <contour>
      <point x="531" y="112" type="curve" smooth="yes"/>
      <point x="442" y="112"/>
      <point x="357" y="151"/>
      <point x="303" y="255" type="curve" smooth="yes"/>
      <point x="246" y="318"/>
      <point x="202" y="341"/>
      <point x="162" y="341" type="curve" smooth="yes"/>
      <point x="98" y="341"/>
      <point x="70" y="306"/>
      <point x="70" y="253" type="curve" smooth="yes"/>
      <point x="70" y="235"/>
      <point x="72" y="200"/>
      <point x="82" y="161" type="curve" smooth="yes"/>
      <point x="81" y="49" type="line" smooth="yes"/>
      <point x="102" y="-10"/>
      <point x="158" y="-31"/>
      <point x="218" y="-31" type="curve" smooth="yes"/>
      <point x="247" y="-31"/>
      <point x="270" y="0"/>
      <point x="297" y="0" type="curve" smooth="yes"/>
      <point x="315" y="0"/>
      <point x="387" y="-31"/>
      <point x="567" y="-31" type="curve" smooth="yes"/>
      <point x="795" y="-31"/>
      <point x="998" y="106"/>
      <point x="998" y="284" type="curve" smooth="yes"/>
      <point x="998" y="432"/>
      <point x="925" y="571"/>
      <point x="643" y="612" type="curve" smooth="yes"/>
      <point x="468" y="643"/>
      <point x="421" y="692"/>
      <point x="421" y="771" type="curve" smooth="yes"/>
      <point x="421" y="820"/>
      <point x="456" y="861"/>
      <point x="509" y="861" type="curve" smooth="yes"/>
      <point x="617" y="861"/>
      <point x="663" y="812"/>
      <point x="750" y="667" type="curve" smooth="yes"/>
      <point x="773" y="628"/>
      <point x="832" y="600"/>
      <point x="876" y="600" type="curve" smooth="yes"/>
      <point x="947" y="600"/>
      <point x="979" y="636"/>
      <point x="979" y="671" type="curve" smooth="yes"/>
      <point x="979" y="706"/>
      <point x="967" y="747"/>
      <point x="927" y="806" type="curve" smooth="yes"/>
      <point x="917" y="918" type="line" smooth="yes"/>
      <point x="881" y="975"/>
      <point x="851" y="1000"/>
      <point x="803" y="1000" type="curve" smooth="yes"/>
      <point x="764" y="1000"/>
      <point x="749" y="963"/>
      <point x="712" y="963" type="curve" smooth="yes"/>
      <point x="671" y="963"/>
      <point x="602" y="998"/>
      <point x="489" y="998" type="curve" smooth="yes"/>
      <point x="155" y="998"/>
      <point x="26" y="845"/>
      <point x="26" y="675" type="curve" smooth="yes"/>
      <point x="26" y="512"/>
      <point x="139" y="398"/>
      <point x="422" y="347" type="curve" smooth="yes"/>
      <point x="540" y="314"/>
      <point x="588" y="265"/>
      <point x="588" y="200" type="curve" smooth="yes"/>
      <point x="588" y="151"/>
      <point x="568" y="112"/>
    </contour>
  </outline>
</glyph>
<glyph name="braceleft" format="2">
  <advance width="966"/>
  <unicode hex="007B"/>
  <outline>
    <contour>
      <point x="575" y="578" type="curve" smooth="yes"/>
      <point x="575" y="598"/>
      <point x="597" y="616"/>
      <point x="637" y="616" type="curve" smooth="yes"/>
      <point x="700" y="616"/>
      <point x="744" y="684"/>
      <point x="744" y="780" type="curve" smooth="yes"/>
      <point x="744" y="930"/>
      <point x="665" y="1060"/>
      <point x="665" y="1196" type="curve" smooth="yes"/>
      <point x="665" y="1298"/>
      <point x="737" y="1380"/>
      <point x="826" y="1380" type="curve" smooth="yes"/>
      <point x="805" y="1380" type="line" smooth="yes"/>
      <point x="884" y="1380"/>
      <point x="935" y="1404"/>
      <point x="935" y="1446" type="curve" smooth="yes"/>
      <point x="935" y="1482"/>
      <point x="896" y="1510"/>
      <point x="810" y="1510" type="curve" smooth="yes"/>
      <point x="620" y="1510" type="line" smooth="yes"/>
      <point x="391" y="1510"/>
      <point x="229" y="1384"/>
      <point x="229" y="1200" type="curve" smooth="yes"/>
      <point x="229" y="1024"/>
      <point x="433" y="910"/>
      <point x="433" y="768" type="curve" smooth="yes"/>
      <point x="433" y="708"/>
      <point x="373" y="674"/>
      <point x="321" y="672" type="curve" smooth="yes"/>
      <point x="237" y="672"/>
      <point x="258" y="712"/>
      <point x="171" y="712" type="curve" smooth="yes"/>
      <point x="99" y="712"/>
      <point x="39" y="650"/>
      <point x="39" y="580" type="curve" smooth="yes"/>
      <point x="39" y="504"/>
      <point x="91" y="448"/>
      <point x="167" y="448" type="curve" smooth="yes"/>
      <point x="268" y="448"/>
      <point x="270" y="488"/>
      <point x="330" y="488" type="curve" smooth="yes"/>
      <point x="381" y="486"/>
      <point x="433" y="444"/>
      <point x="433" y="382" type="curve" smooth="yes"/>
      <point x="433" y="248"/>
      <point x="229" y="130"/>
      <point x="229" y="-60" type="curve" smooth="yes"/>
      <point x="229" y="-240"/>
      <point x="391" y="-370"/>
      <point x="620" y="-370" type="curve" smooth="yes"/>
      <point x="810" y="-370" type="line" smooth="yes"/>
      <point x="896" y="-370"/>
      <point x="935" y="-334"/>
      <point x="935" y="-306" type="curve" smooth="yes"/>
      <point x="935" y="-258"/>
      <point x="884" y="-240"/>
      <point x="805" y="-240" type="curve" smooth="yes"/>
      <point x="826" y="-240" type="line" smooth="yes"/>
      <point x="737" y="-240"/>
      <point x="665" y="-156"/>
      <point x="665" y="-56" type="curve" smooth="yes"/>
      <point x="665" y="90"/>
      <point x="744" y="228"/>
      <point x="744" y="372" type="curve" smooth="yes"/>
      <point x="744" y="464"/>
      <point x="707" y="540"/>
      <point x="637" y="540" type="curve" smooth="yes"/>
      <point x="597" y="540"/>
      <point x="575" y="552"/>
    </contour>
  </outline>
</glyph>
<glyph name="currency" format="2">
  <advance width="1178"/>
  <unicode hex="00A4"/>
  <outline>
    <contour>
      <point x="587" y="275" type="curve" smooth="yes"/>
      <point x="353" y="275"/>
      <point x="167" y="452"/>
      <point x="167" y="659" type="curve" smooth="yes"/>
      <point x="167" y="867"/>
      <point x="353" y="1038"/>
      <point x="587" y="1038" type="curve" smooth="yes"/>
      <point x="825" y="1038"/>
      <point x="1009" y="867"/>
      <point x="1009" y="659" type="curve" smooth="yes"/>
      <point x="1009" y="452"/>
      <point x="825" y="275"/>
    </contour>
    <contour>
      <point x="589" y="457" type="curve" smooth="yes"/>
      <point x="687" y="457"/>
      <point x="771" y="545"/>
      <point x="771" y="659" type="curve" smooth="yes"/>
      <point x="771" y="772"/>
      <point x="687" y="859"/>
      <point x="589" y="859" type="curve" smooth="yes"/>
      <point x="485" y="859"/>
      <point x="409" y="772"/>
      <point x="409" y="659" type="curve" smooth="yes"/>
      <point x="409" y="545"/>
      <point x="485" y="457"/>
    </contour>
    <contour>
      <point x="815" y="891" type="line"/>
      <point x="895" y="976"/>
      <point x="935" y="1028"/>
      <point x="970" y="1054" type="curve" smooth="yes"/>
      <point x="1030" y="1109"/>
      <point x="1076" y="1103"/>
      <point x="1105" y="1077" type="curve" smooth="yes"/>
      <point x="1134" y="1050"/>
      <point x="1142" y="1010"/>
      <point x="1083" y="962" type="curve" smooth="yes"/>
      <point x="1049" y="931"/>
      <point x="985" y="899"/>
      <point x="889" y="832" type="curve"/>
    </contour>
    <contour>
      <point x="283" y="828" type="line"/>
      <point x="190" y="893"/>
      <point x="128" y="923"/>
      <point x="98" y="949" type="curve" smooth="yes"/>
      <point x="34" y="1000"/>
      <point x="44" y="1050"/>
      <point x="73" y="1077" type="curve" smooth="yes"/>
      <point x="102" y="1105"/>
      <point x="155" y="1109"/>
      <point x="218" y="1056" type="curve" smooth="yes"/>
      <point x="249" y="1028"/>
      <point x="283" y="978"/>
      <point x="362" y="897" type="curve"/>
    </contour>
    <contour>
      <point x="100" y="349" type="curve" smooth="yes"/>
      <point x="136" y="378"/>
      <point x="196" y="412"/>
      <point x="296" y="481" type="curve"/>
      <point x="364" y="424" type="line"/>
      <point x="281" y="339"/>
      <point x="241" y="287"/>
      <point x="206" y="257" type="curve" smooth="yes"/>
      <point x="157" y="206"/>
      <point x="102" y="212"/>
      <point x="73" y="236" type="curve" smooth="yes"/>
      <point x="44" y="261"/>
      <point x="36" y="301"/>
    </contour>
    <contour>
      <point x="1078" y="349" type="curve" smooth="yes"/>
      <point x="1142" y="305"/>
      <point x="1134" y="261"/>
      <point x="1105" y="236" type="curve" smooth="yes"/>
      <point x="1076" y="212"/>
      <point x="1018" y="208"/>
      <point x="972" y="259" type="curve" smooth="yes"/>
      <point x="939" y="285"/>
      <point x="901" y="337"/>
      <point x="823" y="416" type="curve"/>
      <point x="893" y="477" type="line"/>
      <point x="985" y="410"/>
      <point x="1044" y="374"/>
    </contour>
  </outline>
</glyph>
<glyph name="brokenbar" format="2">
  <advance width="690"/>
  <unicode hex="00A6"/>
  <outline>
    <contour>
      <point x="144" y="-330" type="curve" smooth="yes"/>
      <point x="144" y="-442"/>
      <point x="248" y="-490"/>
      <point x="356" y="-490" type="curve" smooth="yes"/>
      <point x="465" y="-490"/>
      <point x="569" y="-442"/>
      <point x="569" y="-330" type="curve" smooth="yes"/>
      <point x="569" y="-243"/>
      <point x="480" y="-147"/>
      <point x="480" y="318" type="curve" smooth="yes"/>
      <point x="480" y="386"/>
      <point x="443" y="414"/>
      <point x="356" y="414" type="curve" smooth="yes"/>
      <point x="270" y="414"/>
      <point x="233" y="386"/>
      <point x="233" y="318" type="curve" smooth="yes"/>
      <point x="233" y="-147"/>
      <point x="144" y="-243"/>
    </contour>
    <contour>
      <point x="144" y="1372" type="curve" smooth="yes"/>
      <point x="144" y="1287"/>
      <point x="233" y="1189"/>
      <point x="233" y="724" type="curve" smooth="yes"/>
      <point x="233" y="656"/>
      <point x="270" y="628"/>
      <point x="356" y="628" type="curve" smooth="yes"/>
      <point x="443" y="628"/>
      <point x="480" y="656"/>
      <point x="480" y="724" type="curve" smooth="yes"/>
      <point x="480" y="1189"/>
      <point x="569" y="1287"/>
      <point x="569" y="1372" type="curve" smooth="yes"/>
      <point x="569" y="1484"/>
      <point x="485" y="1532"/>
      <point x="356" y="1532" type="curve" smooth="yes"/>
      <point x="233" y="1532"/>
      <point x="144" y="1484"/>
    </contour>
  </outline>
</glyph>
<glyph name="ordfeminine" format="2">
  <advance width="1012"/>
  <unicode hex="00AA"/>
  <outline>
    <contour>
      <point x="54" y="1226" type="curve" smooth="yes"/>
      <point x="54" y="1134"/>
      <point x="127" y="1092"/>
      <point x="231" y="1092" type="curve" smooth="yes"/>
      <point x="349" y="1092"/>
      <point x="432" y="1153"/>
      <point x="432" y="1226" type="curve" smooth="yes"/>
      <point x="432" y="1259" type="line" smooth="yes"/>
      <point x="432" y="1310"/>
      <point x="453" y="1338"/>
      <point x="480" y="1338" type="curve" smooth="yes"/>
      <point x="492" y="1338"/>
      <point x="530" y="1282"/>
      <point x="530" y="1186" type="curve" smooth="yes"/>
      <point x="530" y="775" type="line" smooth="yes"/>
      <point x="530" y="654"/>
      <point x="642" y="599"/>
      <point x="767" y="599" type="curve" smooth="yes"/>
      <point x="929" y="599"/>
      <point x="1027" y="663"/>
      <point x="1027" y="718" type="curve" smooth="yes"/>
      <point x="1027" y="746"/>
      <point x="1002" y="769"/>
      <point x="955" y="769" type="curve" smooth="yes"/>
      <point x="934" y="769"/>
      <point x="929" y="764"/>
      <point x="924" y="764" type="curve" smooth="yes"/>
      <point x="893" y="764"/>
      <point x="881" y="789"/>
      <point x="881" y="820" type="curve" smooth="yes"/>
      <point x="881" y="1198" type="line" smooth="yes"/>
      <point x="881" y="1364"/>
      <point x="754" y="1444"/>
      <point x="572" y="1444" type="curve" smooth="yes"/>
      <point x="242" y="1444"/>
      <point x="54" y="1321"/>
    </contour>
    <contour>
      <point x="599" y="926" type="curve"/>
      <point x="636" y="1010" type="line"/>
      <point x="592" y="1030"/>
      <point x="575" y="1040"/>
      <point x="513" y="1040" type="curve" smooth="yes"/>
      <point x="176" y="1040"/>
      <point x="38" y="939"/>
      <point x="38" y="804" type="curve" smooth="yes"/>
      <point x="38" y="682"/>
      <point x="147" y="599"/>
      <point x="296" y="599" type="curve" smooth="yes"/>
      <point x="442" y="599"/>
      <point x="572" y="657"/>
      <point x="652" y="754" type="curve"/>
      <point x="629" y="832" type="line"/>
      <point x="612" y="780"/>
      <point x="548" y="762"/>
      <point x="509" y="762" type="curve" smooth="yes"/>
      <point x="457" y="762"/>
      <point x="416" y="799"/>
      <point x="416" y="859" type="curve" smooth="yes"/>
      <point x="416" y="909"/>
      <point x="445" y="952"/>
      <point x="472" y="952" type="curve" smooth="yes"/>
      <point x="520" y="952"/>
      <point x="560" y="942"/>
    </contour>
  </outline>
</glyph>
<glyph name="logicalnot" format="2">
  <advance width="1207"/>
  <unicode hex="00AC"/>
  <outline>
    <contour>
      <point x="929" y="271" type="curve" smooth="yes"/>
      <point x="1008" y="271"/>
      <point x="1063" y="307"/>
      <point x="1063" y="372" type="curve" smooth="yes"/>
      <point x="1063" y="733" type="line" smooth="yes"/>
      <point x="1063" y="792"/>
      <point x="1006" y="828"/>
      <point x="923" y="828" type="curve" smooth="yes"/>
      <point x="844" y="828"/>
      <point x="789" y="788"/>
      <point x="789" y="733" type="curve" smooth="yes"/>
      <point x="789" y="374" type="line" smooth="yes"/>
      <point x="789" y="313"/>
      <point x="847" y="271"/>
    </contour>
    <contour>
      <point x="82" y="731" type="curve" smooth="yes"/>
      <point x="82" y="673"/>
      <point x="156" y="626"/>
      <point x="237" y="626" type="curve" smooth="yes"/>
      <point x="354" y="626"/>
      <point x="492" y="644"/>
      <point x="579" y="644" type="curve" smooth="yes"/>
      <point x="667" y="644"/>
      <point x="799" y="626"/>
      <point x="908" y="626" type="curve" smooth="yes"/>
      <point x="1003" y="626"/>
      <point x="1063" y="673"/>
      <point x="1063" y="731" type="curve" smooth="yes"/>
      <point x="1063" y="792"/>
      <point x="999" y="840"/>
      <point x="908" y="840" type="curve" smooth="yes"/>
      <point x="799" y="840"/>
      <point x="667" y="822"/>
      <point x="579" y="822" type="curve" smooth="yes"/>
      <point x="478" y="822"/>
      <point x="354" y="840"/>
      <point x="239" y="840" type="curve" smooth="yes"/>
      <point x="163" y="840"/>
      <point x="82" y="792"/>
    </contour>
  </outline>
</glyph>
<glyph name="registered" format="2">
  <advance width="1252"/>
  <unicode hex="00AE"/>
  <outline>
    <contour>
      <point x="625" y="366" type="curve" smooth="yes"/>
      <point x="308" y="366"/>
      <point x="84" y="578"/>
      <point x="84" y="863" type="curve" smooth="yes"/>
      <point x="84" y="1143"/>
      <point x="312" y="1343"/>
      <point x="625" y="1343" type="curve" smooth="yes"/>
      <point x="939" y="1343"/>
      <point x="1169" y="1143"/>
      <point x="1169" y="863" type="curve" smooth="yes"/>
      <point x="1169" y="578"/>
      <point x="943" y="366"/>
    </contour>
    <contour>
      <point x="625" y="446" type="curve" smooth="yes"/>
      <point x="884" y="446"/>
      <point x="1067" y="624"/>
      <point x="1067" y="863" type="curve" smooth="yes"/>
      <point x="1067" y="1095"/>
      <point x="878" y="1263"/>
      <point x="625" y="1263" type="curve" smooth="yes"/>
      <point x="371" y="1263"/>
      <point x="186" y="1097"/>
      <point x="186" y="863" type="curve" smooth="yes"/>
      <point x="186" y="624"/>
      <point x="367" y="446"/>
    </contour>
    <contour>
      <point x="934" y="945" type="curve" smooth="yes"/>
      <point x="934" y="1065"/>
      <point x="789" y="1141"/>
      <point x="596" y="1141" type="curve" smooth="yes"/>
      <point x="347" y="1141" type="line" smooth="yes"/>
      <point x="324" y="1141"/>
      <point x="313" y="1129"/>
      <point x="313" y="1111" type="curve" smooth="yes"/>
      <point x="313" y="1095"/>
      <point x="321" y="1085"/>
      <point x="345" y="1081" type="curve" smooth="yes"/>
      <point x="364" y="1077" type="line" smooth="yes"/>
      <point x="388" y="1073"/>
      <point x="399" y="1058"/>
      <point x="399" y="1040" type="curve" smooth="yes"/>
      <point x="399" y="689" type="line" smooth="yes"/>
      <point x="399" y="671"/>
      <point x="388" y="661"/>
      <point x="364" y="654" type="curve" smooth="yes"/>
      <point x="345" y="648" type="line" smooth="yes"/>
      <point x="321" y="642"/>
      <point x="313" y="634"/>
      <point x="313" y="618" type="curve" smooth="yes"/>
      <point x="313" y="600"/>
      <point x="324" y="590"/>
      <point x="347" y="590" type="curve" smooth="yes"/>
      <point x="629" y="590" type="line" smooth="yes"/>
      <point x="651" y="590"/>
      <point x="661" y="600"/>
      <point x="661" y="618" type="curve" smooth="yes"/>
      <point x="661" y="632"/>
      <point x="651" y="642"/>
      <point x="634" y="646" type="curve" smooth="yes"/>
      <point x="609" y="654" type="line" smooth="yes"/>
      <point x="596" y="659"/>
      <point x="588" y="669"/>
      <point x="588" y="689" type="curve" smooth="yes"/>
      <point x="588" y="1073" type="line"/>
      <point x="592" y="1073" type="line" smooth="yes"/>
      <point x="667" y="1073"/>
      <point x="717" y="1022"/>
      <point x="717" y="949" type="curve" smooth="yes"/>
      <point x="717" y="889"/>
      <point x="678" y="844"/>
      <point x="619" y="844" type="curve" smooth="yes"/>
      <point x="584" y="844"/>
      <point x="563" y="850"/>
      <point x="534" y="867" type="curve"/>
      <point x="525" y="802" type="line"/>
      <point x="567" y="784"/>
      <point x="599" y="774"/>
      <point x="674" y="774" type="curve" smooth="yes"/>
      <point x="827" y="774"/>
      <point x="934" y="842"/>
    </contour>
    <contour>
      <point x="604" y="804" type="line"/>
      <point x="684" y="687" type="line" smooth="yes"/>
      <point x="690" y="679"/>
      <point x="694" y="673"/>
      <point x="694" y="663" type="curve" smooth="yes"/>
      <point x="694" y="657"/>
      <point x="694" y="650"/>
      <point x="684" y="646" type="curve" smooth="yes"/>
      <point x="665" y="642"/>
      <point x="657" y="632"/>
      <point x="657" y="616" type="curve" smooth="yes"/>
      <point x="657" y="600"/>
      <point x="670" y="590"/>
      <point x="696" y="590" type="curve" smooth="yes"/>
      <point x="919" y="590" type="line" smooth="yes"/>
      <point x="939" y="590"/>
      <point x="950" y="600"/>
      <point x="950" y="618" type="curve" smooth="yes"/>
      <point x="950" y="632"/>
      <point x="939" y="640"/>
      <point x="927" y="646" type="curve" smooth="yes"/>
      <point x="908" y="659"/>
      <point x="888" y="665"/>
      <point x="878" y="683" type="curve" smooth="yes"/>
      <point x="804" y="812" type="line"/>
    </contour>
  </outline>
</glyph>
<glyph name="paragraph" format="2">
  <advance width="1485"/>
  <unicode hex="00B6"/>
  <outline>
    <contour>
      <point x="31" y="982" type="curve" smooth="yes"/>
      <point x="31" y="756"/>
      <point x="235" y="600"/>
      <point x="482" y="600" type="curve" smooth="yes"/>
      <point x="513" y="600"/>
      <point x="553" y="606"/>
      <point x="604" y="614" type="curve"/>
      <point x="604" y="264" type="line" smooth="yes"/>
      <point x="604" y="212"/>
      <point x="585" y="164"/>
      <point x="527" y="156" type="curve" smooth="yes"/>
      <point x="435" y="144" type="line" smooth="yes"/>
      <point x="389" y="136"/>
      <point x="356" y="108"/>
      <point x="356" y="68" type="curve" smooth="yes"/>
      <point x="356" y="26"/>
      <point x="393" y="0"/>
      <point x="441" y="0" type="curve" smooth="yes"/>
      <point x="1339" y="0" type="line" smooth="yes"/>
      <point x="1393" y="0"/>
      <point x="1465" y="20"/>
      <point x="1465" y="68" type="curve" smooth="yes"/>
      <point x="1465" y="108"/>
      <point x="1432" y="134"/>
      <point x="1386" y="144" type="curve" smooth="yes"/>
      <point x="1335" y="156" type="line" smooth="yes"/>
      <point x="1281" y="168"/>
      <point x="1259" y="212"/>
      <point x="1259" y="264" type="curve" smooth="yes"/>
      <point x="1259" y="1134" type="line" smooth="yes"/>
      <point x="1259" y="1186"/>
      <point x="1281" y="1232"/>
      <point x="1335" y="1244" type="curve" smooth="yes"/>
      <point x="1386" y="1256" type="line" smooth="yes"/>
      <point x="1423" y="1264"/>
      <point x="1444" y="1294"/>
      <point x="1444" y="1332" type="curve" smooth="yes"/>
      <point x="1444" y="1378"/>
      <point x="1388" y="1400"/>
      <point x="1339" y="1400" type="curve" smooth="yes"/>
      <point x="519" y="1400" type="line" smooth="yes"/>
      <point x="251" y="1400"/>
      <point x="31" y="1230"/>
    </contour>
    <contour>
      <point x="1024" y="284" type="line" smooth="yes"/>
      <point x="1024" y="220"/>
      <point x="1001" y="172"/>
      <point x="931" y="172" type="curve" smooth="yes"/>
      <point x="863" y="172"/>
      <point x="838" y="230"/>
      <point x="838" y="284" type="curve" smooth="yes"/>
      <point x="838" y="1134" type="line" smooth="yes"/>
      <point x="838" y="1190"/>
      <point x="863" y="1248"/>
      <point x="931" y="1248" type="curve" smooth="yes"/>
      <point x="1001" y="1248"/>
      <point x="1024" y="1200"/>
      <point x="1024" y="1134" type="curve" smooth="yes"/>
    </contour>
  </outline>
</glyph>
<glyph name="cedilla" format="2">
  <advance width="630"/>
  <unicode hex="00B8"/>
  <outline>
    <contour>
      <point x="254" y="16" type="line"/>
      <point x="170" y="-143" type="line" smooth="yes"/>
      <point x="118" y="-195"/>
      <point x="146" y="-242"/>
      <point x="227" y="-242" type="curve" smooth="yes"/>
      <point x="237" y="-242"/>
      <point x="245" y="-234"/>
      <point x="262" y="-234" type="curve" smooth="yes"/>
      <point x="302" y="-234"/>
      <point x="324" y="-261"/>
      <point x="324" y="-317" type="curve" smooth="yes"/>
      <point x="324" y="-372"/>
      <point x="295" y="-400"/>
      <point x="253" y="-400" type="curve" smooth="yes"/>
      <point x="231" y="-400"/>
      <point x="218" y="-386"/>
      <point x="218" y="-366" type="curve" smooth="yes"/>
      <point x="218" y="-341" type="line" smooth="yes"/>
      <point x="218" y="-285"/>
      <point x="155" y="-248"/>
      <point x="64" y="-248" type="curve" smooth="yes"/>
      <point x="-29" y="-248"/>
      <point x="-95" y="-293"/>
      <point x="-95" y="-349" type="curve" smooth="yes"/>
      <point x="-95" y="-434"/>
      <point x="39" y="-495"/>
      <point x="245" y="-495" type="curve" smooth="yes"/>
      <point x="473" y="-495"/>
      <point x="626" y="-416"/>
      <point x="626" y="-297" type="curve" smooth="yes"/>
      <point x="626" y="-190"/>
      <point x="545" y="-131"/>
      <point x="423" y="-131" type="curve" smooth="yes"/>
      <point x="317" y="-131"/>
      <point x="241" y="-148"/>
      <point x="227" y="-172" type="curve"/>
      <point x="367" y="-182" type="line"/>
      <point x="468" y="18" type="line"/>
    </contour>
  </outline>
</glyph>
<glyph name="guillemetright" format="2">
  <advance width="1335"/>
  <unicode hex="00BB"/>
  <outline>
    <contour>
      <point x="1261" y="501" type="curve" smooth="yes"/>
      <point x="1261" y="475"/>
      <point x="1255" y="436"/>
      <point x="1195" y="410" type="curve" smooth="yes"/>
      <point x="1092" y="360"/>
      <point x="954" y="257"/>
      <point x="877" y="154" type="curve" smooth="yes"/>
      <point x="835" y="113"/>
      <point x="799" y="99"/>
      <point x="764" y="99" type="curve" smooth="yes"/>
      <point x="719" y="99"/>
      <point x="689" y="118"/>
      <point x="689" y="154" type="curve" smooth="yes"/>
      <point x="689" y="188"/>
      <point x="709" y="215"/>
      <point x="741" y="261" type="curve" smooth="yes"/>
      <point x="769" y="367"/>
      <point x="831" y="462"/>
      <point x="907" y="549" type="curve"/>
      <point x="907" y="471" type="line"/>
      <point x="833" y="563"/>
      <point x="763" y="648"/>
      <point x="745" y="741" type="curve" smooth="yes"/>
      <point x="713" y="787"/>
      <point x="689" y="814"/>
      <point x="689" y="848" type="curve" smooth="yes"/>
      <point x="689" y="883"/>
      <point x="711" y="903"/>
      <point x="744" y="903" type="curve" smooth="yes"/>
      <point x="780" y="903"/>
      <point x="819" y="887"/>
      <point x="858" y="846" type="curve" smooth="yes"/>
      <point x="939" y="737"/>
      <point x="1104" y="635"/>
      <point x="1195" y="592" type="curve" smooth="yes"/>
      <point x="1250" y="568"/>
      <point x="1261" y="527"/>
    </contour>
    <contour>
      <point x="717" y="501" type="curve" smooth="yes"/>
      <point x="717" y="475"/>
      <point x="711" y="436"/>
      <point x="651" y="410" type="curve" smooth="yes"/>
      <point x="548" y="360"/>
      <point x="410" y="257"/>
      <point x="333" y="154" type="curve" smooth="yes"/>
      <point x="291" y="113"/>
      <point x="255" y="99"/>
      <point x="220" y="99" type="curve" smooth="yes"/>
      <point x="175" y="99"/>
      <point x="145" y="118"/>
      <point x="145" y="154" type="curve" smooth="yes"/>
      <point x="145" y="188"/>
      <point x="165" y="215"/>
      <point x="197" y="261" type="curve" smooth="yes"/>
      <point x="226" y="367"/>
      <point x="287" y="462"/>
      <point x="364" y="549" type="curve"/>
      <point x="364" y="471" type="line"/>
      <point x="289" y="563"/>
      <point x="219" y="648"/>
      <point x="201" y="741" type="curve" smooth="yes"/>
      <point x="169" y="787"/>
      <point x="145" y="814"/>
      <point x="145" y="848" type="curve" smooth="yes"/>
      <point x="145" y="883"/>
      <point x="167" y="903"/>
      <point x="200" y="903" type="curve" smooth="yes"/>
      <point x="236" y="903"/>
      <point x="275" y="887"/>
      <point x="314" y="846" type="curve" smooth="yes"/>
      <point x="396" y="737"/>
      <point x="560" y="635"/>
      <point x="651" y="592" type="curve" smooth="yes"/>
      <point x="707" y="568"/>
      <point x="717" y="527"/>
    </contour>
  </outline>
</glyph>
<glyph name="onehalf" format="2">
  <advance width="1666"/>
  <unicode hex="00BD"/>
  <outline>
    <contour>
      <point x="1406" y="1103" type="curve" smooth="yes"/>
      <point x="1466" y="1149"/>
      <point x="1500" y="1198"/>
      <point x="1500" y="1246" type="curve" smooth="yes"/>
      <point x="1500" y="1297"/>
      <point x="1439" y="1343"/>
      <point x="1358" y="1343" type="curve" smooth="yes"/>
      <point x="1272" y="1343"/>
      <point x="1198" y="1315"/>
      <point x="1130" y="1246" type="curve" smooth="yes"/>
      <point x="1102" y="1149"/>
      <point x="1100" y="1001"/>
      <point x="857" y="733" type="curve" smooth="yes"/>
      <point x="583" y="428"/>
      <point x="364" y="329"/>
      <point x="357" y="232" type="curve" smooth="yes"/>
      <point x="276" y="178"/>
      <point x="240" y="129"/>
      <point x="240" y="71" type="curve" smooth="yes"/>
      <point x="240" y="16"/>
      <point x="297" y="-30"/>
      <point x="394" y="-30" type="curve" smooth="yes"/>
      <point x="503" y="-30"/>
      <point x="584" y="6"/>
      <point x="660" y="77" type="curve" smooth="yes"/>
      <point x="682" y="182"/>
      <point x="696" y="368"/>
      <point x="953" y="669" type="curve" smooth="yes"/>
      <point x="1199" y="939"/>
      <point x="1359" y="1016"/>
    </contour>
    <contour>
      <point x="112" y="1147" type="line" smooth="yes"/>
      <point x="61" y="1147"/>
      <point x="39" y="1172"/>
      <point x="39" y="1210" type="curve" smooth="yes"/>
      <point x="39" y="1244"/>
      <point x="69" y="1269"/>
      <point x="116" y="1269" type="curve" smooth="yes"/>
      <point x="190" y="1269" type="line" smooth="yes"/>
      <point x="269" y="1269"/>
      <point x="335" y="1281"/>
      <point x="351" y="1313" type="curve" smooth="yes"/>
      <point x="382" y="1335"/>
      <point x="406" y="1343"/>
      <point x="437" y="1343" type="curve" smooth="yes"/>
      <point x="480" y="1343"/>
      <point x="508" y="1327"/>
      <point x="508" y="1283" type="curve" smooth="yes"/>
      <point x="508" y="802" type="line" smooth="yes"/>
      <point x="508" y="766"/>
      <point x="537" y="743"/>
      <point x="572" y="739" type="curve" smooth="yes"/>
      <point x="589" y="735" type="line" smooth="yes"/>
      <point x="638" y="731"/>
      <point x="671" y="713"/>
      <point x="671" y="681" type="curve" smooth="yes"/>
      <point x="671" y="632"/>
      <point x="648" y="616"/>
      <point x="589" y="616" type="curve" smooth="yes"/>
      <point x="106" y="616" type="line" smooth="yes"/>
      <point x="59" y="616"/>
      <point x="31" y="632"/>
      <point x="31" y="681" type="curve" smooth="yes"/>
      <point x="31" y="715"/>
      <point x="59" y="735"/>
      <point x="106" y="739" type="curve" smooth="yes"/>
      <point x="119" y="743" type="line" smooth="yes"/>
      <point x="165" y="747"/>
      <point x="196" y="766"/>
      <point x="196" y="802" type="curve" smooth="yes"/>
      <point x="196" y="1081" type="line" smooth="yes"/>
      <point x="196" y="1129"/>
      <point x="173" y="1147"/>
      <point x="134" y="1147" type="curve" smooth="yes"/>
    </contour>
    <contour>
      <point x="1228" y="339" type="curve" smooth="yes"/>
      <point x="1085" y="245"/>
      <point x="1022" y="160"/>
      <point x="1022" y="71" type="curve" smooth="yes"/>
      <point x="1022" y="20"/>
      <point x="1057" y="-10"/>
      <point x="1121" y="-10" type="curve" smooth="yes"/>
      <point x="1192" y="-10"/>
      <point x="1176" y="75"/>
      <point x="1244" y="75" type="curve" smooth="yes"/>
      <point x="1327" y="75"/>
      <point x="1398" y="-14"/>
      <point x="1522" y="-14" type="curve" smooth="yes"/>
      <point x="1638" y="-14"/>
      <point x="1725" y="82"/>
      <point x="1725" y="196" type="curve" smooth="yes"/>
      <point x="1725" y="244"/>
      <point x="1701" y="281"/>
      <point x="1662" y="281" type="curve" smooth="yes"/>
      <point x="1638" y="281"/>
      <point x="1613" y="269"/>
      <point x="1603" y="238" type="curve" smooth="yes"/>
      <point x="1583" y="194"/>
      <point x="1554" y="176"/>
      <point x="1513" y="176" type="curve" smooth="yes"/>
      <point x="1474" y="176"/>
      <point x="1411" y="212"/>
      <point x="1351" y="212" type="curve" smooth="yes"/>
      <point x="1235" y="212"/>
      <point x="1182" y="141"/>
      <point x="1182" y="69" type="curve"/>
      <point x="1204" y="71" type="line"/>
      <point x="1204" y="145"/>
      <point x="1226" y="204"/>
      <point x="1306" y="263" type="curve" smooth="yes"/>
      <point x="1561" y="345"/>
      <point x="1667" y="423"/>
      <point x="1667" y="535" type="curve" smooth="yes"/>
      <point x="1667" y="649"/>
      <point x="1561" y="727"/>
      <point x="1385" y="727" type="curve" smooth="yes"/>
      <point x="1172" y="727"/>
      <point x="1018" y="611"/>
      <point x="1018" y="495" type="curve" smooth="yes"/>
      <point x="1018" y="430"/>
      <point x="1059" y="396"/>
      <point x="1128" y="396" type="curve" smooth="yes"/>
      <point x="1205" y="396"/>
      <point x="1268" y="434"/>
      <point x="1268" y="503" type="curve" smooth="yes"/>
      <point x="1268" y="566" type="line" smooth="yes"/>
      <point x="1268" y="598"/>
      <point x="1276" y="622"/>
      <point x="1301" y="622" type="curve" smooth="yes"/>
      <point x="1342" y="622"/>
      <point x="1374" y="589"/>
      <point x="1374" y="523" type="curve" smooth="yes"/>
      <point x="1374" y="443"/>
      <point x="1324" y="390"/>
    </contour>
  </outline>
</glyph>
<glyph name="threequarters" format="2">
  <advance width="1666"/>
  <unicode hex="00BE"/>
  <outline>
    <contour>
      <point x="1438" y="1103" type="curve" smooth="yes"/>
      <point x="1498" y="1149"/>
      <point x="1532" y="1198"/>
      <point x="1532" y="1246" type="curve" smooth="yes"/>
      <point x="1532" y="1297"/>
      <point x="1471" y="1343"/>
      <point x="1389" y="1343" type="curve" smooth="yes"/>
      <point x="1304" y="1343"/>
      <point x="1230" y="1315"/>
      <point x="1162" y="1246" type="curve" smooth="yes"/>
      <point x="1135" y="1149"/>
      <point x="1132" y="1001"/>
      <point x="889" y="733" type="curve" smooth="yes"/>
      <point x="615" y="428"/>
      <point x="396" y="329"/>
      <point x="389" y="232" type="curve" smooth="yes"/>
      <point x="309" y="178"/>
      <point x="272" y="129"/>
      <point x="272" y="71" type="curve" smooth="yes"/>
      <point x="272" y="16"/>
      <point x="329" y="-30"/>
      <point x="426" y="-30" type="curve" smooth="yes"/>
      <point x="535" y="-30"/>
      <point x="616" y="6"/>
      <point x="692" y="77" type="curve" smooth="yes"/>
      <point x="714" y="182"/>
      <point x="728" y="368"/>
      <point x="985" y="669" type="curve" smooth="yes"/>
      <point x="1231" y="939"/>
      <point x="1391" y="1016"/>
    </contour>
    <contour>
      <point x="450" y="982" type="line"/>
      <point x="610" y="1198" type="line" smooth="yes"/>
      <point x="662" y="1234"/>
      <point x="688" y="1265"/>
      <point x="688" y="1287" type="curve" smooth="yes"/>
      <point x="688" y="1321"/>
      <point x="657" y="1343"/>
      <point x="583" y="1343" type="curve" smooth="yes"/>
      <point x="232" y="1343" type="line" smooth="yes"/>
      <point x="152" y="1343"/>
      <point x="104" y="1313"/>
      <point x="100" y="1271" type="curve" smooth="yes"/>
      <point x="88" y="1113" type="line" smooth="yes"/>
      <point x="85" y="1081"/>
      <point x="117" y="1056"/>
      <point x="159" y="1056" type="curve" smooth="yes"/>
      <point x="191" y="1056"/>
      <point x="220" y="1083"/>
      <point x="238" y="1109" type="curve" smooth="yes"/>
      <point x="242" y="1129" type="line" smooth="yes"/>
      <point x="267" y="1170"/>
      <point x="309" y="1186"/>
      <point x="374" y="1186" type="curve" smooth="yes"/>
      <point x="553" y="1186" type="line"/>
      <point x="553" y="1285" type="line"/>
      <point x="291" y="1020" type="line" smooth="yes"/>
      <point x="270" y="1000"/>
      <point x="253" y="984"/>
      <point x="253" y="962" type="curve" smooth="yes"/>
      <point x="253" y="935"/>
      <point x="278" y="923"/>
      <point x="304" y="923" type="curve" smooth="yes"/>
      <point x="355" y="923" type="line" smooth="yes"/>
      <point x="414" y="923"/>
      <point x="452" y="879"/>
      <point x="452" y="788" type="curve" smooth="yes"/>
      <point x="452" y="725"/>
      <point x="426" y="687"/>
      <point x="392" y="687" type="curve" smooth="yes"/>
      <point x="345" y="687"/>
      <point x="315" y="716"/>
      <point x="315" y="760" type="curve" smooth="yes"/>
      <point x="315" y="800" type="line" smooth="yes"/>
      <point x="315" y="848"/>
      <point x="256" y="887"/>
      <point x="192" y="887" type="curve" smooth="yes"/>
      <point x="99" y="887"/>
      <point x="33" y="836"/>
      <point x="33" y="774" type="curve" smooth="yes"/>
      <point x="33" y="675"/>
      <point x="148" y="596"/>
      <point x="354" y="596" type="curve" smooth="yes"/>
      <point x="572" y="596"/>
      <point x="732" y="683"/>
      <point x="732" y="814" type="curve" smooth="yes"/>
      <point x="732" y="951"/>
      <point x="597" y="1018"/>
      <point x="382" y="1018" type="curve" smooth="yes"/>
      <point x="376" y="1018"/>
      <point x="349" y="1018"/>
      <point x="343" y="1018" type="curve"/>
    </contour>
    <contour>
      <point x="1263" y="297" type="curve" smooth="yes"/>
      <point x="1263" y="174" type="line" smooth="yes"/>
      <point x="1263" y="135"/>
      <point x="1252" y="115"/>
      <point x="1229" y="111" type="curve" smooth="yes"/>
      <point x="1164" y="105"/>
      <point x="1135" y="87"/>
      <point x="1135" y="55" type="curve" smooth="yes"/>
      <point x="1135" y="24"/>
      <point x="1162" y="4"/>
      <point x="1225" y="4" type="curve" smooth="yes"/>
      <point x="1567" y="4" type="line" smooth="yes"/>
      <point x="1627" y="4"/>
      <point x="1654" y="24"/>
      <point x="1654" y="55" type="curve" smooth="yes"/>
      <point x="1654" y="87"/>
      <point x="1622" y="101"/>
      <point x="1571" y="109" type="curve" smooth="yes"/>
      <point x="1551" y="117"/>
      <point x="1543" y="133"/>
      <point x="1543" y="172" type="curve" smooth="yes"/>
      <point x="1543" y="430" type="line" smooth="yes"/>
      <point x="1543" y="463"/>
      <point x="1518" y="477"/>
      <point x="1497" y="477" type="curve" smooth="yes"/>
      <point x="1484" y="477"/>
      <point x="1466" y="473"/>
      <point x="1455" y="461" type="curve" smooth="yes"/>
      <point x="1324" y="390" type="line" smooth="yes"/>
      <point x="1272" y="360"/>
      <point x="1263" y="331"/>
    </contour>
    <contour>
      <point x="1088" y="432" type="curve" smooth="yes"/>
      <point x="970" y="309" type="line" smooth="yes"/>
      <point x="939" y="285"/>
      <point x="925" y="259"/>
      <point x="925" y="232" type="curve" smooth="yes"/>
      <point x="925" y="200"/>
      <point x="946" y="182"/>
      <point x="981" y="182" type="curve" smooth="yes"/>
      <point x="1589" y="182" type="line" smooth="yes"/>
      <point x="1648" y="182"/>
      <point x="1675" y="198"/>
      <point x="1675" y="232" type="curve" smooth="yes"/>
      <point x="1675" y="267"/>
      <point x="1640" y="279"/>
      <point x="1589" y="279" type="curve" smooth="yes"/>
      <point x="974" y="279" type="line"/>
      <point x="1023" y="224" type="line"/>
      <point x="1386" y="501" type="line" smooth="yes"/>
      <point x="1438" y="540"/>
      <point x="1466" y="578"/>
      <point x="1466" y="616" type="curve" smooth="yes"/>
      <point x="1466" y="684"/>
      <point x="1403" y="731"/>
      <point x="1309" y="731" type="curve" smooth="yes"/>
      <point x="1188" y="731"/>
      <point x="1137" y="669"/>
      <point x="1137" y="612" type="curve" smooth="yes"/>
      <point x="1137" y="576"/>
      <point x="1160" y="553"/>
      <point x="1160" y="523" type="curve" smooth="yes"/>
      <point x="1160" y="491"/>
      <point x="1133" y="461"/>
    </contour>
  </outline>
</glyph>
<glyph name="questiondown" format="2">
  <advance width="943"/>
  <unicode hex="00BF"/>
  <outline>
    <contour>
      <point x="727.1800000000001" y="348.0" type="line" smooth="yes"/>
      <point x="729.24" y="334.0"/>
      <point x="729.24" y="330.0"/>
      <point x="729.24" y="322.0" type="curve" smooth="yes"/>
      <point x="729.24" y="282.0"/>
      <point x="706.58" y="242.0"/>
      <point x="628.3000000000001" y="216.0" type="curve" smooth="yes"/>
      <point x="547.96" y="176.0" type="line" smooth="yes"/>
      <point x="482.04" y="134.0"/>
      <point x="434.66" y="27.0"/>
      <point x="434.66" y="-102.0" type="curve" smooth="yes"/>
      <point x="434.66" y="-276.0"/>
      <point x="488.22" y="-360.0"/>
      <point x="572.6800000000001" y="-360.0" type="curve" smooth="yes"/>
      <point x="622.12" y="-360.0"/>
      <point x="650.96" y="-320.0"/>
      <point x="650.96" y="-248.0" type="curve" smooth="yes"/>
      <point x="650.96" y="-164.0" type="line" smooth="yes"/>
      <point x="650.96" y="-80.0"/>
      <point x="739.54" y="-18.0"/>
      <point x="850.78" y="-18.0" type="curve" smooth="yes"/>
      <point x="966.14" y="-18.0"/>
      <point x="1040.3" y="-78.0"/>
      <point x="1040.3" y="-182.0" type="curve" smooth="yes"/>
      <point x="1040.3" y="-335.0"/>
      <point x="806.49" y="-494.0"/>
      <point x="539.72" y="-494.0" type="curve" smooth="yes"/>
      <point x="197.76" y="-494.0"/>
      <point x="0.0" y="-361.0"/>
      <point x="0.0" y="-118.0" type="curve" smooth="yes"/>
      <point x="0.0" y="82.0"/>
      <point x="152.44" y="211.0"/>
      <point x="397.58" y="296.0" type="curve" smooth="yes"/>
      <point x="407.88" y="308.0" type="line" smooth="yes"/>
      <point x="465.56" y="326.0"/>
      <point x="498.52000000000004" y="360.0"/>
      <point x="523.24" y="422.0" type="curve" smooth="yes"/>
      <point x="517.0600000000001" y="440.0" type="line" smooth="yes"/>
      <point x="533.54" y="492.0"/>
      <point x="566.5" y="518.0"/>
      <point x="624.1800000000001" y="518.0" type="curve" smooth="yes"/>
      <point x="671.5600000000001" y="518.0"/>
      <point x="713.79" y="483.0"/>
      <point x="725.12" y="424.0" type="curve" smooth="yes"/>
    </contour>
    <contour>
      <point x="626.24" y="966.0" type="curve" smooth="yes"/>
      <point x="476.89" y="966.0"/>
      <point x="361.53000000000003" y="878.0"/>
      <point x="361.53000000000003" y="772.0" type="curve" smooth="yes"/>
      <point x="361.53000000000003" y="666.0"/>
      <point x="476.89" y="580.0"/>
      <point x="626.24" y="580.0" type="curve" smooth="yes"/>
      <point x="771.47" y="580.0"/>
      <point x="886.83" y="666.0"/>
      <point x="886.83" y="772.0" type="curve" smooth="yes"/>
      <point x="886.83" y="878.0"/>
      <point x="771.47" y="966.0"/>
    </contour>
  </outline>
</glyph>
<glyph name="Iacute" format="2">
  <advance width="915"/>
  <unicode hex="00CD"/>
  <outline>
    <contour>
      <point x="685" y="255" type="curve" smooth="yes"/>
      <point x="685" y="1157" type="line" smooth="yes"/>
      <point x="685" y="1212"/>
      <point x="710" y="1236"/>
      <point x="761" y="1248" type="curve" smooth="yes"/>
      <point x="800" y="1258" type="line" smooth="yes"/>
      <point x="864" y="1269"/>
      <point x="890" y="1293"/>
      <point x="890" y="1341" type="curve" smooth="yes"/>
      <point x="890" y="1392"/>
      <point x="858" y="1414"/>
      <point x="790" y="1414" type="curve" smooth="yes"/>
      <point x="128" y="1414" type="line" smooth="yes"/>
      <point x="50" y="1414"/>
      <point x="21" y="1392"/>
      <point x="21" y="1341" type="curve" smooth="yes"/>
      <point x="21" y="1293"/>
      <point x="44" y="1273"/>
      <point x="102" y="1260" type="curve" smooth="yes"/>
      <point x="153" y="1248" type="line" smooth="yes"/>
      <point x="203" y="1236"/>
      <point x="230" y="1212"/>
      <point x="230" y="1157" type="curve" smooth="yes"/>
      <point x="230" y="255" type="line" smooth="yes"/>
      <point x="230" y="202"/>
      <point x="203" y="178"/>
      <point x="153" y="166" type="curve" smooth="yes"/>
      <point x="126" y="156" type="line" smooth="yes"/>
      <point x="57" y="141"/>
      <point x="24" y="119"/>
      <point x="24" y="73" type="curve" smooth="yes"/>
      <point x="24" y="22"/>
      <point x="50" y="0"/>
      <point x="128" y="0" type="curve" smooth="yes"/>
      <point x="787" y="0" type="line" smooth="yes"/>
      <point x="858" y="0"/>
      <point x="894" y="22"/>
      <point x="894" y="73" type="curve" smooth="yes"/>
      <point x="894" y="121"/>
      <point x="867" y="145"/>
      <point x="804" y="156" type="curve" smooth="yes"/>
      <point x="761" y="166" type="line" smooth="yes"/>
      <point x="710" y="176"/>
      <point x="685" y="202"/>
    </contour>
    <contour>
      <point x="307" y="1578" type="curve" smooth="yes"/>
      <point x="540" y="1695" type="line" smooth="yes"/>
      <point x="690" y="1757"/>
      <point x="799" y="1794"/>
      <point x="891" y="1794" type="curve" smooth="yes"/>
      <point x="993" y="1794"/>
      <point x="1052" y="1753"/>
      <point x="1052" y="1689" type="curve" smooth="yes"/>
      <point x="1052" y="1628"/>
      <point x="940" y="1582"/>
      <point x="779" y="1547" type="curve" smooth="yes"/>
      <point x="490" y="1483" type="line" smooth="yes"/>
      <point x="410" y="1468"/>
      <point x="361" y="1460"/>
      <point x="317" y="1460" type="curve" smooth="yes"/>
      <point x="261" y="1460"/>
      <point x="232" y="1477"/>
      <point x="232" y="1511" type="curve" smooth="yes"/>
      <point x="232" y="1532"/>
      <point x="263" y="1560"/>
    </contour>
  </outline>
</glyph>
<glyph name="Idieresis" format="2">
  <advance width="915"/>
  <unicode hex="00CF"/>
  <outline>
    <contour>
      <point x="685" y="255" type="curve" smooth="yes"/>
      <point x="685" y="1157" type="line" smooth="yes"/>
      <point x="685" y="1212"/>
      <point x="710" y="1236"/>
      <point x="761" y="1248" type="curve" smooth="yes"/>
      <point x="800" y="1258" type="line" smooth="yes"/>
      <point x="864" y="1269"/>
      <point x="890" y="1293"/>
      <point x="890" y="1341" type="curve" smooth="yes"/>
      <point x="890" y="1392"/>
      <point x="858" y="1414"/>
      <point x="790" y="1414" type="curve" smooth="yes"/>
      <point x="128" y="1414" type="line" smooth="yes"/>
      <point x="50" y="1414"/>
      <point x="21" y="1392"/>
      <point x="21" y="1341" type="curve" smooth="yes"/>
      <point x="21" y="1293"/>
      <point x="44" y="1273"/>
      <point x="102" y="1260" type="curve" smooth="yes"/>
      <point x="153" y="1248" type="line" smooth="yes"/>
      <point x="203" y="1236"/>
      <point x="230" y="1212"/>
      <point x="230" y="1157" type="curve" smooth="yes"/>
      <point x="230" y="255" type="line" smooth="yes"/>
      <point x="230" y="202"/>
      <point x="203" y="178"/>
      <point x="153" y="166" type="curve" smooth="yes"/>
      <point x="126" y="156" type="line" smooth="yes"/>
      <point x="57" y="141"/>
      <point x="24" y="119"/>
      <point x="24" y="73" type="curve" smooth="yes"/>
      <point x="24" y="22"/>
      <point x="50" y="0"/>
      <point x="128" y="0" type="curve" smooth="yes"/>
      <point x="787" y="0" type="line" smooth="yes"/>
      <point x="858" y="0"/>
      <point x="894" y="22"/>
      <point x="894" y="73" type="curve" smooth="yes"/>
      <point x="894" y="121"/>
      <point x="867" y="145"/>
      <point x="804" y="156" type="curve" smooth="yes"/>
      <point x="761" y="166" type="line" smooth="yes"/>
      <point x="710" y="176"/>
      <point x="685" y="202"/>
    </contour>
    <contour>
      <point x="233" y="1423" type="curve" smooth="yes"/>
      <point x="359" y="1423"/>
      <point x="462" y="1499"/>
      <point x="462" y="1591" type="curve" smooth="yes"/>
      <point x="462" y="1683"/>
      <point x="359" y="1755"/>
      <point x="233" y="1755" type="curve" smooth="yes"/>
      <point x="109" y="1755"/>
      <point x="5" y="1683"/>
      <point x="5" y="1591" type="curve" smooth="yes"/>
      <point x="5" y="1499"/>
      <point x="109" y="1423"/>
    </contour>
    <contour>
      <point x="680" y="1423" type="curve" smooth="yes"/>
      <point x="805" y="1423"/>
      <point x="909" y="1499"/>
      <point x="909" y="1591" type="curve" smooth="yes"/>
      <point x="909" y="1683"/>
      <point x="805" y="1755"/>
      <point x="680" y="1755" type="curve" smooth="yes"/>
      <point x="555" y="1755"/>
      <point x="452" y="1683"/>
      <point x="452" y="1591" type="curve" smooth="yes"/>
      <point x="452" y="1499"/>
      <point x="555" y="1423"/>
    </contour>
  </outline>
</glyph>
<glyph name="Oslash" format="2">
  <advance width="1623"/>
  <unicode hex="00D8"/>
  <outline>
    <contour>
      <point x="1465" y="1220" type="curve" smooth="yes"/>
      <point x="1518" y="1256"/>
      <point x="1547" y="1304"/>
      <point x="1547" y="1346" type="curve" smooth="yes"/>
      <point x="1547" y="1390"/>
      <point x="1496" y="1432"/>
      <point x="1428" y="1432" type="curve" smooth="yes"/>
      <point x="1351" y="1432"/>
      <point x="1290" y="1404"/>
      <point x="1226" y="1350" type="curve" smooth="yes"/>
      <point x="1079" y="1158"/>
      <point x="1077" y="934"/>
      <point x="787" y="734" type="curve" smooth="yes"/>
      <point x="521" y="544"/>
      <point x="286" y="336"/>
      <point x="163" y="170" type="curve" smooth="yes"/>
      <point x="103" y="130"/>
      <point x="82" y="88"/>
      <point x="82" y="42" type="curve" smooth="yes"/>
      <point x="82" y="-4"/>
      <point x="124" y="-44"/>
      <point x="210" y="-44" type="curve" smooth="yes"/>
      <point x="299" y="-44"/>
      <point x="350" y="-8"/>
      <point x="418" y="50" type="curve" smooth="yes"/>
      <point x="544" y="230"/>
      <point x="672" y="484"/>
      <point x="892" y="670" type="curve" smooth="yes"/>
      <point x="1215" y="892"/>
      <point x="1285" y="1050"/>
    </contour>
    <contour>
      <point x="824" y="1426" type="curve" smooth="yes"/>
      <point x="317" y="1426"/>
      <point x="47" y="1100"/>
      <point x="47" y="708" type="curve" smooth="yes"/>
      <point x="47" y="270"/>
      <point x="321" y="-30"/>
      <point x="824" y="-30" type="curve" smooth="yes"/>
      <point x="1300" y="-30"/>
      <point x="1599" y="280"/>
      <point x="1599" y="710" type="curve" smooth="yes"/>
      <point x="1599" y="1122"/>
      <point x="1298" y="1426"/>
    </contour>
    <contour>
      <point x="1127" y="578" type="curve" smooth="yes"/>
      <point x="1127" y="300"/>
      <point x="1066" y="154"/>
      <point x="935" y="154" type="curve" smooth="yes"/>
      <point x="757" y="154"/>
      <point x="515" y="446"/>
      <point x="515" y="830" type="curve" smooth="yes"/>
      <point x="515" y="1080"/>
      <point x="572" y="1246"/>
      <point x="715" y="1246" type="curve" smooth="yes"/>
      <point x="893" y="1246"/>
      <point x="1127" y="958"/>
    </contour>
  </outline>
</glyph>
<glyph name="Ucircumflex" format="2">
  <advance width="1531"/>
  <unicode hex="00DB"/>
  <outline>
    <contour>
      <point x="1135" y="612" type="line" smooth="yes"/>
      <point x="1141" y="562"/>
      <point x="1143" y="513"/>
      <point x="1143" y="424" type="curve" smooth="yes"/>
      <point x="1143" y="259"/>
      <point x="1039" y="160"/>
      <point x="859" y="160" type="curve" smooth="yes"/>
      <point x="705" y="160"/>
      <point x="610" y="275"/>
      <point x="610" y="471" type="curve" smooth="yes"/>
      <point x="610" y="515"/>
      <point x="614" y="580"/>
      <point x="618" y="654" type="curve" smooth="yes"/>
      <point x="647" y="1153" type="line" smooth="yes"/>
      <point x="651" y="1214"/>
      <point x="692" y="1258"/>
      <point x="767" y="1277" type="curve" smooth="yes"/>
      <point x="789" y="1289" type="line" smooth="yes"/>
      <point x="826" y="1299"/>
      <point x="847" y="1315"/>
      <point x="847" y="1355" type="curve" smooth="yes"/>
      <point x="847" y="1396"/>
      <point x="828" y="1414"/>
      <point x="785" y="1414" type="curve" smooth="yes"/>
      <point x="84" y="1414" type="line" smooth="yes"/>
      <point x="41" y="1414"/>
      <point x="23" y="1396"/>
      <point x="23" y="1355" type="curve" smooth="yes"/>
      <point x="23" y="1315"/>
      <point x="47" y="1307"/>
      <point x="80" y="1289" type="curve" smooth="yes"/>
      <point x="92" y="1277" type="line" smooth="yes"/>
      <point x="153" y="1250"/>
      <point x="196" y="1188"/>
      <point x="188" y="1111" type="curve" smooth="yes"/>
      <point x="163" y="665" type="line" smooth="yes"/>
      <point x="159" y="601"/>
      <point x="144" y="477"/>
      <point x="144" y="418" type="curve" smooth="yes"/>
      <point x="144" y="136"/>
      <point x="334" y="-30"/>
      <point x="671" y="-30" type="curve" smooth="yes"/>
      <point x="1163" y="-30"/>
      <point x="1389" y="166"/>
      <point x="1389" y="416" type="curve" smooth="yes"/>
      <point x="1389" y="485"/>
      <point x="1387" y="547"/>
      <point x="1379" y="614" type="curve" smooth="yes"/>
      <point x="1325" y="1121" type="line" smooth="yes"/>
      <point x="1314" y="1186"/>
      <point x="1361" y="1238"/>
      <point x="1432" y="1263" type="curve" smooth="yes"/>
      <point x="1468" y="1287" type="line" smooth="yes"/>
      <point x="1505" y="1303"/>
      <point x="1517" y="1321"/>
      <point x="1517" y="1357" type="curve" smooth="yes"/>
      <point x="1517" y="1390"/>
      <point x="1497" y="1414"/>
      <point x="1470" y="1414" type="curve" smooth="yes"/>
      <point x="948" y="1414" type="line" smooth="yes"/>
      <point x="911" y="1414"/>
      <point x="888" y="1398"/>
      <point x="888" y="1355" type="curve" smooth="yes"/>
      <point x="888" y="1327"/>
      <point x="911" y="1301"/>
      <point x="952" y="1285" type="curve" smooth="yes"/>
      <point x="986" y="1263" type="line" smooth="yes"/>
      <point x="1061" y="1234"/>
      <point x="1096" y="1214"/>
      <point x="1106" y="1121" type="curve" smooth="yes"/>
    </contour>
    <contour>
      <point x="394" y="1603" type="curve" smooth="yes"/>
      <point x="452" y="1708" type="line" smooth="yes"/>
      <point x="544" y="1783"/>
      <point x="631" y="1807"/>
      <point x="735" y="1807" type="curve" smooth="yes"/>
      <point x="832" y="1807"/>
      <point x="919" y="1783"/>
      <point x="1018" y="1708" type="curve" smooth="yes"/>
      <point x="1077" y="1603" type="line" smooth="yes"/>
      <point x="1097" y="1587"/>
      <point x="1123" y="1562"/>
      <point x="1123" y="1543" type="curve" smooth="yes"/>
      <point x="1123" y="1514"/>
      <point x="1100" y="1501"/>
      <point x="1050" y="1501" type="curve" smooth="yes"/>
      <point x="1012" y="1501"/>
      <point x="982" y="1510"/>
      <point x="916" y="1539" type="curve" smooth="yes"/>
      <point x="646" y="1680" type="line"/>
      <point x="826" y="1680" type="line"/>
      <point x="556" y="1539" type="line" smooth="yes"/>
      <point x="494" y="1512"/>
      <point x="459" y="1503"/>
      <point x="421" y="1503" type="curve" smooth="yes"/>
      <point x="372" y="1503"/>
      <point x="349" y="1515"/>
      <point x="349" y="1544" type="curve" smooth="yes"/>
      <point x="349" y="1566"/>
      <point x="375" y="1587"/>
    </contour>
  </outline>
</glyph>
<glyph name="Thorn" format="2">
  <advance width="1644"/>
  <unicode hex="00DE"/>
  <outline>
    <contour>
      <point x="525" y="994" type="line"/>
      <point x="785" y="994" type="line" smooth="yes"/>
      <point x="1001" y="994"/>
      <point x="1098" y="880"/>
      <point x="1098" y="704" type="curve" smooth="yes"/>
      <point x="1098" y="516"/>
      <point x="1005" y="418"/>
      <point x="890" y="418" type="curve" smooth="yes"/>
      <point x="707" y="418"/>
      <point x="620" y="456"/>
      <point x="523" y="508" type="curve"/>
      <point x="503" y="378" type="line"/>
      <point x="633" y="308"/>
      <point x="733" y="282"/>
      <point x="896" y="282" type="curve" smooth="yes"/>
      <point x="1368" y="282"/>
      <point x="1613" y="426"/>
      <point x="1613" y="694" type="curve" smooth="yes"/>
      <point x="1613" y="978"/>
      <point x="1341" y="1142"/>
      <point x="960" y="1142" type="curve" smooth="yes"/>
      <point x="525" y="1142" type="line"/>
    </contour>
    <contour>
      <point x="690" y="252" type="curve" smooth="yes"/>
      <point x="690" y="1146" type="line" smooth="yes"/>
      <point x="690" y="1200"/>
      <point x="715" y="1224"/>
      <point x="766" y="1236" type="curve" smooth="yes"/>
      <point x="805" y="1246" type="line" smooth="yes"/>
      <point x="869" y="1256"/>
      <point x="896" y="1280"/>
      <point x="896" y="1328" type="curve" smooth="yes"/>
      <point x="896" y="1378"/>
      <point x="863" y="1400"/>
      <point x="795" y="1400" type="curve" smooth="yes"/>
      <point x="128" y="1400" type="line" smooth="yes"/>
      <point x="49" y="1400"/>
      <point x="19" y="1378"/>
      <point x="19" y="1328" type="curve" smooth="yes"/>
      <point x="19" y="1280"/>
      <point x="43" y="1260"/>
      <point x="101" y="1248" type="curve" smooth="yes"/>
      <point x="152" y="1236" type="line" smooth="yes"/>
      <point x="202" y="1224"/>
      <point x="229" y="1200"/>
      <point x="229" y="1146" type="curve" smooth="yes"/>
      <point x="229" y="252" type="line" smooth="yes"/>
      <point x="229" y="200"/>
      <point x="202" y="176"/>
      <point x="152" y="164" type="curve" smooth="yes"/>
      <point x="126" y="154" type="line" smooth="yes"/>
      <point x="56" y="140"/>
      <point x="23" y="118"/>
      <point x="23" y="72" type="curve" smooth="yes"/>
      <point x="23" y="22"/>
      <point x="49" y="0"/>
      <point x="128" y="0" type="curve" smooth="yes"/>
      <point x="791" y="0" type="line" smooth="yes"/>
      <point x="863" y="0"/>
      <point x="900" y="22"/>
      <point x="900" y="72" type="curve" smooth="yes"/>
      <point x="900" y="120"/>
      <point x="873" y="144"/>
      <point x="810" y="154" type="curve" smooth="yes"/>
      <point x="766" y="164" type="line" smooth="yes"/>
      <point x="715" y="174"/>
      <point x="690" y="200"/>
    </contour>
  </outline>
</glyph>
<glyph name="germandbls" format="2">
  <advance width="1490"/>
  <unicode hex="00DF"/>
  <outline>
    <contour>
      <point x="1097" y="745" type="curve" smooth="yes"/>
      <point x="1097" y="690"/>
      <point x="1127" y="641"/>
      <point x="1273" y="592" type="curve" smooth="yes"/>
      <point x="1468" y="517"/>
      <point x="1497" y="430"/>
      <point x="1497" y="287" type="curve" smooth="yes"/>
      <point x="1497" y="105"/>
      <point x="1339" y="-30"/>
      <point x="1083" y="-30" type="curve" smooth="yes"/>
      <point x="954" y="-30"/>
      <point x="942" y="6"/>
      <point x="891" y="6" type="curve" smooth="yes"/>
      <point x="881" y="6"/>
      <point x="868" y="0"/>
      <point x="862" y="-12" type="curve" smooth="yes"/>
      <point x="836" y="-38"/>
      <point x="814" y="-44"/>
      <point x="783" y="-44" type="curve" smooth="yes"/>
      <point x="743" y="-44"/>
      <point x="710" y="-26"/>
      <point x="701" y="6" type="curve" smooth="yes"/>
      <point x="664" y="149" type="line" smooth="yes"/>
      <point x="656" y="180"/>
      <point x="646" y="210"/>
      <point x="646" y="230" type="curve" smooth="yes"/>
      <point x="646" y="275"/>
      <point x="684" y="305"/>
      <point x="725" y="305" type="curve" smooth="yes"/>
      <point x="770" y="305"/>
      <point x="810" y="277"/>
      <point x="848" y="228" type="curve" smooth="yes"/>
      <point x="886" y="137"/>
      <point x="945" y="103"/>
      <point x="1006" y="103" type="curve" smooth="yes"/>
      <point x="1050" y="103"/>
      <point x="1071" y="141"/>
      <point x="1071" y="212" type="curve" smooth="yes"/>
      <point x="1071" y="293"/>
      <point x="1022" y="349"/>
      <point x="862" y="414" type="curve" smooth="yes"/>
      <point x="715" y="477"/>
      <point x="646" y="556"/>
      <point x="646" y="661" type="curve" smooth="yes"/>
      <point x="646" y="745"/>
      <point x="710" y="825"/>
      <point x="779" y="907" type="curve" smooth="yes"/>
      <point x="860" y="997"/>
      <point x="900" y="1058"/>
      <point x="900" y="1139" type="curve" smooth="yes"/>
      <point x="900" y="1227"/>
      <point x="855" y="1299"/>
      <point x="766" y="1299" type="curve" smooth="yes"/>
      <point x="641" y="1299"/>
      <point x="545" y="1165"/>
      <point x="545" y="901" type="curve" smooth="yes"/>
      <point x="545" y="208" type="line" smooth="yes"/>
      <point x="545" y="172"/>
      <point x="570" y="141"/>
      <point x="605" y="129" type="curve" smooth="yes"/>
      <point x="650" y="115"/>
      <point x="676" y="103"/>
      <point x="676" y="69" type="curve" smooth="yes"/>
      <point x="676" y="22"/>
      <point x="652" y="0"/>
      <point x="594" y="0" type="curve" smooth="yes"/>
      <point x="26" y="0" type="line" smooth="yes"/>
      <point x="-22" y="0"/>
      <point x="-49" y="20"/>
      <point x="-49" y="65" type="curve" smooth="yes"/>
      <point x="-49" y="101"/>
      <point x="-24" y="127"/>
      <point x="28" y="135" type="curve" smooth="yes"/>
      <point x="63" y="141" type="line" smooth="yes"/>
      <point x="96" y="147"/>
      <point x="123" y="176"/>
      <point x="123" y="228" type="curve" smooth="yes"/>
      <point x="123" y="707" type="line" smooth="yes"/>
      <point x="123" y="766"/>
      <point x="96" y="782"/>
      <point x="63" y="790" type="curve" smooth="yes"/>
      <point x="-5" y="808" type="line" smooth="yes"/>
      <point x="-38" y="816"/>
      <point x="-59" y="842"/>
      <point x="-59" y="875" type="curve" smooth="yes"/>
      <point x="-59" y="915"/>
      <point x="-18" y="939"/>
      <point x="43" y="939" type="curve" smooth="yes"/>
      <point x="158" y="939" type="line"/>
      <point x="131" y="844" type="line"/>
      <point x="131" y="893" type="line" smooth="yes"/>
      <point x="131" y="1192"/>
      <point x="438" y="1444"/>
      <point x="896" y="1444" type="curve" smooth="yes"/>
      <point x="1209" y="1444"/>
      <point x="1400" y="1319"/>
      <point x="1400" y="1170" type="curve" smooth="yes"/>
      <point x="1400" y="1071"/>
      <point x="1353" y="1006"/>
      <point x="1275" y="937" type="curve" smooth="yes"/>
      <point x="1178" y="862"/>
      <point x="1097" y="801"/>
    </contour>
  </outline>
</glyph>
<glyph name="atilde" format="2">
  <advance width="1189"/>
  <unicode hex="00E3"/>
  <outline>
    <contour>
      <point x="60" y="725" type="curve" smooth="yes"/>
      <point x="60" y="614"/>
      <point x="146" y="564"/>
      <point x="273" y="564" type="curve" smooth="yes"/>
      <point x="415" y="564"/>
      <point x="515" y="637"/>
      <point x="515" y="725" type="curve" smooth="yes"/>
      <point x="515" y="766" type="line" smooth="yes"/>
      <point x="515" y="826"/>
      <point x="540" y="861"/>
      <point x="573" y="861" type="curve" smooth="yes"/>
      <point x="588" y="861"/>
      <point x="633" y="793"/>
      <point x="633" y="677" type="curve" smooth="yes"/>
      <point x="633" y="182" type="line" smooth="yes"/>
      <point x="633" y="36"/>
      <point x="768" y="-30"/>
      <point x="919" y="-30" type="curve" smooth="yes"/>
      <point x="1113" y="-30"/>
      <point x="1232" y="46"/>
      <point x="1232" y="113" type="curve" smooth="yes"/>
      <point x="1232" y="147"/>
      <point x="1202" y="174"/>
      <point x="1145" y="174" type="curve" smooth="yes"/>
      <point x="1121" y="174"/>
      <point x="1114" y="168"/>
      <point x="1107" y="168" type="curve" smooth="yes"/>
      <point x="1071" y="168"/>
      <point x="1056" y="198"/>
      <point x="1056" y="236" type="curve" smooth="yes"/>
      <point x="1056" y="691" type="line" smooth="yes"/>
      <point x="1056" y="890"/>
      <point x="902" y="988"/>
      <point x="683" y="988" type="curve" smooth="yes"/>
      <point x="286" y="988"/>
      <point x="60" y="839"/>
    </contour>
    <contour>
      <point x="717" y="364" type="curve"/>
      <point x="760" y="465" type="line"/>
      <point x="708" y="489"/>
      <point x="688" y="501"/>
      <point x="613" y="501" type="curve" smooth="yes"/>
      <point x="206" y="501"/>
      <point x="40" y="380"/>
      <point x="40" y="216" type="curve" smooth="yes"/>
      <point x="40" y="69"/>
      <point x="172" y="-30"/>
      <point x="350" y="-30" type="curve" smooth="yes"/>
      <point x="527" y="-30"/>
      <point x="683" y="38"/>
      <point x="780" y="158" type="curve"/>
      <point x="753" y="250" type="line"/>
      <point x="731" y="188"/>
      <point x="655" y="166"/>
      <point x="609" y="166" type="curve" smooth="yes"/>
      <point x="546" y="166"/>
      <point x="495" y="210"/>
      <point x="495" y="283" type="curve" smooth="yes"/>
      <point x="495" y="343"/>
      <point x="531" y="396"/>
      <point x="562" y="396" type="curve" smooth="yes"/>
      <point x="621" y="396"/>
      <point x="670" y="384"/>
    </contour>
    <contour>
      <point x="161" y="1166" type="curve" smooth="yes"/>
      <point x="161" y="1307"/>
      <point x="265" y="1412"/>
      <point x="438" y="1412" type="curve" smooth="yes"/>
      <point x="578" y="1412"/>
      <point x="642" y="1389"/>
      <point x="709" y="1339" type="curve" smooth="yes"/>
      <point x="776" y="1292"/>
      <point x="810" y="1279"/>
      <point x="850" y="1279" type="curve" smooth="yes"/>
      <point x="901" y="1279"/>
      <point x="933" y="1299"/>
      <point x="933" y="1339" type="curve" smooth="yes"/>
      <point x="933" y="1388"/>
      <point x="967" y="1412"/>
      <point x="1025" y="1412" type="curve" smooth="yes"/>
      <point x="1073" y="1412"/>
      <point x="1120" y="1394"/>
      <point x="1120" y="1321" type="curve" smooth="yes"/>
      <point x="1120" y="1170"/>
      <point x="982" y="1097"/>
      <point x="819" y="1097" type="curve" smooth="yes"/>
      <point x="717" y="1097"/>
      <point x="654" y="1111"/>
      <point x="570" y="1164" type="curve" smooth="yes"/>
      <point x="482" y="1216"/>
      <point x="453" y="1230"/>
      <point x="418" y="1230" type="curve" smooth="yes"/>
      <point x="376" y="1230"/>
      <point x="353" y="1206"/>
      <point x="353" y="1153" type="curve" smooth="yes"/>
      <point x="353" y="1109"/>
      <point x="310" y="1087"/>
      <point x="255" y="1087" type="curve" smooth="yes"/>
      <point x="209" y="1087"/>
      <point x="161" y="1103"/>
    </contour>
  </outline>
</glyph>
<glyph name="ccedilla" format="2">
  <advance width="1076"/>
  <unicode hex="00E7"/>
  <outline>
    <contour>
      <point x="1065" y="699" type="curve" smooth="yes"/>
      <point x="1065" y="873"/>
      <point x="898" y="988"/>
      <point x="625" y="988" type="curve" smooth="yes"/>
      <point x="276" y="988"/>
      <point x="36" y="764"/>
      <point x="36" y="444" type="curve" smooth="yes"/>
      <point x="36" y="164"/>
      <point x="276" y="-30"/>
      <point x="589" y="-30" type="curve" smooth="yes"/>
      <point x="830" y="-30"/>
      <point x="1034" y="103"/>
      <point x="1034" y="263" type="curve" smooth="yes"/>
      <point x="1034" y="305"/>
      <point x="1000" y="335"/>
      <point x="956" y="335" type="curve" smooth="yes"/>
      <point x="921" y="335"/>
      <point x="893" y="324"/>
      <point x="835" y="285" type="curve" smooth="yes"/>
      <point x="810" y="246"/>
      <point x="763" y="222"/>
      <point x="695" y="222" type="curve" smooth="yes"/>
      <point x="554" y="222"/>
      <point x="442" y="356"/>
      <point x="442" y="543" type="curve" smooth="yes"/>
      <point x="442" y="703"/>
      <point x="474" y="830"/>
      <point x="557" y="830" type="curve" smooth="yes"/>
      <point x="610" y="830"/>
      <point x="633" y="792"/>
      <point x="633" y="735" type="curve" smooth="yes"/>
      <point x="633" y="703" type="line" smooth="yes"/>
      <point x="633" y="610"/>
      <point x="721" y="539"/>
      <point x="857" y="539" type="curve" smooth="yes"/>
      <point x="983" y="539"/>
      <point x="1065" y="608"/>
    </contour>
    <contour>
      <point x="561" y="107" type="line"/>
      <point x="476" y="-53" type="line" smooth="yes"/>
      <point x="425" y="-104"/>
      <point x="453" y="-151"/>
      <point x="534" y="-151" type="curve" smooth="yes"/>
      <point x="544" y="-151"/>
      <point x="552" y="-143"/>
      <point x="569" y="-143" type="curve" smooth="yes"/>
      <point x="609" y="-143"/>
      <point x="631" y="-170"/>
      <point x="631" y="-226" type="curve" smooth="yes"/>
      <point x="631" y="-281"/>
      <point x="602" y="-309"/>
      <point x="560" y="-309" type="curve" smooth="yes"/>
      <point x="538" y="-309"/>
      <point x="525" y="-295"/>
      <point x="525" y="-275" type="curve" smooth="yes"/>
      <point x="525" y="-250" type="line" smooth="yes"/>
      <point x="525" y="-194"/>
      <point x="460" y="-158"/>
      <point x="371" y="-158" type="curve" smooth="yes"/>
      <point x="278" y="-158"/>
      <point x="212" y="-202"/>
      <point x="212" y="-259" type="curve" smooth="yes"/>
      <point x="212" y="-343"/>
      <point x="346" y="-404"/>
      <point x="552" y="-404" type="curve" smooth="yes"/>
      <point x="779" y="-404"/>
      <point x="933" y="-325"/>
      <point x="933" y="-206" type="curve" smooth="yes"/>
      <point x="933" y="-99"/>
      <point x="852" y="-40"/>
      <point x="730" y="-40" type="curve" smooth="yes"/>
      <point x="624" y="-40"/>
      <point x="548" y="-58"/>
      <point x="534" y="-81" type="curve"/>
      <point x="674" y="-91" type="line"/>
      <point x="775" y="109" type="line"/>
    </contour>
  </outline>
</glyph>
<glyph name="eacute" format="2">
  <advance width="1088"/>
  <unicode hex="00E9"/>
  <outline>
    <contour>
      <point x="1075" y="612" type="curve" smooth="yes"/>
      <point x="1075" y="832"/>
      <point x="889" y="988"/>
      <point x="617" y="988" type="curve" smooth="yes"/>
      <point x="247" y="988"/>
      <point x="20" y="774"/>
      <point x="20" y="450" type="curve" smooth="yes"/>
      <point x="20" y="172"/>
      <point x="255" y="-30"/>
      <point x="568" y="-30" type="curve" smooth="yes"/>
      <point x="870" y="-30"/>
      <point x="1071" y="131"/>
      <point x="1071" y="269" type="curve" smooth="yes"/>
      <point x="1071" y="315"/>
      <point x="1041" y="337"/>
      <point x="1000" y="337" type="curve" smooth="yes"/>
      <point x="968" y="337"/>
      <point x="929" y="323"/>
      <point x="857" y="285" type="curve" smooth="yes"/>
      <point x="767" y="228"/>
      <point x="759" y="206"/>
      <point x="699" y="206" type="curve" smooth="yes"/>
      <point x="554" y="206"/>
      <point x="404" y="343"/>
      <point x="404" y="537" type="curve" smooth="yes"/>
      <point x="404" y="727"/>
      <point x="474" y="832"/>
      <point x="535" y="832" type="curve" smooth="yes"/>
      <point x="590" y="832"/>
      <point x="639" y="755"/>
      <point x="639" y="648" type="curve" smooth="yes"/>
      <point x="639" y="600"/>
      <point x="610" y="572"/>
      <point x="560" y="572" type="curve" smooth="yes"/>
      <point x="291" y="572" type="line"/>
      <point x="291" y="465" type="line"/>
      <point x="890" y="465" type="line" smooth="yes"/>
      <point x="1009" y="465"/>
      <point x="1075" y="521"/>
    </contour>
    <contour>
      <point x="488" y="1200" type="curve" smooth="yes"/>
      <point x="628" y="1321" type="line" smooth="yes"/>
      <point x="762" y="1403"/>
      <point x="888" y="1444"/>
      <point x="984" y="1444" type="curve" smooth="yes"/>
      <point x="1097" y="1444"/>
      <point x="1140" y="1412"/>
      <point x="1140" y="1351" type="curve" smooth="yes"/>
      <point x="1140" y="1295"/>
      <point x="1060" y="1244"/>
      <point x="925" y="1202" type="curve" smooth="yes"/>
      <point x="703" y="1111" type="line" smooth="yes"/>
      <point x="618" y="1085"/>
      <point x="554" y="1069"/>
      <point x="507" y="1069" type="curve" smooth="yes"/>
      <point x="454" y="1069"/>
      <point x="425" y="1090"/>
      <point x="425" y="1121" type="curve" smooth="yes"/>
      <point x="425" y="1148"/>
      <point x="451" y="1178"/>
    </contour>
  </outline>
</glyph>
<glyph name="ograve" format="2">
  <advance width="1208"/>
  <unicode hex="00F2"/>
  <outline>
    <contour>
      <point x="612" y="988" type="curve" smooth="yes"/>
      <point x="278" y="988"/>
      <point x="15" y="753"/>
      <point x="15" y="489" type="curve" smooth="yes"/>
      <point x="15" y="180"/>
      <point x="244" y="-30"/>
      <point x="594" y="-30" type="curve" smooth="yes"/>
      <point x="929" y="-30"/>
      <point x="1191" y="186"/>
      <point x="1191" y="489" type="curve" smooth="yes"/>
      <point x="1191" y="782"/>
      <point x="962" y="988"/>
    </contour>
    <contour>
      <point x="740" y="374" type="curve" smooth="yes"/>
      <point x="740" y="212"/>
      <point x="721" y="141"/>
      <point x="657" y="141" type="curve" smooth="yes"/>
      <point x="579" y="141"/>
      <point x="477" y="325"/>
      <point x="477" y="584" type="curve" smooth="yes"/>
      <point x="477" y="743"/>
      <point x="500" y="820"/>
      <point x="556" y="820" type="curve" smooth="yes"/>
      <point x="629" y="820"/>
      <point x="740" y="615"/>
    </contour>
    <contour>
      <point x="648" y="1200" type="curve" smooth="yes"/>
      <point x="508" y="1321" type="line" smooth="yes"/>
      <point x="374" y="1403"/>
      <point x="248" y="1444"/>
      <point x="152" y="1444" type="curve" smooth="yes"/>
      <point x="39" y="1444"/>
      <point x="-4" y="1412"/>
      <point x="-4" y="1351" type="curve" smooth="yes"/>
      <point x="-4" y="1295"/>
      <point x="75" y="1244"/>
      <point x="211" y="1202" type="curve" smooth="yes"/>
      <point x="433" y="1111" type="line" smooth="yes"/>
      <point x="518" y="1085"/>
      <point x="582" y="1069"/>
      <point x="629" y="1069" type="curve" smooth="yes"/>
      <point x="682" y="1069"/>
      <point x="711" y="1090"/>
      <point x="711" y="1121" type="curve" smooth="yes"/>
      <point x="711" y="1148"/>
      <point x="684" y="1178"/>
    </contour>
  </outline>
</glyph>
<glyph name="oacute" format="2">
  <advance width="1208"/>
  <unicode hex="00F3"/>
  <outline>
    <contour>
      <point x="612" y="988" type="curve" smooth="yes"/>
      <point x="278" y="988"/>
      <point x="15" y="753"/>
      <point x="15" y="489" type="curve" smooth="yes"/>
      <point x="15" y="180"/>
      <point x="244" y="-30"/>
      <point x="594" y="-30" type="curve" smooth="yes"/>
      <point x="929" y="-30"/>
      <point x="1191" y="186"/>
      <point x="1191" y="489" type="curve" smooth="yes"/>
      <point x="1191" y="782"/>
      <point x="962" y="988"/>
    </contour>
    <contour>
      <point x="740" y="374" type="curve" smooth="yes"/>
      <point x="740" y="212"/>
      <point x="721" y="141"/>
      <point x="657" y="141" type="curve" smooth="yes"/>
      <point x="579" y="141"/>
      <point x="477" y="325"/>
      <point x="477" y="584" type="curve" smooth="yes"/>
      <point x="477" y="743"/>
      <point x="500" y="820"/>
      <point x="556" y="820" type="curve" smooth="yes"/>
      <point x="629" y="820"/>
      <point x="740" y="615"/>
    </contour>
    <contour>
      <point x="587" y="1200" type="curve" smooth="yes"/>
      <point x="727" y="1321" type="line" smooth="yes"/>
      <point x="861" y="1403"/>
      <point x="987" y="1444"/>
      <point x="1083" y="1444" type="curve" smooth="yes"/>
      <point x="1196" y="1444"/>
      <point x="1239" y="1412"/>
      <point x="1239" y="1351" type="curve" smooth="yes"/>
      <point x="1239" y="1295"/>
      <point x="1160" y="1244"/>
      <point x="1024" y="1202" type="curve" smooth="yes"/>
      <point x="802" y="1111" type="line" smooth="yes"/>
      <point x="717" y="1085"/>
      <point x="653" y="1069"/>
      <point x="606" y="1069" type="curve" smooth="yes"/>
      <point x="553" y="1069"/>
      <point x="524" y="1090"/>
      <point x="524" y="1121" type="curve" smooth="yes"/>
      <point x="524" y="1148"/>
      <point x="551" y="1178"/>
    </contour>
  </outline>
</glyph>
<glyph name="divide" format="2">
  <advance width="1026"/>
  <unicode hex="00F7"/>
  <outline>
    <contour>
      <point x="23" y="594" type="curve" smooth="yes"/>
      <point x="23" y="535"/>
      <point x="96" y="489"/>
      <point x="177" y="489" type="curve" smooth="yes"/>
      <point x="295" y="489"/>
      <point x="433" y="507"/>
      <point x="519" y="507" type="curve" smooth="yes"/>
      <point x="608" y="507"/>
      <point x="740" y="489"/>
      <point x="849" y="489" type="curve" smooth="yes"/>
      <point x="943" y="489"/>
      <point x="1003" y="535"/>
      <point x="1003" y="594" type="curve" smooth="yes"/>
      <point x="1003" y="654"/>
      <point x="939" y="703"/>
      <point x="849" y="703" type="curve" smooth="yes"/>
      <point x="740" y="703"/>
      <point x="608" y="685"/>
      <point x="519" y="685" type="curve" smooth="yes"/>
      <point x="418" y="685"/>
      <point x="295" y="703"/>
      <point x="179" y="703" type="curve" smooth="yes"/>
      <point x="103" y="703"/>
      <point x="23" y="654"/>
    </contour>
    <contour>
      <point x="524" y="131" type="curve" smooth="yes"/>
      <point x="621" y="131"/>
      <point x="695" y="191"/>
      <point x="695" y="264" type="curve" smooth="yes"/>
      <point x="695" y="335"/>
      <point x="621" y="394"/>
      <point x="524" y="394" type="curve" smooth="yes"/>
      <point x="432" y="394"/>
      <point x="357" y="335"/>
      <point x="357" y="264" type="curve" smooth="yes"/>
      <point x="357" y="191"/>
      <point x="432" y="131"/>
    </contour>
    <contour>
      <point x="524" y="794" type="curve" smooth="yes"/>
      <point x="621" y="794"/>
      <point x="695" y="853"/>
      <point x="695" y="926" type="curve" smooth="yes"/>
      <point x="695" y="998"/>
      <point x="621" y="1056"/>
      <point x="524" y="1056" type="curve" smooth="yes"/>
      <point x="432" y="1056"/>
      <point x="357" y="998"/>
      <point x="357" y="926" type="curve" smooth="yes"/>
      <point x="357" y="853"/>
      <point x="432" y="794"/>
    </contour>
  </outline>
</glyph>
<glyph name="ucircumflex" format="2">
  <advance width="1349"/>
  <unicode hex="00FB"/>
  <outline>
    <contour>
      <point x="1218" y="913" type="line" smooth="yes"/>
      <point x="1218" y="962"/>
      <point x="1183" y="990"/>
      <point x="1125" y="990" type="curve" smooth="yes"/>
      <point x="1086" y="990"/>
      <point x="1049" y="982"/>
      <point x="986" y="968" type="curve" smooth="yes"/>
      <point x="764" y="915" type="line" smooth="yes"/>
      <point x="710" y="903"/>
      <point x="674" y="875"/>
      <point x="674" y="844" type="curve" smooth="yes"/>
      <point x="674" y="812"/>
      <point x="718" y="786"/>
      <point x="762" y="786" type="curve" smooth="yes"/>
      <point x="735" y="786" type="line" smooth="yes"/>
      <point x="783" y="786"/>
      <point x="778" y="764"/>
      <point x="778" y="711" type="curve" smooth="yes"/>
      <point x="778" y="141" type="line" smooth="yes"/>
      <point x="778" y="55"/>
      <point x="867" y="0"/>
      <point x="969" y="0" type="curve" smooth="yes"/>
      <point x="1234" y="0" type="line" smooth="yes"/>
      <point x="1306" y="0"/>
      <point x="1335" y="28"/>
      <point x="1335" y="71" type="curve" smooth="yes"/>
      <point x="1335" y="111"/>
      <point x="1306" y="125"/>
      <point x="1279" y="135" type="curve" smooth="yes"/>
      <point x="1281" y="141" type="line" smooth="yes"/>
      <point x="1242" y="156"/>
      <point x="1218" y="190"/>
      <point x="1218" y="261" type="curve" smooth="yes"/>
    </contour>
    <contour>
      <point x="553" y="913" type="line" smooth="yes"/>
      <point x="553" y="962"/>
      <point x="521" y="990"/>
      <point x="470" y="990" type="curve" smooth="yes"/>
      <point x="431" y="990"/>
      <point x="399" y="982"/>
      <point x="328" y="968" type="curve" smooth="yes"/>
      <point x="116" y="919" type="line" smooth="yes"/>
      <point x="49" y="907"/>
      <point x="14" y="881"/>
      <point x="14" y="842" type="curve" smooth="yes"/>
      <point x="14" y="812"/>
      <point x="50" y="786"/>
      <point x="92" y="786" type="curve" smooth="yes"/>
      <point x="77" y="786" type="line" smooth="yes"/>
      <point x="123" y="786"/>
      <point x="125" y="764"/>
      <point x="125" y="711" type="curve" smooth="yes"/>
      <point x="125" y="293" type="line" smooth="yes"/>
      <point x="125" y="101"/>
      <point x="297" y="-18"/>
      <point x="516" y="-18" type="curve" smooth="yes"/>
      <point x="655" y="-18"/>
      <point x="745" y="36"/>
      <point x="829" y="160" type="curve"/>
      <point x="793" y="259" type="line"/>
      <point x="740" y="188"/>
      <point x="712" y="164"/>
      <point x="655" y="164" type="curve" smooth="yes"/>
      <point x="568" y="164"/>
      <point x="553" y="230"/>
      <point x="553" y="335" type="curve" smooth="yes"/>
    </contour>
    <contour>
      <point x="323" y="1172" type="curve" smooth="yes"/>
      <point x="379" y="1289" type="line" smooth="yes"/>
      <point x="467" y="1372"/>
      <point x="549" y="1398"/>
      <point x="649" y="1398" type="curve" smooth="yes"/>
      <point x="741" y="1398"/>
      <point x="824" y="1372"/>
      <point x="917" y="1289" type="curve" smooth="yes"/>
      <point x="974" y="1172" type="line" smooth="yes"/>
      <point x="993" y="1153"/>
      <point x="1018" y="1127"/>
      <point x="1018" y="1105" type="curve" smooth="yes"/>
      <point x="1018" y="1073"/>
      <point x="996" y="1058"/>
      <point x="948" y="1058" type="curve" smooth="yes"/>
      <point x="913" y="1058"/>
      <point x="883" y="1069"/>
      <point x="820" y="1101" type="curve" smooth="yes"/>
      <point x="563" y="1256" type="line"/>
      <point x="734" y="1256" type="line"/>
      <point x="478" y="1101" type="line" smooth="yes"/>
      <point x="419" y="1071"/>
      <point x="385" y="1061"/>
      <point x="350" y="1061" type="curve" smooth="yes"/>
      <point x="303" y="1061"/>
      <point x="280" y="1075"/>
      <point x="280" y="1107" type="curve" smooth="yes"/>
      <point x="280" y="1130"/>
      <point x="305" y="1153"/>
    </contour>
  </outline>
</glyph>
<glyph name="Cacute" format="2">
  <advance width="1400"/>
  <unicode hex="0106"/>
  <outline>
    <contour>
      <point x="1397" y="378" type="curve" smooth="yes"/>
      <point x="1397" y="412"/>
      <point x="1368" y="440"/>
      <point x="1342" y="440" type="curve" smooth="yes"/>
      <point x="1309" y="440"/>
      <point x="1286" y="434"/>
      <point x="1240" y="386" type="curve" smooth="yes"/>
      <point x="1182" y="289"/>
      <point x="1026" y="224"/>
      <point x="899" y="224" type="curve" smooth="yes"/>
      <point x="657" y="224"/>
      <point x="489" y="446"/>
      <point x="489" y="764" type="curve" smooth="yes"/>
      <point x="489" y="1083"/>
      <point x="600" y="1271"/>
      <point x="755" y="1271" type="curve" smooth="yes"/>
      <point x="884" y="1271"/>
      <point x="1014" y="1206"/>
      <point x="1114" y="1030" type="curve" smooth="yes"/>
      <point x="1167" y="966"/>
      <point x="1221" y="945"/>
      <point x="1269" y="945" type="curve" smooth="yes"/>
      <point x="1332" y="945"/>
      <point x="1369" y="976"/>
      <point x="1369" y="1012" type="curve" smooth="yes"/>
      <point x="1369" y="1036"/>
      <point x="1367" y="1052"/>
      <point x="1346" y="1111" type="curve" smooth="yes"/>
      <point x="1296" y="1321" type="line" smooth="yes"/>
      <point x="1256" y="1414"/>
      <point x="1223" y="1446"/>
      <point x="1160" y="1446" type="curve" smooth="yes"/>
      <point x="1085" y="1446"/>
      <point x="1078" y="1394"/>
      <point x="999" y="1394" type="curve" smooth="yes"/>
      <point x="963" y="1394"/>
      <point x="903" y="1440"/>
      <point x="799" y="1440" type="curve" smooth="yes"/>
      <point x="365" y="1440"/>
      <point x="48" y="1127"/>
      <point x="48" y="683" type="curve" smooth="yes"/>
      <point x="48" y="263"/>
      <point x="313" y="-30"/>
      <point x="728" y="-30" type="curve" smooth="yes"/>
      <point x="1110" y="-30"/>
      <point x="1397" y="186"/>
    </contour>
    <contour>
      <point x="568" y="1578" type="curve" smooth="yes"/>
      <point x="800" y="1695" type="line" smooth="yes"/>
      <point x="951" y="1757"/>
      <point x="1060" y="1794"/>
      <point x="1151" y="1794" type="curve" smooth="yes"/>
      <point x="1252" y="1794"/>
      <point x="1311" y="1753"/>
      <point x="1311" y="1689" type="curve" smooth="yes"/>
      <point x="1311" y="1628"/>
      <point x="1200" y="1582"/>
      <point x="1039" y="1547" type="curve" smooth="yes"/>
      <point x="751" y="1483" type="line" smooth="yes"/>
      <point x="670" y="1468"/>
      <point x="620" y="1460"/>
      <point x="578" y="1460" type="curve" smooth="yes"/>
      <point x="521" y="1460"/>
      <point x="492" y="1477"/>
      <point x="492" y="1511" type="curve" smooth="yes"/>
      <point x="492" y="1532"/>
      <point x="523" y="1560"/>
    </contour>
  </outline>
</glyph>
<glyph name="Ccircumflex" format="2">
  <advance width="1400"/>
  <unicode hex="0108"/>
  <outline>
    <contour>
      <point x="1397" y="378" type="curve" smooth="yes"/>
      <point x="1397" y="412"/>
      <point x="1368" y="440"/>
      <point x="1342" y="440" type="curve" smooth="yes"/>
      <point x="1309" y="440"/>
      <point x="1286" y="434"/>
      <point x="1240" y="386" type="curve" smooth="yes"/>
      <point x="1182" y="289"/>
      <point x="1026" y="224"/>
      <point x="899" y="224" type="curve" smooth="yes"/>
      <point x="657" y="224"/>
      <point x="489" y="446"/>
      <point x="489" y="764" type="curve" smooth="yes"/>
      <point x="489" y="1083"/>
      <point x="600" y="1271"/>
      <point x="755" y="1271" type="curve" smooth="yes"/>
      <point x="884" y="1271"/>
      <point x="1014" y="1206"/>
      <point x="1114" y="1030" type="curve" smooth="yes"/>
      <point x="1167" y="966"/>
      <point x="1221" y="945"/>
      <point x="1269" y="945" type="curve" smooth="yes"/>
      <point x="1332" y="945"/>
      <point x="1369" y="976"/>
      <point x="1369" y="1012" type="curve" smooth="yes"/>
      <point x="1369" y="1036"/>
      <point x="1367" y="1052"/>
      <point x="1346" y="1111" type="curve" smooth="yes"/>
      <point x="1296" y="1321" type="line" smooth="yes"/>
      <point x="1256" y="1414"/>
      <point x="1223" y="1446"/>
      <point x="1160" y="1446" type="curve" smooth="yes"/>
      <point x="1085" y="1446"/>
      <point x="1078" y="1394"/>
      <point x="999" y="1394" type="curve" smooth="yes"/>
      <point x="963" y="1394"/>
      <point x="903" y="1440"/>
      <point x="799" y="1440" type="curve" smooth="yes"/>
      <point x="365" y="1440"/>
      <point x="48" y="1127"/>
      <point x="48" y="683" type="curve" smooth="yes"/>
      <point x="48" y="263"/>
      <point x="313" y="-30"/>
      <point x="728" y="-30" type="curve" smooth="yes"/>
      <point x="1110" y="-30"/>
      <point x="1397" y="186"/>
    </contour>
    <contour>
      <point x="376" y="1603" type="curve" smooth="yes"/>
      <point x="434" y="1708" type="line" smooth="yes"/>
      <point x="525" y="1783"/>
      <point x="613" y="1807"/>
      <point x="718" y="1807" type="curve" smooth="yes"/>
      <point x="814" y="1807"/>
      <point x="901" y="1783"/>
      <point x="999" y="1708" type="curve" smooth="yes"/>
      <point x="1059" y="1603" type="line" smooth="yes"/>
      <point x="1078" y="1587"/>
      <point x="1104" y="1562"/>
      <point x="1104" y="1543" type="curve" smooth="yes"/>
      <point x="1104" y="1514"/>
      <point x="1082" y="1501"/>
      <point x="1032" y="1501" type="curve" smooth="yes"/>
      <point x="994" y="1501"/>
      <point x="963" y="1510"/>
      <point x="897" y="1539" type="curve" smooth="yes"/>
      <point x="628" y="1680" type="line"/>
      <point x="808" y="1680" type="line"/>
      <point x="538" y="1539" type="line" smooth="yes"/>
      <point x="476" y="1512"/>
      <point x="441" y="1503"/>
      <point x="404" y="1503" type="curve" smooth="yes"/>
      <point x="353" y="1503"/>
      <point x="331" y="1515"/>
      <point x="331" y="1544" type="curve" smooth="yes"/>
      <point x="331" y="1566"/>
      <point x="356" y="1587"/>
    </contour>
  </outline>
</glyph>
<glyph name="cdotaccent" format="2">
  <advance width="1076"/>
  <unicode hex="010B"/>
  <outline>
    <contour>
      <point x="1065" y="699" type="curve" smooth="yes"/>
      <point x="1065" y="873"/>
      <point x="898" y="988"/>
      <point x="625" y="988" type="curve" smooth="yes"/>
      <point x="276" y="988"/>
      <point x="36" y="764"/>
      <point x="36" y="444" type="curve" smooth="yes"/>
      <point x="36" y="164"/>
      <point x="276" y="-30"/>
      <point x="589" y="-30" type="curve" smooth="yes"/>
      <point x="830" y="-30"/>
      <point x="1034" y="103"/>
      <point x="1034" y="263" type="curve" smooth="yes"/>
      <point x="1034" y="305"/>
      <point x="1000" y="335"/>
      <point x="956" y="335" type="curve" smooth="yes"/>
      <point x="921" y="335"/>
      <point x="893" y="324"/>
      <point x="835" y="285" type="curve" smooth="yes"/>
      <point x="810" y="246"/>
      <point x="763" y="222"/>
      <point x="695" y="222" type="curve" smooth="yes"/>
      <point x="554" y="222"/>
      <point x="442" y="356"/>
      <point x="442" y="543" type="curve" smooth="yes"/>
      <point x="442" y="703"/>
      <point x="474" y="830"/>
      <point x="557" y="830" type="curve" smooth="yes"/>
      <point x="610" y="830"/>
      <point x="633" y="792"/>
      <point x="633" y="735" type="curve" smooth="yes"/>
      <point x="633" y="703" type="line" smooth="yes"/>
      <point x="633" y="610"/>
      <point x="721" y="539"/>
      <point x="857" y="539" type="curve" smooth="yes"/>
      <point x="983" y="539"/>
      <point x="1065" y="608"/>
    </contour>
    <contour>
      <point x="572" y="972" type="curve" smooth="yes"/>
      <point x="709" y="972"/>
      <point x="820" y="1056"/>
      <point x="820" y="1159" type="curve" smooth="yes"/>
      <point x="820" y="1263"/>
      <point x="709" y="1343"/>
      <point x="572" y="1343" type="curve" smooth="yes"/>
      <point x="438" y="1343"/>
      <point x="325" y="1263"/>
      <point x="325" y="1159" type="curve" smooth="yes"/>
      <point x="325" y="1056"/>
      <point x="438" y="972"/>
    </contour>
  </outline>
</glyph>
<glyph name="ebreve" format="2">
  <advance width="1088"/>
  <unicode hex="0115"/>
  <outline>
    <contour>
      <point x="1075" y="612" type="curve" smooth="yes"/>
      <point x="1075" y="832"/>
      <point x="889" y="988"/>
      <point x="617" y="988" type="curve" smooth="yes"/>
      <point x="247" y="988"/>
      <point x="20" y="774"/>
      <point x="20" y="450" type="curve" smooth="yes"/>
      <point x="20" y="172"/>
      <point x="255" y="-30"/>
      <point x="568" y="-30" type="curve" smooth="yes"/>
      <point x="870" y="-30"/>
      <point x="1071" y="131"/>
      <point x="1071" y="269" type="curve" smooth="yes"/>
      <point x="1071" y="315"/>
      <point x="1041" y="337"/>
      <point x="1000" y="337" type="curve" smooth="yes"/>
      <point x="968" y="337"/>
      <point x="929" y="323"/>
      <point x="857" y="285" type="curve" smooth="yes"/>
      <point x="767" y="228"/>
      <point x="759" y="206"/>
      <point x="699" y="206" type="curve" smooth="yes"/>
      <point x="554" y="206"/>
      <point x="404" y="343"/>
      <point x="404" y="537" type="curve" smooth="yes"/>
      <point x="404" y="727"/>
      <point x="474" y="832"/>
      <point x="535" y="832" type="curve" smooth="yes"/>
      <point x="590" y="832"/>
      <point x="639" y="755"/>
      <point x="639" y="648" type="curve" smooth="yes"/>
      <point x="639" y="600"/>
      <point x="610" y="572"/>
      <point x="560" y="572" type="curve" smooth="yes"/>
      <point x="291" y="572" type="line"/>
      <point x="291" y="465" type="line"/>
      <point x="890" y="465" type="line" smooth="yes"/>
      <point x="1009" y="465"/>
      <point x="1075" y="521"/>
    </contour>
    <contour>
      <point x="506" y="1073" type="curve" smooth="yes"/>
      <point x="752" y="1073"/>
      <point x="874" y="1216"/>
      <point x="874" y="1357" type="curve" smooth="yes"/>
      <point x="874" y="1388"/>
      <point x="850" y="1408"/>
      <point x="813" y="1408" type="curve" smooth="yes"/>
      <point x="768" y="1408"/>
      <point x="731" y="1388"/>
      <point x="682" y="1359" type="curve" smooth="yes"/>
      <point x="608" y="1306"/>
      <point x="597" y="1269"/>
      <point x="506" y="1269" type="curve" smooth="yes"/>
      <point x="413" y="1269"/>
      <point x="398" y="1300"/>
      <point x="330" y="1359" type="curve" smooth="yes"/>
      <point x="277" y="1394"/>
      <point x="250" y="1408"/>
      <point x="196" y="1408" type="curve" smooth="yes"/>
      <point x="165" y="1408"/>
      <point x="135" y="1388"/>
      <point x="135" y="1357" type="curve" smooth="yes"/>
      <point x="135" y="1200"/>
      <point x="310" y="1073"/>
    </contour>
  </outline>
</glyph>
<glyph name="Hcircumflex" format="2">
  <advance width="1815"/>
  <unicode hex="0124"/>
  <outline>
    <contour>
      <point x="437" y="755" type="line"/>
      <point x="437" y="588" type="line"/>
      <point x="1351" y="588" type="line"/>
      <point x="1351" y="755" type="line"/>
    </contour>
    <contour>
      <point x="683" y="255" type="curve" smooth="yes"/>
      <point x="683" y="1157" type="line" smooth="yes"/>
      <point x="683" y="1212"/>
      <point x="708" y="1236"/>
      <point x="759" y="1248" type="curve" smooth="yes"/>
      <point x="798" y="1258" type="line" smooth="yes"/>
      <point x="862" y="1269"/>
      <point x="888" y="1293"/>
      <point x="888" y="1341" type="curve" smooth="yes"/>
      <point x="888" y="1392"/>
      <point x="856" y="1414"/>
      <point x="788" y="1414" type="curve" smooth="yes"/>
      <point x="126" y="1414" type="line" smooth="yes"/>
      <point x="48" y="1414"/>
      <point x="19" y="1392"/>
      <point x="19" y="1341" type="curve" smooth="yes"/>
      <point x="19" y="1293"/>
      <point x="42" y="1273"/>
      <point x="100" y="1260" type="curve" smooth="yes"/>
      <point x="151" y="1248" type="line" smooth="yes"/>
      <point x="201" y="1236"/>
      <point x="228" y="1212"/>
      <point x="228" y="1157" type="curve" smooth="yes"/>
      <point x="228" y="255" type="line" smooth="yes"/>
      <point x="228" y="202"/>
      <point x="201" y="178"/>
      <point x="151" y="166" type="curve" smooth="yes"/>
      <point x="124" y="156" type="line" smooth="yes"/>
      <point x="55" y="141"/>
      <point x="22" y="119"/>
      <point x="22" y="73" type="curve" smooth="yes"/>
      <point x="22" y="22"/>
      <point x="48" y="0"/>
      <point x="126" y="0" type="curve" smooth="yes"/>
      <point x="785" y="0" type="line" smooth="yes"/>
      <point x="856" y="0"/>
      <point x="892" y="22"/>
      <point x="892" y="73" type="curve" smooth="yes"/>
      <point x="892" y="121"/>
      <point x="865" y="145"/>
      <point x="802" y="156" type="curve" smooth="yes"/>
      <point x="759" y="166" type="line" smooth="yes"/>
      <point x="708" y="176"/>
      <point x="683" y="202"/>
    </contour>
    <contour>
      <point x="1587" y="255" type="curve" smooth="yes"/>
      <point x="1587" y="1157" type="line" smooth="yes"/>
      <point x="1587" y="1212"/>
      <point x="1612" y="1236"/>
      <point x="1663" y="1248" type="curve" smooth="yes"/>
      <point x="1703" y="1258" type="line" smooth="yes"/>
      <point x="1766" y="1269"/>
      <point x="1792" y="1293"/>
      <point x="1792" y="1341" type="curve" smooth="yes"/>
      <point x="1792" y="1392"/>
      <point x="1760" y="1414"/>
      <point x="1692" y="1414" type="curve" smooth="yes"/>
      <point x="1030" y="1414" type="line" smooth="yes"/>
      <point x="953" y="1414"/>
      <point x="923" y="1392"/>
      <point x="923" y="1341" type="curve" smooth="yes"/>
      <point x="923" y="1293"/>
      <point x="948" y="1273"/>
      <point x="1004" y="1260" type="curve" smooth="yes"/>
      <point x="1056" y="1248" type="line" smooth="yes"/>
      <point x="1105" y="1236"/>
      <point x="1132" y="1212"/>
      <point x="1132" y="1157" type="curve" smooth="yes"/>
      <point x="1132" y="255" type="line" smooth="yes"/>
      <point x="1132" y="202"/>
      <point x="1105" y="178"/>
      <point x="1056" y="166" type="curve" smooth="yes"/>
      <point x="1028" y="156" type="line" smooth="yes"/>
      <point x="959" y="141"/>
      <point x="927" y="119"/>
      <point x="927" y="73" type="curve" smooth="yes"/>
      <point x="927" y="22"/>
      <point x="953" y="0"/>
      <point x="1030" y="0" type="curve" smooth="yes"/>
      <point x="1689" y="0" type="line" smooth="yes"/>
      <point x="1760" y="0"/>
      <point x="1796" y="22"/>
      <point x="1796" y="73" type="curve" smooth="yes"/>
      <point x="1796" y="121"/>
      <point x="1770" y="145"/>
      <point x="1707" y="156" type="curve" smooth="yes"/>
      <point x="1663" y="166" type="line" smooth="yes"/>
      <point x="1612" y="176"/>
      <point x="1587" y="202"/>
    </contour>
    <contour>
      <point x="565" y="1603" type="curve" smooth="yes"/>
      <point x="624" y="1708" type="line" smooth="yes"/>
      <point x="716" y="1783"/>
      <point x="802" y="1807"/>
      <point x="907" y="1807" type="curve" smooth="yes"/>
      <point x="1003" y="1807"/>
      <point x="1091" y="1783"/>
      <point x="1189" y="1708" type="curve" smooth="yes"/>
      <point x="1249" y="1603" type="line" smooth="yes"/>
      <point x="1268" y="1587"/>
      <point x="1294" y="1562"/>
      <point x="1294" y="1543" type="curve" smooth="yes"/>
      <point x="1294" y="1514"/>
      <point x="1271" y="1501"/>
      <point x="1222" y="1501" type="curve" smooth="yes"/>
      <point x="1183" y="1501"/>
      <point x="1154" y="1510"/>
      <point x="1087" y="1539" type="curve" smooth="yes"/>
      <point x="818" y="1680" type="line"/>
      <point x="997" y="1680" type="line"/>
      <point x="728" y="1539" type="line" smooth="yes"/>
      <point x="666" y="1512"/>
      <point x="631" y="1503"/>
      <point x="593" y="1503" type="curve" smooth="yes"/>
      <point x="544" y="1503"/>
      <point x="521" y="1515"/>
      <point x="521" y="1544" type="curve" smooth="yes"/>
      <point x="521" y="1566"/>
      <point x="547" y="1587"/>
    </contour>
  </outline>
</glyph>
<glyph name="Kcommaaccent" format="2">
  <advance width="1736"/>
  <unicode hex="0136"/>
  <outline>
    <contour>
      <point x="461" y="467" type="line"/>
      <point x="552" y="378" type="line"/>
      <point x="1174" y="1010" type="line" smooth="yes"/>
      <point x="1374" y="1129"/>
      <point x="1486" y="1198"/>
      <point x="1544" y="1220" type="curve" smooth="yes"/>
      <point x="1615" y="1240"/>
      <point x="1647" y="1271"/>
      <point x="1645" y="1331" type="curve" smooth="yes"/>
      <point x="1643" y="1376"/>
      <point x="1592" y="1414"/>
      <point x="1505" y="1414" type="curve" smooth="yes"/>
      <point x="990" y="1414" type="line" smooth="yes"/>
      <point x="922" y="1414"/>
      <point x="873" y="1392"/>
      <point x="873" y="1345" type="curve" smooth="yes"/>
      <point x="873" y="1317"/>
      <point x="876" y="1295"/>
      <point x="942" y="1271" type="curve" smooth="yes"/>
      <point x="948" y="1254" type="line" smooth="yes"/>
      <point x="993" y="1234"/>
      <point x="1011" y="1208"/>
      <point x="1011" y="1176" type="curve" smooth="yes"/>
      <point x="1011" y="1115"/>
      <point x="959" y="1061"/>
      <point x="858" y="1000" type="curve" smooth="yes"/>
    </contour>
    <contour>
      <point x="779" y="719" type="line"/>
      <point x="984" y="289" type="line" smooth="yes"/>
      <point x="1000" y="259"/>
      <point x="1015" y="242"/>
      <point x="1015" y="210" type="curve" smooth="yes"/>
      <point x="1015" y="184"/>
      <point x="1006" y="172"/>
      <point x="969" y="147" type="curve" smooth="yes"/>
      <point x="934" y="127"/>
      <point x="920" y="109"/>
      <point x="920" y="69" type="curve" smooth="yes"/>
      <point x="920" y="22"/>
      <point x="958" y="0"/>
      <point x="1020" y="0" type="curve" smooth="yes"/>
      <point x="1534" y="0" type="line" smooth="yes"/>
      <point x="1633" y="0"/>
      <point x="1676" y="32"/>
      <point x="1676" y="85" type="curve" smooth="yes"/>
      <point x="1676" y="137"/>
      <point x="1641" y="156"/>
      <point x="1578" y="178" type="curve" smooth="yes"/>
      <point x="1565" y="192"/>
      <point x="1561" y="202"/>
      <point x="1547" y="242" type="curve" smooth="yes"/>
      <point x="1126" y="931" type="line"/>
    </contour>
    <contour>
      <point x="681" y="255" type="curve" smooth="yes"/>
      <point x="681" y="1157" type="line" smooth="yes"/>
      <point x="681" y="1212"/>
      <point x="706" y="1236"/>
      <point x="757" y="1248" type="curve" smooth="yes"/>
      <point x="796" y="1258" type="line" smooth="yes"/>
      <point x="860" y="1269"/>
      <point x="887" y="1293"/>
      <point x="887" y="1341" type="curve" smooth="yes"/>
      <point x="887" y="1392"/>
      <point x="854" y="1414"/>
      <point x="787" y="1414" type="curve" smooth="yes"/>
      <point x="125" y="1414" type="line" smooth="yes"/>
      <point x="46" y="1414"/>
      <point x="16" y="1392"/>
      <point x="16" y="1341" type="curve" smooth="yes"/>
      <point x="16" y="1293"/>
      <point x="41" y="1273"/>
      <point x="98" y="1260" type="curve" smooth="yes"/>
      <point x="149" y="1248" type="line" smooth="yes"/>
      <point x="199" y="1236"/>
      <point x="226" y="1212"/>
      <point x="226" y="1157" type="curve" smooth="yes"/>
      <point x="226" y="255" type="line" smooth="yes"/>
      <point x="226" y="202"/>
      <point x="199" y="178"/>
      <point x="149" y="166" type="curve" smooth="yes"/>
      <point x="122" y="156" type="line" smooth="yes"/>
      <point x="53" y="141"/>
      <point x="21" y="119"/>
      <point x="21" y="73" type="curve" smooth="yes"/>
      <point x="21" y="22"/>
      <point x="46" y="0"/>
      <point x="125" y="0" type="curve" smooth="yes"/>
      <point x="783" y="0" type="line" smooth="yes"/>
      <point x="854" y="0"/>
      <point x="890" y="22"/>
      <point x="890" y="73" type="curve" smooth="yes"/>
      <point x="890" y="121"/>
      <point x="864" y="145"/>
      <point x="800" y="156" type="curve" smooth="yes"/>
      <point x="757" y="166" type="line" smooth="yes"/>
      <point x="706" y="176"/>
      <point x="681" y="202"/>
    </contour>
    <contour>
      <point x="779" y="-139" type="curve" smooth="yes"/>
      <point x="805" y="-139" type="line" smooth="yes"/>
      <point x="828" y="-139"/>
      <point x="834" y="-151"/>
      <point x="834" y="-172" type="curve" smooth="yes"/>
      <point x="834" y="-205"/>
      <point x="786" y="-228"/>
      <point x="716" y="-228" type="curve" smooth="yes"/>
      <point x="649" y="-228"/>
      <point x="634" y="-255"/>
      <point x="634" y="-281" type="curve" smooth="yes"/>
      <point x="634" y="-310"/>
      <point x="667" y="-331"/>
      <point x="720" y="-331" type="curve" smooth="yes"/>
      <point x="920" y="-331"/>
      <point x="1045" y="-246"/>
      <point x="1045" y="-119" type="curve" smooth="yes"/>
      <point x="1045" y="-4"/>
      <point x="962" y="75"/>
      <point x="814" y="75" type="curve" smooth="yes"/>
      <point x="721" y="75"/>
      <point x="646" y="20"/>
      <point x="646" y="-40" type="curve" smooth="yes"/>
      <point x="646" y="-97"/>
      <point x="701" y="-139"/>
    </contour>
  </outline>
</glyph>
<glyph name="kra" format="2">
  <advance width="1352"/>
  <unicode hex="0138"/>
  <outline>
    <contour>
      <point x="865" y="698" type="line"/>
      <point x="628" y="526" type="line"/>
      <point x="795" y="233" type="line" smooth="yes"/>
      <point x="802" y="216"/>
      <point x="811" y="202"/>
      <point x="811" y="184" type="curve" smooth="yes"/>
      <point x="811" y="163"/>
      <point x="802" y="145"/>
      <point x="796" y="129" type="curve" smooth="yes"/>
      <point x="779" y="108"/>
      <point x="756" y="96"/>
      <point x="756" y="61" type="curve" smooth="yes"/>
      <point x="756" y="22"/>
      <point x="781" y="0"/>
      <point x="816" y="0" type="curve" smooth="yes"/>
      <point x="1200" y="0" type="line" smooth="yes"/>
      <point x="1277" y="0"/>
      <point x="1325" y="29"/>
      <point x="1325" y="67" type="curve" smooth="yes"/>
      <point x="1325" y="104"/>
      <point x="1308" y="129"/>
      <point x="1275" y="145" type="curve" smooth="yes"/>
      <point x="1271" y="159"/>
      <point x="1236" y="180"/>
      <point x="1212" y="222" type="curve" smooth="yes"/>
    </contour>
    <contour>
      <point x="451" y="449" type="line"/>
      <point x="590" y="345" type="line"/>
      <point x="1023" y="694" type="line" smooth="yes"/>
      <point x="1128" y="769"/>
      <point x="1181" y="810"/>
      <point x="1238" y="832" type="curve" smooth="yes"/>
      <point x="1326" y="851"/>
      <point x="1350" y="871"/>
      <point x="1350" y="910" type="curve" smooth="yes"/>
      <point x="1350" y="945"/>
      <point x="1321" y="969"/>
      <point x="1289" y="969" type="curve" smooth="yes"/>
      <point x="815" y="969" type="line" smooth="yes"/>
      <point x="765" y="969"/>
      <point x="735" y="953"/>
      <point x="735" y="914" type="curve" smooth="yes"/>
      <point x="735" y="879"/>
      <point x="748" y="859"/>
      <point x="783" y="843" type="curve" smooth="yes"/>
      <point x="810" y="828"/>
      <point x="824" y="820"/>
      <point x="824" y="796" type="curve" smooth="yes"/>
      <point x="824" y="771"/>
      <point x="830" y="745"/>
      <point x="795" y="712" type="curve" smooth="yes"/>
    </contour>
    <contour>
      <point x="584" y="932" type="line" smooth="yes"/>
      <point x="584" y="973"/>
      <point x="556" y="1000"/>
      <point x="512" y="1000" type="curve" smooth="yes"/>
      <point x="469" y="1000"/>
      <point x="433" y="987"/>
      <point x="366" y="967" type="curve" smooth="yes"/>
      <point x="108" y="887" type="line" smooth="yes"/>
      <point x="47" y="871"/>
      <point x="33" y="838"/>
      <point x="33" y="812" type="curve" smooth="yes"/>
      <point x="33" y="771"/>
      <point x="62" y="753"/>
      <point x="113" y="753" type="curve" smooth="yes"/>
      <point x="106" y="753" type="line" smooth="yes"/>
      <point x="135" y="753"/>
      <point x="168" y="730"/>
      <point x="168" y="679" type="curve" smooth="yes"/>
      <point x="168" y="218" type="line" smooth="yes"/>
      <point x="168" y="177"/>
      <point x="143" y="157"/>
      <point x="133" y="145" type="curve" smooth="yes"/>
      <point x="88" y="124" type="line" smooth="yes"/>
      <point x="40" y="110"/>
      <point x="25" y="97"/>
      <point x="25" y="67" type="curve" smooth="yes"/>
      <point x="25" y="24"/>
      <point x="60" y="0"/>
      <point x="119" y="0" type="curve" smooth="yes"/>
      <point x="630" y="0" type="line" smooth="yes"/>
      <point x="670" y="0"/>
      <point x="714" y="20"/>
      <point x="714" y="63" type="curve" smooth="yes"/>
      <point x="714" y="94"/>
      <point x="691" y="102"/>
      <point x="652" y="118" type="curve" smooth="yes"/>
      <point x="605" y="141" type="line" smooth="yes"/>
      <point x="591" y="153"/>
      <point x="584" y="175"/>
      <point x="584" y="218" type="curve" smooth="yes"/>
    </contour>
  </outline>
</glyph>
<glyph name="lcommaaccent" format="2">
  <advance width="730"/>
  <unicode hex="013C"/>
  <outline>
    <contour>
      <point x="600" y="1398" type="curve" smooth="yes"/>
      <point x="600" y="224" type="line" smooth="yes"/>
      <point x="600" y="180"/>
      <point x="599" y="154"/>
      <point x="614" y="143" type="curve" smooth="yes"/>
      <point x="653" y="131" type="line" smooth="yes"/>
      <point x="700" y="115"/>
      <point x="727" y="101"/>
      <point x="727" y="63" type="curve" smooth="yes"/>
      <point x="727" y="20"/>
      <point x="688" y="0"/>
      <point x="647" y="0" type="curve" smooth="yes"/>
      <point x="126" y="0" type="line" smooth="yes"/>
      <point x="70" y="0"/>
      <point x="45" y="24"/>
      <point x="45" y="65" type="curve" smooth="yes"/>
      <point x="45" y="101"/>
      <point x="66" y="115"/>
      <point x="113" y="129" type="curve" smooth="yes"/>
      <point x="114" y="137" type="line" smooth="yes"/>
      <point x="132" y="152"/>
      <point x="178" y="164"/>
      <point x="178" y="224" type="curve" smooth="yes"/>
      <point x="178" y="1151" type="line" smooth="yes"/>
      <point x="178" y="1202"/>
      <point x="143" y="1224"/>
      <point x="134" y="1224" type="curve" smooth="yes"/>
      <point x="150" y="1224" type="line" smooth="yes"/>
      <point x="87" y="1224"/>
      <point x="47" y="1242"/>
      <point x="47" y="1281" type="curve" smooth="yes"/>
      <point x="47" y="1307"/>
      <point x="62" y="1335"/>
      <point x="125" y="1353" type="curve" smooth="yes"/>
      <point x="376" y="1432" type="line" smooth="yes"/>
      <point x="447" y="1452"/>
      <point x="484" y="1465"/>
      <point x="531" y="1465" type="curve" smooth="yes"/>
      <point x="574" y="1465"/>
      <point x="600" y="1438"/>
    </contour>
    <contour>
      <point x="320" y="-212" type="curve" smooth="yes"/>
      <point x="347" y="-212" type="line" smooth="yes"/>
      <point x="370" y="-212"/>
      <point x="376" y="-224"/>
      <point x="376" y="-244" type="curve" smooth="yes"/>
      <point x="376" y="-278"/>
      <point x="328" y="-301"/>
      <point x="258" y="-301" type="curve" smooth="yes"/>
      <point x="191" y="-301"/>
      <point x="176" y="-327"/>
      <point x="176" y="-353" type="curve" smooth="yes"/>
      <point x="176" y="-383"/>
      <point x="209" y="-404"/>
      <point x="262" y="-404" type="curve" smooth="yes"/>
      <point x="461" y="-404"/>
      <point x="587" y="-319"/>
      <point x="587" y="-192" type="curve" smooth="yes"/>
      <point x="587" y="-77"/>
      <point x="504" y="2"/>
      <point x="354" y="2" type="curve" smooth="yes"/>
      <point x="262" y="2"/>
      <point x="187" y="-53"/>
      <point x="187" y="-113" type="curve" smooth="yes"/>
      <point x="187" y="-170"/>
      <point x="243" y="-212"/>
    </contour>
  </outline>
</glyph>
<glyph name="Lslash" format="2">
  <advance width="1372"/>
  <unicode hex="0141"/>
  <outline>
    <contour>
      <point x="148" y="490" type="curve" smooth="yes"/>
      <point x="158" y="490"/>
      <point x="177" y="499"/>
      <point x="185" y="502" type="curve" smooth="yes"/>
      <point x="783" y="704" type="line" smooth="yes"/>
      <point x="832" y="718"/>
      <point x="871" y="744"/>
      <point x="871" y="782" type="curve" smooth="yes"/>
      <point x="871" y="804"/>
      <point x="849" y="830"/>
      <point x="810" y="830" type="curve" smooth="yes"/>
      <point x="797" y="830"/>
      <point x="786" y="828"/>
      <point x="702" y="812" type="curve" smooth="yes"/>
      <point x="144" y="616" type="line" smooth="yes"/>
      <point x="98" y="603"/>
      <point x="78" y="572"/>
      <point x="78" y="542" type="curve" smooth="yes"/>
      <point x="78" y="511"/>
      <point x="109" y="490"/>
    </contour>
    <contour>
      <point x="814" y="1250" type="line" smooth="yes"/>
      <point x="876" y="1260"/>
      <point x="913" y="1290"/>
      <point x="913" y="1328" type="curve" smooth="yes"/>
      <point x="913" y="1376"/>
      <point x="882" y="1400"/>
      <point x="847" y="1400" type="curve" smooth="yes"/>
      <point x="119" y="1400" type="line" smooth="yes"/>
      <point x="72" y="1400"/>
      <point x="39" y="1376"/>
      <point x="39" y="1328" type="curve" smooth="yes"/>
      <point x="39" y="1284"/>
      <point x="78" y="1256"/>
      <point x="107" y="1246" type="curve" smooth="yes"/>
      <point x="146" y="1236" type="line" smooth="yes"/>
      <point x="200" y="1222"/>
      <point x="225" y="1192"/>
      <point x="225" y="1132" type="curve" smooth="yes"/>
      <point x="225" y="238" type="line" smooth="yes"/>
      <point x="225" y="200"/>
      <point x="202" y="172"/>
      <point x="167" y="166" type="curve" smooth="yes"/>
      <point x="105" y="154" type="line" smooth="yes"/>
      <point x="64" y="146"/>
      <point x="39" y="122"/>
      <point x="39" y="74" type="curve" smooth="yes"/>
      <point x="39" y="24"/>
      <point x="62" y="0"/>
      <point x="103" y="0" type="curve" smooth="yes"/>
      <point x="816" y="0" type="line" smooth="yes"/>
      <point x="958" y="0"/>
      <point x="1021" y="-42"/>
      <point x="1112" y="-42" type="curve" smooth="yes"/>
      <point x="1205" y="-42"/>
      <point x="1244" y="-8"/>
      <point x="1271" y="64" type="curve" smooth="yes"/>
      <point x="1316" y="310" type="line" smooth="yes"/>
      <point x="1353" y="404"/>
      <point x="1298" y="446"/>
      <point x="1226" y="446" type="curve" smooth="yes"/>
      <point x="1178" y="446"/>
      <point x="1143" y="438"/>
      <point x="1096" y="370" type="curve" smooth="yes"/>
      <point x="1055" y="280" type="line" smooth="yes"/>
      <point x="1016" y="200"/>
      <point x="948" y="160"/>
      <point x="787" y="160" type="curve" smooth="yes"/>
      <point x="840" y="160" type="line" smooth="yes"/>
      <point x="733" y="160"/>
      <point x="686" y="208"/>
      <point x="686" y="310" type="curve" smooth="yes"/>
      <point x="686" y="1120" type="line" smooth="yes"/>
      <point x="686" y="1190"/>
      <point x="717" y="1222"/>
      <point x="777" y="1236" type="curve" smooth="yes"/>
    </contour>
  </outline>
</glyph>
<glyph name="ncaron" format="2">
  <advance width="1390"/>
  <unicode hex="0148"/>
  <outline>
    <contour>
      <point x="575" y="921" type="line" smooth="yes"/>
      <point x="575" y="962"/>
      <point x="548" y="990"/>
      <point x="506" y="990" type="curve" smooth="yes"/>
      <point x="456" y="990"/>
      <point x="420" y="976"/>
      <point x="350" y="955" type="curve" smooth="yes"/>
      <point x="90" y="877" type="line" smooth="yes"/>
      <point x="25" y="856"/>
      <point x="9" y="828"/>
      <point x="9" y="802" type="curve" smooth="yes"/>
      <point x="9" y="760"/>
      <point x="42" y="741"/>
      <point x="101" y="741" type="curve" smooth="yes"/>
      <point x="73" y="741" type="line" smooth="yes"/>
      <point x="94" y="741"/>
      <point x="140" y="719"/>
      <point x="140" y="667" type="curve" smooth="yes"/>
      <point x="140" y="226" type="line" smooth="yes"/>
      <point x="140" y="184"/>
      <point x="112" y="154"/>
      <point x="65" y="137" type="curve" smooth="yes"/>
      <point x="85" y="131" type="line" smooth="yes"/>
      <point x="38" y="117"/>
      <point x="22" y="99"/>
      <point x="22" y="67" type="curve" smooth="yes"/>
      <point x="22" y="24"/>
      <point x="59" y="0"/>
      <point x="119" y="0" type="curve" smooth="yes"/>
      <point x="589" y="0" type="line" smooth="yes"/>
      <point x="658" y="0"/>
      <point x="695" y="20"/>
      <point x="695" y="65" type="curve" smooth="yes"/>
      <point x="695" y="103"/>
      <point x="675" y="117"/>
      <point x="633" y="131" type="curve" smooth="yes"/>
      <point x="610" y="143" type="line" smooth="yes"/>
      <point x="583" y="154"/>
      <point x="575" y="182"/>
      <point x="575" y="238" type="curve" smooth="yes"/>
    </contour>
    <contour>
      <point x="527" y="652" type="line" smooth="yes"/>
      <point x="574" y="703" type="line" smooth="yes"/>
      <point x="615" y="760"/>
      <point x="663" y="774"/>
      <point x="710" y="774" type="curve" smooth="yes"/>
      <point x="762" y="774"/>
      <point x="810" y="729"/>
      <point x="819" y="616" type="curve" smooth="yes"/>
      <point x="834" y="248" type="line" smooth="yes"/>
      <point x="845" y="174"/>
      <point x="818" y="147"/>
      <point x="766" y="139" type="curve" smooth="yes"/>
      <point x="793" y="135" type="line" smooth="yes"/>
      <point x="742" y="127"/>
      <point x="706" y="105"/>
      <point x="706" y="69" type="curve" smooth="yes"/>
      <point x="706" y="22"/>
      <point x="734" y="0"/>
      <point x="769" y="0" type="curve" smooth="yes"/>
      <point x="1303" y="0" type="line" smooth="yes"/>
      <point x="1340" y="0"/>
      <point x="1378" y="24"/>
      <point x="1378" y="65" type="curve" smooth="yes"/>
      <point x="1378" y="103"/>
      <point x="1346" y="123"/>
      <point x="1305" y="131" type="curve" smooth="yes"/>
      <point x="1323" y="135" type="line" smooth="yes"/>
      <point x="1296" y="143"/>
      <point x="1284" y="172"/>
      <point x="1277" y="226" type="curve" smooth="yes"/>
      <point x="1242" y="713" type="line" smooth="yes"/>
      <point x="1226" y="897"/>
      <point x="1103" y="990"/>
      <point x="961" y="990" type="curve" smooth="yes"/>
      <point x="766" y="990"/>
      <point x="606" y="923"/>
      <point x="486" y="808" type="curve" smooth="yes"/>
      <point x="422" y="741" type="line"/>
    </contour>
    <contour>
      <point x="369" y="1287" type="curve" smooth="yes"/>
      <point x="424" y="1170" type="line" smooth="yes"/>
      <point x="511" y="1087"/>
      <point x="594" y="1061"/>
      <point x="694" y="1061" type="curve" smooth="yes"/>
      <point x="786" y="1061"/>
      <point x="869" y="1087"/>
      <point x="962" y="1170" type="curve" smooth="yes"/>
      <point x="1020" y="1287" type="line" smooth="yes"/>
      <point x="1038" y="1305"/>
      <point x="1063" y="1331"/>
      <point x="1063" y="1353" type="curve" smooth="yes"/>
      <point x="1063" y="1386"/>
      <point x="1040" y="1400"/>
      <point x="993" y="1400" type="curve" smooth="yes"/>
      <point x="958" y="1400"/>
      <point x="928" y="1390"/>
      <point x="865" y="1357" type="curve" smooth="yes"/>
      <point x="609" y="1202" type="line"/>
      <point x="780" y="1202" type="line"/>
      <point x="523" y="1357" type="line" smooth="yes"/>
      <point x="465" y="1388"/>
      <point x="431" y="1398"/>
      <point x="396" y="1398" type="curve" smooth="yes"/>
      <point x="347" y="1398"/>
      <point x="325" y="1384"/>
      <point x="325" y="1351" type="curve" smooth="yes"/>
      <point x="325" y="1328"/>
      <point x="350" y="1305"/>
    </contour>
  </outline>
</glyph>
<glyph name="omacron" format="2">
  <advance width="1208"/>
  <unicode hex="014D"/>
  <outline>
    <contour>
      <point x="612" y="988" type="curve" smooth="yes"/>
      <point x="278" y="988"/>
      <point x="15" y="753"/>
      <point x="15" y="489" type="curve" smooth="yes"/>
      <point x="15" y="180"/>
      <point x="244" y="-30"/>
      <point x="594" y="-30" type="curve" smooth="yes"/>
      <point x="929" y="-30"/>
      <point x="1191" y="186"/>
      <point x="1191" y="489" type="curve" smooth="yes"/>
      <point x="1191" y="782"/>
      <point x="962" y="988"/>
    </contour>
    <contour>
      <point x="740" y="374" type="curve" smooth="yes"/>
      <point x="740" y="212"/>
      <point x="721" y="141"/>
      <point x="657" y="141" type="curve" smooth="yes"/>
      <point x="579" y="141"/>
      <point x="477" y="325"/>
      <point x="477" y="584" type="curve" smooth="yes"/>
      <point x="477" y="743"/>
      <point x="500" y="820"/>
      <point x="556" y="820" type="curve" smooth="yes"/>
      <point x="629" y="820"/>
      <point x="740" y="615"/>
    </contour>
    <contour>
      <point x="219" y="1166" type="curve" smooth="yes"/>
      <point x="219" y="1113"/>
      <point x="260" y="1079"/>
      <point x="325" y="1079" type="curve" smooth="yes"/>
      <point x="880" y="1079" type="line" smooth="yes"/>
      <point x="945" y="1079"/>
      <point x="988" y="1113"/>
      <point x="988" y="1166" type="curve" smooth="yes"/>
      <point x="988" y="1220"/>
      <point x="942" y="1256"/>
      <point x="880" y="1256" type="curve" smooth="yes"/>
      <point x="328" y="1256" type="line" smooth="yes"/>
      <point x="264" y="1256"/>
      <point x="219" y="1220"/>
    </contour>
  </outline>
</glyph>
<glyph name="Obreve" format="2">
  <advance width="1644"/>
  <unicode hex="014E"/>
  <outline>
    <contour>
      <point x="824" y="1440" type="curve" smooth="yes"/>
      <point x="319" y="1440"/>
      <point x="48" y="1111"/>
      <point x="48" y="715" type="curve" smooth="yes"/>
      <point x="48" y="273"/>
      <point x="323" y="-30"/>
      <point x="824" y="-30" type="curve" smooth="yes"/>
      <point x="1299" y="-30"/>
      <point x="1598" y="283"/>
      <point x="1598" y="717" type="curve" smooth="yes"/>
      <point x="1598" y="1133"/>
      <point x="1297" y="1440"/>
    </contour>
    <contour>
      <point x="1131" y="584" type="curve" smooth="yes"/>
      <point x="1131" y="303"/>
      <point x="1068" y="156"/>
      <point x="934" y="156" type="curve" smooth="yes"/>
      <point x="752" y="156"/>
      <point x="510" y="450"/>
      <point x="510" y="838" type="curve" smooth="yes"/>
      <point x="510" y="1091"/>
      <point x="569" y="1258"/>
      <point x="715" y="1258" type="curve" smooth="yes"/>
      <point x="897" y="1258"/>
      <point x="1131" y="968"/>
    </contour>
    <contour>
      <point x="825" y="1509" type="curve" smooth="yes"/>
      <point x="1117" y="1509"/>
      <point x="1286" y="1664"/>
      <point x="1286" y="1776" type="curve" smooth="yes"/>
      <point x="1286" y="1800"/>
      <point x="1262" y="1820"/>
      <point x="1233" y="1820" type="curve" smooth="yes"/>
      <point x="1201" y="1820"/>
      <point x="1190" y="1808"/>
      <point x="1139" y="1780" type="curve" smooth="yes"/>
      <point x="1087" y="1735"/>
      <point x="996" y="1705"/>
      <point x="825" y="1705" type="curve" smooth="yes"/>
      <point x="662" y="1705"/>
      <point x="583" y="1733"/>
      <point x="540" y="1772" type="curve" smooth="yes"/>
      <point x="468" y="1812"/>
      <point x="442" y="1820"/>
      <point x="416" y="1820" type="curve" smooth="yes"/>
      <point x="374" y="1820"/>
      <point x="359" y="1802"/>
      <point x="359" y="1780" type="curve" smooth="yes"/>
      <point x="359" y="1675"/>
      <point x="523" y="1509"/>
    </contour>
  </outline>
</glyph>
<glyph name="obreve" format="2">
  <advance width="1208"/>
  <unicode hex="014F"/>
  <outline>
    <contour>
      <point x="612" y="988" type="curve" smooth="yes"/>
      <point x="278" y="988"/>
      <point x="15" y="753"/>
      <point x="15" y="489" type="curve" smooth="yes"/>
      <point x="15" y="180"/>
      <point x="244" y="-30"/>
      <point x="594" y="-30" type="curve" smooth="yes"/>
      <point x="929" y="-30"/>
      <point x="1191" y="186"/>
      <point x="1191" y="489" type="curve" smooth="yes"/>
      <point x="1191" y="782"/>
      <point x="962" y="988"/>
    </contour>
    <contour>
      <point x="740" y="374" type="curve" smooth="yes"/>
      <point x="740" y="212"/>
      <point x="721" y="141"/>
      <point x="657" y="141" type="curve" smooth="yes"/>
      <point x="579" y="141"/>
      <point x="477" y="325"/>
      <point x="477" y="584" type="curve" smooth="yes"/>
      <point x="477" y="743"/>
      <point x="500" y="820"/>
      <point x="556" y="820" type="curve" smooth="yes"/>
      <point x="629" y="820"/>
      <point x="740" y="615"/>
    </contour>
    <contour>
      <point x="605" y="1073" type="curve" smooth="yes"/>
      <point x="851" y="1073"/>
      <point x="973" y="1216"/>
      <point x="973" y="1357" type="curve" smooth="yes"/>
      <point x="973" y="1388"/>
      <point x="949" y="1408"/>
      <point x="912" y="1408" type="curve" smooth="yes"/>
      <point x="867" y="1408"/>
      <point x="831" y="1388"/>
      <point x="781" y="1359" type="curve" smooth="yes"/>
      <point x="707" y="1306"/>
      <point x="696" y="1269"/>
      <point x="605" y="1269" type="curve" smooth="yes"/>
      <point x="512" y="1269"/>
      <point x="496" y="1300"/>
      <point x="428" y="1359" type="curve" smooth="yes"/>
      <point x="376" y="1394"/>
      <point x="349" y="1408"/>
      <point x="295" y="1408" type="curve" smooth="yes"/>
      <point x="264" y="1408"/>
      <point x="234" y="1388"/>
      <point x="234" y="1357" type="curve" smooth="yes"/>
      <point x="234" y="1200"/>
      <point x="410" y="1073"/>
    </contour>
  </outline>
</glyph>
<glyph name="Scircumflex" format="2">
  <advance width="1269"/>
  <unicode hex="015C"/>
  <outline>
    <contour>
      <point x="606" y="-30" type="curve" smooth="yes"/>
      <point x="993" y="-30"/>
      <point x="1226" y="156"/>
      <point x="1226" y="392" type="curve" smooth="yes"/>
      <point x="1226" y="584"/>
      <point x="1112" y="739"/>
      <point x="697" y="846" type="curve" smooth="yes"/>
      <point x="571" y="907"/>
      <point x="495" y="988"/>
      <point x="495" y="1109" type="curve" smooth="yes"/>
      <point x="495" y="1214"/>
      <point x="552" y="1293"/>
      <point x="624" y="1293" type="curve" smooth="yes"/>
      <point x="744" y="1293"/>
      <point x="882" y="1226"/>
      <point x="969" y="1036" type="curve" smooth="yes"/>
      <point x="1018" y="971"/>
      <point x="1082" y="941"/>
      <point x="1151" y="941" type="curve" smooth="yes"/>
      <point x="1217" y="941"/>
      <point x="1252" y="972"/>
      <point x="1252" y="1014" type="curve" smooth="yes"/>
      <point x="1252" y="1058"/>
      <point x="1240" y="1091"/>
      <point x="1226" y="1125" type="curve" smooth="yes"/>
      <point x="1165" y="1364" type="line" smooth="yes"/>
      <point x="1144" y="1414"/>
      <point x="1084" y="1460"/>
      <point x="1005" y="1460" type="curve" smooth="yes"/>
      <point x="921" y="1460"/>
      <point x="909" y="1410"/>
      <point x="852" y="1410" type="curve" smooth="yes"/>
      <point x="813" y="1410"/>
      <point x="751" y="1442"/>
      <point x="663" y="1442" type="curve" smooth="yes"/>
      <point x="264" y="1442"/>
      <point x="44" y="1251"/>
      <point x="44" y="1002" type="curve" smooth="yes"/>
      <point x="44" y="788"/>
      <point x="155" y="630"/>
      <point x="617" y="529" type="curve" smooth="yes"/>
      <point x="711" y="479"/>
      <point x="791" y="422"/>
      <point x="791" y="305" type="curve" smooth="yes"/>
      <point x="791" y="194"/>
      <point x="724" y="125"/>
      <point x="620" y="125" type="curve" smooth="yes"/>
      <point x="522" y="125"/>
      <point x="468" y="168"/>
      <point x="388" y="325" type="curve" smooth="yes"/>
      <point x="282" y="436"/>
      <point x="252" y="463"/>
      <point x="185" y="463" type="curve" smooth="yes"/>
      <point x="100" y="463"/>
      <point x="43" y="416"/>
      <point x="64" y="329" type="curve" smooth="yes"/>
      <point x="105" y="57" type="line" smooth="yes"/>
      <point x="126" y="-16"/>
      <point x="183" y="-50"/>
      <point x="271" y="-50" type="curve" smooth="yes"/>
      <point x="340" y="-50"/>
      <point x="362" y="-2"/>
      <point x="406" y="-2" type="curve" smooth="yes"/>
      <point x="446" y="-2"/>
      <point x="504" y="-30"/>
    </contour>
    <contour>
      <point x="307" y="1603" type="curve" smooth="yes"/>
      <point x="365" y="1708" type="line" smooth="yes"/>
      <point x="456" y="1783"/>
      <point x="544" y="1807"/>
      <point x="648" y="1807" type="curve" smooth="yes"/>
      <point x="745" y="1807"/>
      <point x="832" y="1783"/>
      <point x="930" y="1708" type="curve" smooth="yes"/>
      <point x="990" y="1603" type="line" smooth="yes"/>
      <point x="1009" y="1587"/>
      <point x="1035" y="1562"/>
      <point x="1035" y="1543" type="curve" smooth="yes"/>
      <point x="1035" y="1514"/>
      <point x="1012" y="1501"/>
      <point x="962" y="1501" type="curve" smooth="yes"/>
      <point x="925" y="1501"/>
      <point x="894" y="1510"/>
      <point x="828" y="1539" type="curve" smooth="yes"/>
      <point x="558" y="1680" type="line"/>
      <point x="739" y="1680" type="line"/>
      <point x="469" y="1539" type="line" smooth="yes"/>
      <point x="407" y="1512"/>
      <point x="372" y="1503"/>
      <point x="335" y="1503" type="curve" smooth="yes"/>
      <point x="284" y="1503"/>
      <point x="262" y="1515"/>
      <point x="262" y="1544" type="curve" smooth="yes"/>
      <point x="262" y="1566"/>
      <point x="287" y="1587"/>
    </contour>
  </outline>
</glyph>
<glyph name="Scedilla" format="2">
  <advance width="1269"/>
  <unicode hex="015E"/>
  <outline>
    <contour>
      <point x="606" y="-30" type="curve" smooth="yes"/>
      <point x="993" y="-30"/>
      <point x="1226" y="156"/>
      <point x="1226" y="392" type="curve" smooth="yes"/>
      <point x="1226" y="584"/>
      <point x="1112" y="739"/>
      <point x="697" y="846" type="curve" smooth="yes"/>
      <point x="571" y="907"/>
      <point x="495" y="988"/>
      <point x="495" y="1109" type="curve" smooth="yes"/>
      <point x="495" y="1214"/>
      <point x="552" y="1293"/>
      <point x="624" y="1293" type="curve" smooth="yes"/>
      <point x="744" y="1293"/>
      <point x="882" y="1226"/>
      <point x="969" y="1036" type="curve" smooth="yes"/>
      <point x="1018" y="971"/>
      <point x="1082" y="941"/>
      <point x="1151" y="941" type="curve" smooth="yes"/>
      <point x="1217" y="941"/>
      <point x="1252" y="972"/>
      <point x="1252" y="1014" type="curve" smooth="yes"/>
      <point x="1252" y="1058"/>
      <point x="1240" y="1091"/>
      <point x="1226" y="1125" type="curve" smooth="yes"/>
      <point x="1165" y="1364" type="line" smooth="yes"/>
      <point x="1144" y="1414"/>
      <point x="1084" y="1460"/>
      <point x="1005" y="1460" type="curve" smooth="yes"/>
      <point x="921" y="1460"/>
      <point x="909" y="1410"/>
      <point x="852" y="1410" type="curve" smooth="yes"/>
      <point x="813" y="1410"/>
      <point x="751" y="1442"/>
      <point x="663" y="1442" type="curve" smooth="yes"/>
      <point x="264" y="1442"/>
      <point x="44" y="1251"/>
      <point x="44" y="1002" type="curve" smooth="yes"/>
      <point x="44" y="788"/>
      <point x="155" y="630"/>
      <point x="617" y="529" type="curve" smooth="yes"/>
      <point x="711" y="479"/>
      <point x="791" y="422"/>
      <point x="791" y="305" type="curve" smooth="yes"/>
      <point x="791" y="194"/>
      <point x="724" y="125"/>
      <point x="620" y="125" type="curve" smooth="yes"/>
      <point x="522" y="125"/>
      <point x="468" y="168"/>
      <point x="388" y="325" type="curve" smooth="yes"/>
      <point x="282" y="436"/>
      <point x="252" y="463"/>
      <point x="185" y="463" type="curve" smooth="yes"/>
      <point x="100" y="463"/>
      <point x="43" y="416"/>
      <point x="64" y="329" type="curve" smooth="yes"/>
      <point x="105" y="57" type="line" smooth="yes"/>
      <point x="126" y="-16"/>
      <point x="183" y="-50"/>
      <point x="271" y="-50" type="curve" smooth="yes"/>
      <point x="340" y="-50"/>
      <point x="362" y="-2"/>
      <point x="406" y="-2" type="curve" smooth="yes"/>
      <point x="446" y="-2"/>
      <point x="504" y="-30"/>
    </contour>
    <contour>
      <point x="624" y="180" type="line"/>
      <point x="540" y="20" type="line" smooth="yes"/>
      <point x="489" y="-31"/>
      <point x="516" y="-79"/>
      <point x="597" y="-79" type="curve" smooth="yes"/>
      <point x="608" y="-79"/>
      <point x="615" y="-71"/>
      <point x="632" y="-71" type="curve" smooth="yes"/>
      <point x="673" y="-71"/>
      <point x="694" y="-97"/>
      <point x="694" y="-154" type="curve" smooth="yes"/>
      <point x="694" y="-208"/>
      <point x="665" y="-236"/>
      <point x="624" y="-236" type="curve" smooth="yes"/>
      <point x="602" y="-236"/>
      <point x="588" y="-222"/>
      <point x="588" y="-202" type="curve" smooth="yes"/>
      <point x="588" y="-178" type="line" smooth="yes"/>
      <point x="588" y="-121"/>
      <point x="524" y="-85"/>
      <point x="434" y="-85" type="curve" smooth="yes"/>
      <point x="342" y="-85"/>
      <point x="275" y="-129"/>
      <point x="275" y="-186" type="curve" smooth="yes"/>
      <point x="275" y="-271"/>
      <point x="410" y="-331"/>
      <point x="616" y="-331" type="curve" smooth="yes"/>
      <point x="843" y="-331"/>
      <point x="997" y="-252"/>
      <point x="997" y="-133" type="curve" smooth="yes"/>
      <point x="997" y="-26"/>
      <point x="915" y="32"/>
      <point x="793" y="32" type="curve" smooth="yes"/>
      <point x="687" y="32"/>
      <point x="612" y="15"/>
      <point x="597" y="-8" type="curve"/>
      <point x="736" y="-18" type="line"/>
      <point x="837" y="182" type="line"/>
    </contour>
  </outline>
</glyph>
<glyph name="Tcedilla" format="2">
  <advance width="1429"/>
  <unicode hex="0162"/>
  <outline>
    <contour>
      <point x="385" y="1414" type="line" smooth="yes"/>
      <point x="295" y="1414"/>
      <point x="266" y="1458"/>
      <point x="222" y="1458" type="curve" smooth="yes"/>
      <point x="137" y="1458"/>
      <point x="78" y="1427"/>
      <point x="64" y="1370" type="curve" smooth="yes"/>
      <point x="28" y="1115" type="line" smooth="yes"/>
      <point x="12" y="1042"/>
      <point x="46" y="1012"/>
      <point x="109" y="1012" type="curve" smooth="yes"/>
      <point x="157" y="1012"/>
      <point x="197" y="1028"/>
      <point x="259" y="1107" type="curve" smooth="yes"/>
      <point x="316" y="1216"/>
      <point x="354" y="1269"/>
      <point x="406" y="1269" type="curve" smooth="yes"/>
      <point x="484" y="1269" type="line"/>
      <point x="484" y="271" type="line" smooth="yes"/>
      <point x="484" y="210"/>
      <point x="458" y="180"/>
      <point x="408" y="166" type="curve" smooth="yes"/>
      <point x="389" y="156" type="line" smooth="yes"/>
      <point x="319" y="141"/>
      <point x="280" y="117"/>
      <point x="280" y="73" type="curve" smooth="yes"/>
      <point x="280" y="24"/>
      <point x="323" y="0"/>
      <point x="385" y="0" type="curve" smooth="yes"/>
      <point x="1042" y="0" type="line" smooth="yes"/>
      <point x="1105" y="0"/>
      <point x="1145" y="24"/>
      <point x="1145" y="73" type="curve" smooth="yes"/>
      <point x="1145" y="117"/>
      <point x="1109" y="139"/>
      <point x="1038" y="156" type="curve" smooth="yes"/>
      <point x="1018" y="166" type="line" smooth="yes"/>
      <point x="968" y="180"/>
      <point x="941" y="210"/>
      <point x="941" y="271" type="curve" smooth="yes"/>
      <point x="941" y="1269" type="line"/>
      <point x="1024" y="1269" type="line" smooth="yes"/>
      <point x="1073" y="1269"/>
      <point x="1119" y="1206"/>
      <point x="1164" y="1103" type="curve" smooth="yes"/>
      <point x="1226" y="1024"/>
      <point x="1274" y="1008"/>
      <point x="1326" y="1008" type="curve" smooth="yes"/>
      <point x="1395" y="1008"/>
      <point x="1422" y="1036"/>
      <point x="1403" y="1111" type="curve" smooth="yes"/>
      <point x="1363" y="1372" type="line" smooth="yes"/>
      <point x="1348" y="1430"/>
      <point x="1288" y="1462"/>
      <point x="1216" y="1462" type="curve" smooth="yes"/>
      <point x="1155" y="1462"/>
      <point x="1123" y="1414"/>
      <point x="1049" y="1414" type="curve"/>
    </contour>
    <contour>
      <point x="693" y="180" type="line"/>
      <point x="608" y="20" type="line" smooth="yes"/>
      <point x="557" y="-31"/>
      <point x="584" y="-79"/>
      <point x="665" y="-79" type="curve" smooth="yes"/>
      <point x="676" y="-79"/>
      <point x="684" y="-71"/>
      <point x="700" y="-71" type="curve" smooth="yes"/>
      <point x="741" y="-71"/>
      <point x="763" y="-97"/>
      <point x="763" y="-154" type="curve" smooth="yes"/>
      <point x="763" y="-208"/>
      <point x="733" y="-236"/>
      <point x="692" y="-236" type="curve" smooth="yes"/>
      <point x="670" y="-236"/>
      <point x="656" y="-222"/>
      <point x="656" y="-202" type="curve" smooth="yes"/>
      <point x="656" y="-178" type="line" smooth="yes"/>
      <point x="656" y="-121"/>
      <point x="592" y="-85"/>
      <point x="502" y="-85" type="curve" smooth="yes"/>
      <point x="410" y="-85"/>
      <point x="344" y="-129"/>
      <point x="344" y="-186" type="curve" smooth="yes"/>
      <point x="344" y="-271"/>
      <point x="478" y="-331"/>
      <point x="684" y="-331" type="curve" smooth="yes"/>
      <point x="911" y="-331"/>
      <point x="1065" y="-252"/>
      <point x="1065" y="-133" type="curve" smooth="yes"/>
      <point x="1065" y="-26"/>
      <point x="983" y="32"/>
      <point x="862" y="32" type="curve" smooth="yes"/>
      <point x="756" y="32"/>
      <point x="680" y="15"/>
      <point x="665" y="-8" type="curve"/>
      <point x="804" y="-18" type="line"/>
      <point x="905" y="182" type="line"/>
    </contour>
  </outline>
</glyph>
<glyph name="tcedilla" format="2">
  <advance width="897"/>
  <unicode hex="0163"/>
  <outline>
    <contour>
      <point x="113" y="774" type="line" smooth="yes"/>
      <point x="130" y="753"/>
      <point x="135" y="723"/>
      <point x="135" y="661" type="curve" smooth="yes"/>
      <point x="135" y="271" type="line" smooth="yes"/>
      <point x="135" y="83"/>
      <point x="247" y="-30"/>
      <point x="478" y="-30" type="curve" smooth="yes"/>
      <point x="730" y="-30"/>
      <point x="883" y="63"/>
      <point x="896" y="186" type="curve" smooth="yes"/>
      <point x="894" y="212"/>
      <point x="872" y="238"/>
      <point x="840" y="238" type="curve" smooth="yes"/>
      <point x="823" y="238"/>
      <point x="798" y="232"/>
      <point x="782" y="214" type="curve" smooth="yes"/>
      <point x="755" y="190"/>
      <point x="714" y="182"/>
      <point x="677" y="182" type="curve" smooth="yes"/>
      <point x="605" y="182"/>
      <point x="555" y="236"/>
      <point x="555" y="331" type="curve" smooth="yes"/>
      <point x="555" y="1157" type="line" smooth="yes"/>
      <point x="555" y="1204"/>
      <point x="513" y="1232"/>
      <point x="447" y="1232" type="curve" smooth="yes"/>
      <point x="407" y="1232"/>
      <point x="346" y="1208"/>
      <point x="317" y="1159" type="curve" smooth="yes"/>
      <point x="243" y="1016" type="line" smooth="yes"/>
      <point x="222" y="978"/>
      <point x="180" y="960"/>
      <point x="151" y="960" type="curve" smooth="yes"/>
      <point x="134" y="960" type="line" smooth="yes"/>
      <point x="57" y="960"/>
      <point x="10" y="929"/>
      <point x="10" y="885" type="curve" smooth="yes"/>
      <point x="10" y="854"/>
      <point x="37" y="822"/>
      <point x="90" y="794" type="curve" smooth="yes"/>
    </contour>
    <contour>
      <point x="415" y="784" type="line"/>
      <point x="415" y="784"/>
      <point x="630" y="784"/>
      <point x="677" y="784" type="curve" smooth="yes"/>
      <point x="808" y="784"/>
      <point x="888" y="832"/>
      <point x="888" y="901" type="curve" smooth="yes"/>
      <point x="888" y="939"/>
      <point x="854" y="960"/>
      <point x="798" y="960" type="curve" smooth="yes"/>
      <point x="760" y="960"/>
      <point x="430" y="960"/>
      <point x="430" y="960" type="curve"/>
    </contour>
    <contour>
      <point x="441" y="107" type="line"/>
      <point x="356" y="-53" type="line" smooth="yes"/>
      <point x="305" y="-104"/>
      <point x="333" y="-151"/>
      <point x="413" y="-151" type="curve" smooth="yes"/>
      <point x="423" y="-151"/>
      <point x="432" y="-143"/>
      <point x="448" y="-143" type="curve" smooth="yes"/>
      <point x="488" y="-143"/>
      <point x="511" y="-170"/>
      <point x="511" y="-226" type="curve" smooth="yes"/>
      <point x="511" y="-281"/>
      <point x="481" y="-309"/>
      <point x="440" y="-309" type="curve" smooth="yes"/>
      <point x="417" y="-309"/>
      <point x="405" y="-295"/>
      <point x="405" y="-275" type="curve" smooth="yes"/>
      <point x="405" y="-250" type="line" smooth="yes"/>
      <point x="405" y="-194"/>
      <point x="340" y="-158"/>
      <point x="250" y="-158" type="curve" smooth="yes"/>
      <point x="158" y="-158"/>
      <point x="92" y="-202"/>
      <point x="92" y="-259" type="curve" smooth="yes"/>
      <point x="92" y="-343"/>
      <point x="226" y="-404"/>
      <point x="432" y="-404" type="curve" smooth="yes"/>
      <point x="658" y="-404"/>
      <point x="813" y="-325"/>
      <point x="813" y="-206" type="curve" smooth="yes"/>
      <point x="813" y="-99"/>
      <point x="731" y="-40"/>
      <point x="610" y="-40" type="curve" smooth="yes"/>
      <point x="504" y="-40"/>
      <point x="427" y="-58"/>
      <point x="413" y="-81" type="curve"/>
      <point x="553" y="-91" type="line"/>
      <point x="654" y="109" type="line"/>
    </contour>
  </outline>
</glyph>
